{"glyphs":{"0":{"ha":756,"x_min":60,"x_max":696,"o":"m 232 722 q 202 675 232 722 q 172 457 172 628 q 231 190 172 286 q 380 93 289 93 q 527 188 471 93 q 583 456 583 282 q 524 723 583 631 q 378 815 465 815 q 232 722 292 815 m 381 -11 q 306 -11 381 -11 q 146 117 232 -11 q 60 458 60 244 q 147 795 60 671 q 378 919 233 919 q 609 795 522 919 q 696 458 696 671 q 613 117 696 244 q 381 -11 529 -11 z "},"1":{"ha":449,"x_min":25,"x_max":343,"o":"m 343 908 l 343 0 l 235 0 l 235 789 l 25 660 l 25 778 l 240 908 l 343 908 z "},"2":{"ha":686,"x_min":53,"x_max":626,"o":"m 626 96 l 626 0 l 53 0 l 53 93 q 483 635 483 418 q 433 767 483 721 q 299 814 383 814 q 82 732 189 814 l 82 842 q 306 918 181 918 q 514 847 431 918 q 597 646 597 776 q 204 96 597 400 l 626 96 z "},"3":{"ha":647,"x_min":53,"x_max":576,"o":"m 81 867 q 281 918 161 918 q 476 849 401 918 q 550 679 550 781 q 513 547 550 606 q 404 460 476 489 q 530 387 483 442 q 576 250 576 332 q 499 65 576 139 q 285 -8 421 -8 q 53 38 149 -8 l 53 147 q 260 93 156 93 q 415 139 365 93 q 464 258 464 185 q 409 372 464 332 q 251 411 354 411 l 193 411 l 193 507 l 251 507 q 383 551 329 507 q 436 668 436 594 q 390 779 436 742 q 256 817 344 817 q 81 760 168 817 l 81 867 z "},"4":{"ha":750,"x_min":58,"x_max":717,"o":"m 717 317 l 717 221 l 582 221 l 582 0 l 474 0 l 474 221 l 58 221 l 58 317 l 404 908 l 582 908 l 582 317 l 717 317 m 474 317 l 474 843 l 169 317 l 474 317 z "},"5":{"ha":707,"x_min":82,"x_max":644,"o":"m 235 813 l 235 540 q 343 554 297 554 q 563 481 482 554 q 644 278 644 407 q 556 69 644 149 q 323 -11 468 -11 q 82 36 178 -11 l 82 144 q 297 92 171 92 q 531 288 531 92 q 476 410 531 367 q 328 454 422 454 q 126 406 235 454 l 126 908 l 582 908 l 582 813 l 235 813 z "},"6":{"ha":731,"x_min":72,"x_max":681,"o":"m 490 833 q 282 735 360 833 q 186 489 204 638 q 408 585 278 585 q 609 506 538 585 q 681 292 681 426 q 602 71 681 157 q 394 -15 524 -15 q 156 103 239 -15 q 72 411 72 221 q 183 786 72 638 q 489 935 294 935 q 617 914 551 935 l 617 807 q 490 833 557 833 m 182 385 q 245 162 188 238 q 388 86 303 86 q 520 144 474 86 q 567 293 567 203 q 520 435 567 383 q 399 486 474 486 q 182 385 274 486 z "},"7":{"ha":626,"x_min":17,"x_max":610,"o":"m 17 908 l 610 908 l 610 813 l 233 0 l 117 0 l 493 813 l 17 813 l 17 908 z "},"8":{"ha":744,"x_min":71,"x_max":674,"o":"m 674 236 q 586 56 674 124 q 369 -11 499 -11 q 156 54 240 -11 q 71 229 71 119 q 115 369 71 311 q 235 453 158 426 q 86 663 86 510 q 169 851 86 783 q 369 918 253 918 q 568 852 485 918 q 651 661 651 786 q 613 537 651 590 q 506 456 574 483 q 674 236 674 404 m 540 660 q 540 696 540 660 q 496 776 540 732 q 370 821 451 821 q 243 775 289 821 q 197 657 197 729 q 247 544 197 585 q 371 504 296 504 q 493 547 446 504 q 540 660 540 589 m 182 238 q 182 205 182 238 q 231 128 182 171 q 370 86 279 86 q 511 132 461 86 q 561 245 561 178 q 513 358 561 313 q 369 403 464 404 q 228 353 275 401 q 182 238 182 306 z "},"9":{"ha":700,"x_min":50,"x_max":642,"o":"m 242 92 q 528 407 493 92 q 322 325 458 325 q 131 406 211 325 q 50 619 50 488 q 126 835 50 750 q 335 919 203 919 q 565 806 488 919 q 642 518 642 692 q 542 130 642 271 q 246 -11 443 -11 q 89 15 165 -11 l 89 124 q 242 92 161 92 m 533 518 q 487 734 533 650 q 338 818 440 818 q 211 765 258 818 q 164 619 164 713 q 214 474 164 525 q 350 422 264 422 q 533 511 464 422 l 533 518 z "},"\u0000":{"ha":0,"x_min":0,"x_max":0,"o":""},"\r":{"ha":0,"x_min":0,"x_max":0,"o":""}," ":{"ha":339,"x_min":0,"x_max":0,"o":""},"!":{"ha":349,"x_min":90,"x_max":256,"o":"m 172 -11 q 154 -11 172 -11 q 113 13 136 -11 q 90 70 90 36 q 114 128 90 104 q 172 153 138 153 q 231 128 207 153 q 256 70 256 104 q 232 13 256 36 q 172 -11 208 -11 m 121 283 l 121 936 l 228 936 l 228 283 l 121 283 z "},"\"":{"ha":410,"x_min":61,"x_max":349,"o":"m 251 617 l 251 946 l 349 946 l 349 617 l 251 617 m 61 617 l 61 946 l 160 946 l 160 617 l 61 617 z "},"#":{"ha":986,"x_min":74,"x_max":913,"o":"m 913 610 l 751 610 l 692 324 l 840 324 l 840 236 l 674 236 l 624 0 l 522 0 l 572 236 l 324 236 l 274 0 l 175 0 l 225 236 l 74 236 l 74 324 l 243 324 l 303 610 l 149 610 l 149 699 l 322 699 l 372 936 l 472 936 l 422 699 l 671 699 l 721 936 l 819 936 l 769 699 l 913 699 l 913 610 m 590 324 l 651 610 l 403 610 l 342 324 l 590 324 z "},"$":{"ha":701,"x_min":74,"x_max":631,"o":"m 579 783 q 394 839 494 839 q 243 799 293 839 q 193 696 193 760 q 206 635 193 661 q 256 586 219 610 q 349 534 304 554 q 424 501 394 514 q 486 469 453 488 q 557 419 519 450 q 631 247 631 360 q 558 68 631 135 q 367 -8 485 1 l 367 -151 l 271 -151 l 271 -7 q 78 50 157 4 l 78 171 q 325 94 179 94 q 463 134 413 94 q 514 246 514 174 q 501 305 514 279 q 452 354 488 331 q 397 388 417 378 q 340 414 376 399 q 274 442 303 429 q 212 474 244 456 q 144 524 179 493 q 74 693 74 585 q 149 868 74 801 q 342 943 225 935 l 342 1088 l 438 1088 l 438 940 q 579 901 519 931 l 579 783 z "},"%":{"ha":1176,"x_min":68,"x_max":1108,"o":"m 801 298 q 782 280 801 298 q 764 210 764 261 q 801 122 764 158 q 889 86 838 86 q 977 122 940 86 q 1014 210 1014 158 q 978 298 1014 261 q 890 335 942 335 q 801 298 838 335 m 200 803 q 182 785 200 803 q 164 715 164 767 q 200 627 164 664 q 288 590 236 590 q 376 627 339 590 q 413 715 413 664 q 376 803 413 767 q 288 839 339 839 q 200 803 236 839 m 288 494 q 242 494 288 494 q 133 559 197 494 q 68 715 68 624 q 133 870 68 806 q 288 935 197 935 q 443 870 378 935 q 508 715 508 806 q 443 559 508 624 q 288 494 378 494 m 888 -10 q 843 -10 888 -10 q 733 55 797 -10 q 669 210 669 119 q 733 366 669 301 q 888 431 797 431 q 1044 365 979 431 q 1108 210 1108 300 q 1044 55 1108 119 q 888 -10 979 -10 m 286 -1 l 782 924 l 889 924 l 390 -1 l 286 -1 z "},"&":{"ha":976,"x_min":90,"x_max":974,"o":"m 731 88 q 451 -11 618 -11 q 187 60 283 -11 q 90 244 90 132 q 310 485 90 401 q 214 610 244 556 q 183 726 183 665 q 254 894 183 831 q 443 958 325 958 q 633 890 561 958 q 706 718 706 821 q 655 575 706 639 q 485 456 604 511 l 719 236 q 758 372 753 297 l 864 372 q 797 164 856 253 l 974 0 l 825 0 l 731 88 m 593 717 q 593 747 593 717 q 554 817 593 776 q 447 858 515 858 q 338 823 379 858 q 297 734 297 788 q 323 637 297 681 q 415 525 349 593 q 551 613 508 568 q 593 717 593 658 m 654 160 l 379 415 q 247 342 290 382 q 204 238 204 301 q 269 133 204 175 q 451 90 335 90 q 654 160 568 90 z "},"'":{"ha":221,"x_min":61,"x_max":160,"o":"m 61 617 l 61 946 l 160 946 l 160 617 l 61 617 z "},"(":{"ha":431,"x_min":100,"x_max":444,"o":"m 100 363 q 157 693 100 532 q 313 982 214 854 l 433 982 q 215 356 215 688 q 444 -272 215 24 l 322 -272 q 100 363 100 11 z "},")":{"ha":431,"x_min":-14,"x_max":332,"o":"m 332 363 q 108 -272 332 13 l -14 -272 q 215 357 215 24 q -3 982 215 690 l 119 982 q 275 693 218 854 q 332 363 332 532 z "},"*":{"ha":567,"x_min":40,"x_max":525,"o":"m 347 678 l 338 678 q 382 636 364 664 l 460 528 l 389 475 l 310 583 q 283 638 290 611 q 257 582 276 610 l 178 475 l 106 526 l 185 636 q 228 676 207 665 l 217 676 q 167 685 190 676 l 40 726 l 67 813 l 196 771 q 250 739 225 761 q 238 803 238 767 l 238 936 l 326 936 l 326 803 q 315 742 326 767 q 369 772 336 763 l 497 813 l 525 728 l 397 686 q 347 678 375 678 z "},"+":{"ha":768,"x_min":79,"x_max":690,"o":"m 690 522 l 690 422 l 431 422 l 431 160 l 328 160 l 328 422 l 79 422 l 79 522 l 328 522 l 328 785 l 431 785 l 431 522 l 690 522 z "},",":{"ha":313,"x_min":-11,"x_max":264,"o":"m -11 -171 l 118 140 l 264 140 l 85 -171 l -11 -171 z "},"-":{"ha":483,"x_min":79,"x_max":404,"o":"m 79 325 l 79 421 l 404 421 l 404 325 l 79 325 z "},".":{"ha":231,"x_min":33,"x_max":197,"o":"m 57 13 q 45 24 57 13 q 33 71 33 36 q 57 129 33 106 q 115 153 81 153 q 174 129 150 153 q 197 71 197 106 q 174 13 197 36 q 115 -11 150 -11 q 57 13 81 -11 z "},"/":{"ha":560,"x_min":-12,"x_max":606,"o":"m -12 -142 l 493 982 l 606 982 l 99 -142 l -12 -142 z "},":":{"ha":326,"x_min":82,"x_max":244,"o":"m 105 22 q 93 33 105 22 q 82 79 82 44 q 105 138 82 114 q 163 161 128 161 q 221 138 197 161 q 244 79 244 114 q 221 22 244 44 q 163 -1 197 -1 q 105 22 128 -1 m 163 447 q 145 447 163 447 q 105 470 128 447 q 82 527 82 493 q 105 585 82 561 q 163 608 128 608 q 221 585 197 608 q 244 527 244 561 q 221 470 244 493 q 163 447 197 447 z "},";":{"ha":313,"x_min":-11,"x_max":264,"o":"m -11 -171 l 118 140 l 264 140 l 85 -171 l -11 -171 m 178 446 q 160 446 178 446 q 120 469 143 446 q 97 526 97 492 q 120 583 97 560 q 178 607 143 607 q 236 583 213 607 q 260 526 260 560 q 236 469 260 492 q 178 446 213 446 z "},"<":{"ha":732,"x_min":79,"x_max":664,"o":"m 79 421 l 79 526 l 664 788 l 664 675 q 194 475 297 524 q 664 272 289 428 l 664 158 l 79 421 z "},"=":{"ha":768,"x_min":79,"x_max":690,"o":"m 79 285 l 79 381 l 690 381 l 690 285 l 79 285 m 79 565 l 79 660 l 690 660 l 690 565 l 79 565 z "},">":{"ha":732,"x_min":68,"x_max":653,"o":"m 653 526 l 653 421 l 68 158 l 68 272 q 536 475 432 422 q 68 675 436 524 l 68 788 l 653 526 z "},"?":{"ha":628,"x_min":63,"x_max":575,"o":"m 247 -11 q 229 -11 247 -11 q 188 13 211 -11 q 165 70 165 36 q 189 128 165 104 q 247 153 213 153 q 306 128 281 153 q 331 70 331 104 q 306 13 331 36 q 247 -11 282 -11 m 63 890 q 285 947 153 947 q 496 880 417 947 q 575 694 575 813 q 493 510 575 575 q 303 435 411 444 l 301 283 l 196 283 l 194 514 q 392 558 322 514 q 461 681 461 601 q 415 804 461 760 q 271 849 369 849 q 63 779 172 849 l 63 890 z "},"@":{"ha":1257,"x_min":83,"x_max":1192,"o":"m 789 488 q 794 569 789 503 l 886 569 l 865 378 q 860 258 860 304 q 951 118 860 118 q 1053 185 1013 118 q 1094 360 1094 253 q 977 653 1094 549 q 669 758 860 758 q 334 619 479 758 q 189 277 189 479 q 302 -32 189 75 q 566 -139 415 -139 q 825 -79 717 -139 l 819 -186 q 575 -233 726 -233 q 216 -91 349 -233 q 83 272 83 51 q 258 686 83 521 q 682 851 433 851 q 1044 718 896 851 q 1192 367 1192 585 q 1117 118 1192 207 q 946 29 1042 29 q 783 149 818 29 q 578 25 710 25 q 416 98 475 25 q 357 288 357 171 q 434 491 357 406 q 624 576 511 576 q 789 488 736 576 m 461 283 q 461 243 461 283 q 499 159 461 203 q 594 115 536 115 q 701 154 651 115 q 772 263 750 193 q 778 339 775 313 q 628 485 756 485 q 508 424 556 485 q 461 283 461 363 z "},"A":{"ha":900,"x_min":49,"x_max":851,"o":"m 731 0 l 649 246 l 253 246 l 169 0 l 49 0 l 375 936 l 531 936 l 851 0 l 731 0 m 285 342 l 617 342 l 453 846 q 285 342 433 775 z "},"B":{"ha":793,"x_min":107,"x_max":733,"o":"m 107 936 l 389 936 q 620 869 533 936 q 707 690 707 803 q 662 551 707 610 q 546 476 617 492 q 678 406 624 464 q 733 243 733 349 q 659 69 733 138 q 449 0 585 0 l 107 0 l 107 936 m 219 840 l 219 521 l 369 521 q 536 568 482 521 q 590 685 590 615 q 540 798 590 756 q 389 840 489 840 l 219 840 m 219 96 l 432 96 q 569 137 521 96 q 617 257 617 178 q 563 381 617 336 q 411 425 510 425 l 219 425 l 219 96 z "},"C":{"ha":836,"x_min":67,"x_max":778,"o":"m 538 843 q 285 740 386 843 q 185 469 185 638 q 285 197 185 300 q 550 94 385 94 q 778 165 683 94 l 778 47 q 542 -11 692 -11 q 199 119 331 -11 q 67 466 67 249 q 201 816 67 683 q 538 949 335 949 q 775 899 683 949 l 775 783 q 665 829 714 815 q 538 843 617 843 z "},"D":{"ha":918,"x_min":107,"x_max":857,"o":"m 107 936 l 385 936 q 724 808 592 936 q 857 476 857 679 q 734 136 857 272 q 390 0 611 0 l 107 0 l 107 936 m 221 99 l 389 99 q 651 206 563 99 q 740 471 740 314 q 641 732 740 628 q 383 836 542 836 l 221 836 l 221 99 z "},"E":{"ha":696,"x_min":107,"x_max":629,"o":"m 219 99 l 629 99 l 629 0 l 107 0 l 107 936 l 622 936 l 622 838 l 219 838 l 219 517 l 575 517 l 575 418 l 219 418 l 219 99 z "},"F":{"ha":679,"x_min":107,"x_max":621,"o":"m 621 838 l 219 838 l 219 506 l 572 506 l 572 407 l 219 407 l 219 0 l 107 0 l 107 936 l 621 936 l 621 838 z "},"G":{"ha":931,"x_min":67,"x_max":838,"o":"m 838 525 l 838 78 l 836 78 l 838 74 q 547 -11 725 -11 q 199 117 331 -11 q 67 464 67 246 q 198 817 67 682 q 529 953 329 953 q 803 889 694 953 l 803 768 q 535 843 689 843 q 283 741 382 843 q 185 467 185 639 q 282 197 185 296 q 550 97 379 97 q 725 135 644 97 l 725 426 l 519 426 l 519 525 l 838 525 z "},"H":{"ha":893,"x_min":107,"x_max":786,"o":"m 674 936 l 786 936 l 786 0 l 674 0 l 674 424 l 219 424 l 219 0 l 107 0 l 107 936 l 219 936 l 219 525 l 674 525 l 674 936 z "},"I":{"ha":343,"x_min":115,"x_max":228,"o":"m 115 0 l 115 936 l 228 936 l 228 0 l 115 0 z "},"J":{"ha":497,"x_min":42,"x_max":392,"o":"m 158 103 q 279 231 279 103 l 279 936 l 392 936 l 392 240 q 174 0 392 0 q 42 31 96 0 l 42 139 q 158 103 97 103 z "},"K":{"ha":796,"x_min":107,"x_max":757,"o":"m 381 463 l 757 0 l 611 0 l 242 463 l 599 936 l 738 936 l 381 463 m 107 0 l 107 936 l 219 936 l 219 0 l 107 0 z "},"L":{"ha":663,"x_min":107,"x_max":618,"o":"m 219 101 l 618 101 l 618 0 l 107 0 l 107 936 l 219 936 l 219 101 z "},"M":{"ha":1190,"x_min":97,"x_max":1094,"o":"m 97 0 l 165 936 l 308 936 l 432 594 l 582 158 q 869 936 676 426 l 1013 936 l 1094 0 l 982 0 l 917 785 q 635 21 826 532 l 528 21 l 263 776 q 210 0 263 739 l 97 0 z "},"N":{"ha":935,"x_min":107,"x_max":828,"o":"m 107 0 l 107 936 l 249 936 l 483 542 l 721 136 q 715 540 715 271 l 715 936 l 828 936 l 828 0 l 686 0 q 213 801 297 649 q 219 394 219 657 l 219 0 l 107 0 z "},"O":{"ha":972,"x_min":67,"x_max":907,"o":"m 487 849 q 416 849 487 849 q 265 748 344 849 q 185 473 185 647 q 267 197 185 299 q 490 96 350 96 q 709 196 631 96 q 788 472 788 296 q 708 749 788 649 q 487 849 629 849 m 489 -11 q 393 -11 489 -11 q 182 121 297 -11 q 67 473 67 253 q 180 824 67 693 q 488 954 293 954 q 795 824 683 954 q 907 473 907 694 q 794 120 907 251 q 489 -11 681 -11 z "},"P":{"ha":757,"x_min":107,"x_max":703,"o":"m 107 936 l 353 936 q 609 852 515 936 q 703 639 703 768 q 610 427 703 510 q 364 344 517 344 l 219 344 l 219 0 l 107 0 l 107 936 m 219 440 l 371 440 q 531 497 472 442 q 589 640 589 553 q 528 783 589 726 q 360 840 468 839 l 219 840 l 219 440 z "},"Q":{"ha":985,"x_min":67,"x_max":949,"o":"m 488 -11 q 182 121 297 -11 q 67 473 67 253 q 180 824 67 693 q 488 954 293 954 q 795 824 683 954 q 907 472 907 694 q 845 195 907 311 q 671 26 783 79 l 949 -146 l 826 -197 l 549 -7 q 488 -11 519 -11 m 487 849 q 416 849 487 849 q 265 748 344 849 q 185 473 185 647 q 267 197 185 299 q 490 96 350 96 q 709 196 631 96 q 788 472 788 296 q 708 749 788 649 q 487 849 629 849 z "},"R":{"ha":761,"x_min":107,"x_max":729,"o":"m 365 369 l 219 369 l 219 0 l 107 0 l 107 936 l 342 936 q 588 860 504 936 q 672 649 672 783 q 621 483 669 551 q 483 388 572 415 l 729 0 l 594 0 l 365 369 m 219 839 l 219 465 l 361 465 q 508 517 457 465 q 558 651 558 569 q 349 839 558 839 l 219 839 z "},"S":{"ha":728,"x_min":92,"x_max":649,"o":"m 597 783 q 411 839 513 839 q 260 799 310 839 q 210 696 210 760 q 269 586 210 628 q 381 527 314 557 q 472 485 447 497 q 537 448 497 474 q 597 397 576 422 q 649 249 649 335 q 564 58 649 125 q 339 -10 479 -10 q 96 50 199 -10 l 96 171 q 343 94 197 94 q 481 133 431 94 q 531 246 531 172 q 481 344 531 307 q 351 417 425 386 q 247 465 278 449 q 172 514 215 482 q 92 694 92 578 q 177 877 92 810 q 388 944 263 944 q 597 901 513 944 l 597 783 z "},"T":{"ha":669,"x_min":25,"x_max":643,"o":"m 643 936 l 643 838 l 390 838 l 390 0 l 278 0 l 278 838 l 25 838 l 25 936 l 643 936 z "},"U":{"ha":896,"x_min":106,"x_max":790,"o":"m 678 353 l 678 936 l 790 936 l 790 356 q 699 82 790 175 q 447 -11 608 -11 q 196 80 286 -11 q 106 344 106 171 l 106 936 l 218 936 l 218 346 q 280 156 218 217 q 446 94 342 94 q 678 353 678 94 z "},"V":{"ha":885,"x_min":50,"x_max":835,"o":"m 835 936 l 508 0 l 367 0 l 50 936 l 171 936 l 293 565 l 439 101 q 714 936 510 332 l 835 936 z "},"W":{"ha":1303,"x_min":50,"x_max":1253,"o":"m 600 922 l 713 922 l 815 589 l 957 114 q 1139 936 1010 365 l 1253 936 l 1033 0 l 889 0 l 658 764 q 438 0 618 610 l 294 0 l 50 936 l 168 936 l 256 589 l 371 118 q 600 922 450 410 z "},"X":{"ha":851,"x_min":54,"x_max":797,"o":"m 421 376 l 188 0 l 54 0 l 356 472 l 71 936 l 203 936 l 418 574 l 633 936 l 767 936 l 483 472 l 797 0 l 665 0 l 421 376 z "},"Y":{"ha":824,"x_min":36,"x_max":788,"o":"m 467 0 l 354 0 l 354 347 l 36 936 l 167 936 q 410 450 385 514 q 657 936 417 471 l 788 936 l 467 349 l 467 0 z "},"Z":{"ha":790,"x_min":72,"x_max":718,"o":"m 697 936 l 697 844 l 203 96 l 718 96 l 718 0 l 72 0 l 72 93 l 567 840 l 79 840 l 79 936 l 697 936 z "},"[":{"ha":431,"x_min":107,"x_max":426,"o":"m 426 885 l 215 885 l 215 -154 l 426 -154 l 426 -254 l 107 -254 l 107 982 l 426 982 l 426 885 z "},"\\":{"ha":558,"x_min":-46,"x_max":572,"o":"m 67 982 l 572 -143 l 461 -143 l -46 982 l 67 982 z "},"]":{"ha":431,"x_min":4,"x_max":324,"o":"m 324 982 l 324 -254 l 4 -254 l 4 -154 l 215 -154 l 215 885 l 4 885 l 4 982 l 324 982 z "},"^":{"ha":640,"x_min":63,"x_max":578,"o":"m 578 461 l 468 461 l 322 750 l 172 461 l 63 461 l 260 825 l 386 825 l 578 461 z "},"_":{"ha":779,"x_min":39,"x_max":740,"o":"m 39 -139 l 39 -43 l 740 -43 l 740 -139 l 39 -139 z "},"`":{"ha":585,"x_min":160,"x_max":428,"o":"m 292 1108 l 428 892 l 332 892 l 160 1108 l 292 1108 z "},"a":{"ha":683,"x_min":65,"x_max":590,"o":"m 325 715 q 590 446 590 715 l 590 0 l 482 0 l 482 83 q 285 -7 428 -7 q 126 51 186 -7 q 65 205 65 110 q 142 356 65 300 q 353 413 219 413 l 481 413 l 481 449 q 443 574 481 532 q 305 617 406 617 q 117 557 204 617 l 117 667 q 325 715 196 715 m 481 325 l 358 325 q 225 290 269 325 q 181 203 181 256 q 215 117 181 150 q 321 85 250 85 q 436 127 392 85 q 481 235 481 169 l 481 325 z "},"b":{"ha":792,"x_min":106,"x_max":732,"o":"m 215 982 l 215 599 q 427 715 292 715 q 647 613 563 715 q 732 354 732 511 q 652 93 732 197 q 431 -11 572 -11 q 215 104 290 -11 l 215 0 l 106 0 l 106 982 l 215 982 m 215 353 q 215 285 215 353 q 276 153 215 217 q 422 89 336 89 q 563 160 507 89 q 618 353 618 231 q 560 545 618 475 q 422 615 503 615 q 278 553 340 615 q 215 353 215 490 z "},"c":{"ha":654,"x_min":60,"x_max":586,"o":"m 436 83 q 586 129 517 83 l 586 25 q 422 -15 519 -15 q 158 91 256 -15 q 60 349 60 197 q 158 608 60 500 q 425 717 256 717 q 586 678 515 717 l 586 574 q 436 617 522 617 q 245 540 317 617 q 174 349 174 463 q 243 159 175 235 q 436 83 311 83 z "},"d":{"ha":788,"x_min":60,"x_max":686,"o":"m 576 982 l 686 982 l 686 0 l 576 0 l 576 104 q 360 -11 501 -11 q 140 93 219 -11 q 60 354 60 197 q 144 613 60 511 q 365 715 229 715 q 576 597 500 715 l 576 982 m 174 353 q 174 292 174 353 q 229 160 174 231 q 370 89 285 89 q 516 153 456 89 q 576 353 576 217 q 514 553 576 490 q 370 615 451 615 q 231 545 289 615 q 174 353 174 475 z "},"e":{"ha":725,"x_min":60,"x_max":660,"o":"m 415 -7 q 158 91 256 -7 q 60 353 60 189 q 147 615 60 518 q 369 713 235 713 q 582 628 504 713 q 660 388 660 543 q 653 306 660 343 l 172 306 q 251 146 185 201 q 431 90 318 90 q 615 139 544 90 l 615 36 q 415 -7 533 -7 m 550 397 l 550 425 q 503 565 550 513 q 374 617 456 617 q 238 560 293 617 q 172 397 182 503 l 550 397 z "},"f":{"ha":457,"x_min":42,"x_max":438,"o":"m 438 882 q 367 893 404 893 q 301 863 329 893 q 272 768 272 832 l 272 704 l 428 704 l 428 615 l 272 615 l 272 0 l 163 0 l 163 615 l 42 615 l 42 704 l 163 704 l 163 769 q 217 932 163 872 q 369 992 272 992 q 438 982 403 992 l 438 882 z "},"g":{"ha":763,"x_min":61,"x_max":669,"o":"m 560 704 l 669 704 l 669 57 q 581 -185 669 -104 q 358 -267 492 -267 q 133 -224 224 -267 l 133 -114 q 333 -165 222 -165 q 560 58 560 -165 l 560 138 q 361 18 490 18 q 147 107 232 18 q 61 353 61 196 q 140 613 61 511 q 356 714 219 714 q 560 588 492 714 l 560 704 m 175 356 q 175 297 175 356 q 233 177 175 239 q 367 115 292 115 q 501 174 442 115 q 560 359 560 233 q 503 550 560 485 q 363 615 446 615 q 228 544 281 615 q 175 356 175 472 z "},"h":{"ha":750,"x_min":101,"x_max":657,"o":"m 210 982 l 210 582 q 432 714 272 714 q 595 651 533 714 q 657 482 657 589 l 657 0 l 547 0 l 547 456 q 508 574 547 532 q 397 615 468 615 q 268 556 326 615 q 210 385 210 496 l 210 0 l 101 0 l 101 982 l 210 982 z "},"i":{"ha":324,"x_min":90,"x_max":233,"o":"m 110 874 q 100 884 110 874 q 90 925 90 894 q 110 976 90 956 q 161 997 131 997 q 213 976 192 997 q 233 925 233 956 q 213 874 233 894 q 161 854 192 854 q 110 874 131 854 m 107 0 l 107 704 l 217 704 l 217 0 l 107 0 z "},"j":{"ha":317,"x_min":-64,"x_max":233,"o":"m 110 874 q 100 884 110 874 q 90 925 90 894 q 110 976 90 956 q 161 997 131 997 q 213 976 192 997 q 233 925 233 956 q 213 874 233 894 q 161 854 192 854 q 110 874 131 854 m 31 -175 q 108 -74 108 -175 l 108 704 l 217 704 l 217 -76 q 169 -219 217 -168 q 36 -271 121 -271 q -64 -250 -10 -271 l -64 -153 q 31 -175 -11 -175 z "},"k":{"ha":667,"x_min":101,"x_max":639,"o":"m 353 369 l 639 0 l 507 0 l 224 369 l 500 704 l 631 704 l 353 369 m 101 0 l 101 976 l 210 976 l 210 0 l 101 0 z "},"l":{"ha":324,"x_min":107,"x_max":217,"o":"m 107 0 l 107 982 l 217 982 l 217 0 l 107 0 z "},"m":{"ha":1136,"x_min":101,"x_max":1043,"o":"m 210 704 l 210 590 q 408 714 268 714 q 614 576 571 714 q 699 678 644 643 q 822 714 754 714 q 988 651 932 714 q 1043 483 1043 589 l 1043 0 l 933 0 l 933 456 q 799 615 933 615 q 679 555 732 615 q 626 385 626 494 l 626 0 l 517 0 l 517 456 q 382 615 517 615 q 263 555 315 615 q 210 385 210 494 l 210 0 l 101 0 l 101 704 l 210 704 z "},"n":{"ha":750,"x_min":101,"x_max":657,"o":"m 210 704 l 210 582 q 432 714 272 714 q 596 651 535 714 q 657 485 657 589 l 657 0 l 547 0 l 547 456 q 508 574 547 533 q 397 615 468 615 q 267 554 325 615 q 210 385 210 493 l 210 0 l 101 0 l 101 704 l 210 704 z "},"o":{"ha":781,"x_min":60,"x_max":721,"o":"m 607 351 q 607 408 607 351 q 553 541 607 465 q 393 617 499 617 q 231 539 288 617 q 174 350 174 461 q 232 162 174 239 q 392 85 290 85 q 550 160 493 85 q 607 351 607 236 m 721 351 q 721 272 721 351 q 632 90 721 193 q 390 -12 543 -12 q 148 90 236 -12 q 60 348 60 192 q 151 609 60 504 q 394 714 242 714 q 634 611 547 714 q 721 351 721 508 z "},"p":{"ha":788,"x_min":101,"x_max":728,"o":"m 210 704 l 210 597 q 426 715 283 715 q 648 613 568 715 q 728 353 728 511 q 644 92 728 196 q 423 -11 560 -11 q 210 107 286 -11 l 210 -274 l 101 -274 l 101 704 l 210 704 m 210 354 q 210 285 210 354 q 272 153 210 217 q 417 89 335 89 q 557 159 500 89 q 614 351 614 229 q 558 544 614 474 q 418 615 503 615 q 272 553 333 615 q 210 354 210 492 z "},"q":{"ha":788,"x_min":60,"x_max":686,"o":"m 576 704 l 686 704 l 686 -274 l 576 -274 l 576 106 q 364 -11 500 -11 q 144 92 228 -11 q 60 353 60 196 q 140 613 60 511 q 361 715 221 715 q 576 600 501 715 l 576 704 m 174 351 q 174 290 174 351 q 231 159 174 229 q 370 89 288 89 q 515 152 453 89 q 576 353 576 215 q 515 553 576 492 q 369 615 454 615 q 229 544 285 615 q 174 351 174 474 z "},"r":{"ha":453,"x_min":100,"x_max":440,"o":"m 210 704 l 210 581 q 401 711 265 711 q 440 708 426 711 l 440 600 q 381 610 411 610 q 258 542 307 610 q 210 385 210 474 l 210 0 l 100 0 l 101 704 l 210 704 z "},"s":{"ha":572,"x_min":78,"x_max":525,"o":"m 310 615 q 222 590 254 615 q 189 531 189 564 q 199 480 189 499 q 236 443 208 461 q 347 390 269 422 q 475 311 425 357 q 525 181 525 265 q 462 44 525 97 q 280 -8 399 -8 q 82 35 161 -8 l 82 142 q 282 86 175 86 q 379 111 346 86 q 413 183 413 136 q 376 257 413 229 q 256 317 339 285 q 126 396 174 350 q 78 524 78 442 q 144 659 78 607 q 314 711 210 711 q 485 681 418 711 l 485 576 q 310 615 421 615 z "},"t":{"ha":513,"x_min":31,"x_max":454,"o":"m 253 615 l 253 203 q 358 90 253 90 q 454 122 413 90 l 454 18 q 351 -7 408 -7 q 143 206 143 -7 l 143 615 l 31 615 l 31 704 l 143 704 l 143 879 l 253 879 l 253 704 l 447 704 l 447 615 l 253 615 z "},"u":{"ha":750,"x_min":93,"x_max":649,"o":"m 539 704 l 649 704 l 649 0 l 539 0 l 539 122 q 318 -8 483 -8 q 153 53 214 -8 q 93 219 93 115 l 93 704 l 203 704 l 203 247 q 242 131 203 171 q 358 90 281 90 q 487 151 435 90 q 539 317 539 213 l 539 704 z "},"v":{"ha":701,"x_min":35,"x_max":667,"o":"m 281 0 l 35 704 l 149 704 l 349 86 q 453 407 361 146 l 553 704 l 667 704 l 415 0 l 281 0 z "},"w":{"ha":1100,"x_min":35,"x_max":1065,"o":"m 251 0 l 35 704 l 151 704 q 318 107 289 235 q 486 704 333 175 l 603 704 l 775 106 q 953 704 793 179 l 1065 704 l 843 0 l 708 0 l 642 231 l 544 582 q 386 0 528 514 l 251 0 z "},"x":{"ha":664,"x_min":35,"x_max":629,"o":"m 393 360 l 629 0 l 503 0 l 332 278 l 156 0 l 35 0 l 271 361 l 49 706 l 175 706 l 335 442 l 496 706 l 621 706 l 393 360 z "},"y":{"ha":685,"x_min":11,"x_max":661,"o":"m 108 -242 q 50 -235 72 -242 l 50 -136 q 97 -142 71 -142 q 296 18 238 -142 l 11 704 l 135 704 l 350 153 q 543 704 361 192 l 661 704 l 407 18 q 278 -183 353 -125 q 108 -242 204 -242 z "},"z":{"ha":629,"x_min":61,"x_max":568,"o":"m 549 704 l 549 624 l 188 99 l 568 99 l 568 0 l 61 0 l 61 86 l 418 607 l 75 607 l 75 704 l 549 704 z "},"{":{"ha":464,"x_min":67,"x_max":446,"o":"m 400 883 q 335 854 357 883 q 313 785 313 825 q 327 674 313 744 q 342 563 342 603 q 298 431 342 485 q 172 364 254 376 q 298 297 254 351 q 342 165 342 242 q 327 53 342 124 q 313 -58 313 -18 q 335 -128 313 -99 q 400 -157 357 -157 q 446 -144 422 -157 l 446 -251 q 381 -262 417 -262 q 252 -206 304 -262 q 200 -56 200 -150 q 215 47 200 -18 q 229 143 229 113 q 107 308 229 283 q 67 311 94 311 l 67 418 q 197 475 158 418 q 229 583 229 519 q 215 679 229 614 q 200 782 200 744 q 253 933 200 876 q 381 990 306 990 q 446 979 410 990 l 446 871 q 400 883 422 883 z "},"|":{"ha":317,"x_min":108,"x_max":208,"o":"m 108 -269 l 108 965 l 208 965 l 208 -269 l 108 -269 z "},"}":{"ha":464,"x_min":18,"x_max":397,"o":"m 83 990 q 211 933 158 990 q 264 782 264 876 q 249 679 264 744 q 235 583 235 614 q 267 475 235 519 q 397 418 306 418 l 397 311 q 264 251 304 311 q 235 143 235 207 q 249 47 235 113 q 264 -56 264 -18 q 212 -206 264 -150 q 83 -262 160 -262 q 18 -251 47 -262 l 18 -144 q 74 -157 42 -157 q 129 -128 107 -157 q 151 -58 151 -99 q 138 53 151 -18 q 124 165 124 124 q 167 297 124 242 q 292 364 211 351 q 167 431 211 376 q 124 563 124 485 q 138 674 124 604 q 151 785 151 744 q 129 854 151 825 q 74 883 107 883 q 18 871 42 883 l 18 979 q 83 990 54 990 z "},"~":{"ha":832,"x_min":50,"x_max":782,"o":"m 583 269 q 420 321 518 269 q 283 372 322 372 q 124 276 190 372 l 50 340 q 267 472 144 472 q 435 421 342 472 q 574 369 529 369 q 700 453 651 369 l 782 394 q 583 269 701 269 z "}," ":{"ha":339,"x_min":0,"x_max":0,"o":""},"¡":{"ha":349,"x_min":90,"x_max":256,"o":"m 121 -229 l 121 424 l 228 424 l 228 -229 l 121 -229 m 172 554 q 155 554 172 554 q 114 578 138 554 q 90 638 90 603 q 113 695 90 672 q 172 718 136 718 q 232 694 208 718 q 256 637 256 671 q 231 578 256 603 q 172 554 207 554 z "},"¢":{"ha":628,"x_min":64,"x_max":572,"o":"m 442 613 q 249 537 321 613 q 176 349 178 461 q 247 163 178 236 q 442 89 315 89 q 572 122 514 89 l 572 19 q 464 -10 526 -3 l 464 -154 l 368 -154 l 368 -7 q 144 111 225 11 q 64 348 64 211 q 145 587 64 485 q 368 708 226 689 l 368 854 l 464 854 l 464 711 q 572 681 522 704 l 572 578 q 442 613 507 613 z "},"£":{"ha":725,"x_min":85,"x_max":671,"o":"m 671 96 l 671 0 l 85 0 l 85 92 q 193 185 164 129 q 222 346 222 240 q 219 406 222 364 l 92 406 l 92 493 l 210 493 q 199 624 199 588 q 273 840 199 764 q 482 915 347 915 q 632 881 563 915 l 632 772 q 493 811 565 811 q 311 629 311 811 q 322 493 311 588 l 572 493 l 572 406 l 331 406 q 333 347 333 364 q 305 185 333 240 q 224 96 276 129 l 671 96 z "},"¤":{"ha":754,"x_min":47,"x_max":707,"o":"m 377 642 q 332 642 377 642 q 229 583 288 642 q 171 434 171 524 q 229 285 171 344 q 377 226 288 226 q 525 285 467 226 q 583 433 583 343 q 525 582 583 522 q 377 642 467 642 m 129 254 q 76 428 76 328 q 132 607 76 529 l 47 692 l 118 760 l 201 675 q 380 732 281 732 q 557 681 479 732 l 638 760 l 707 692 l 626 611 q 679 436 679 533 q 621 258 679 339 l 707 174 l 638 106 l 551 190 q 373 136 474 136 q 199 186 272 136 l 118 106 l 47 174 l 129 254 z "},"¥":{"ha":813,"x_min":46,"x_max":763,"o":"m 707 503 l 707 421 l 497 421 l 460 353 l 460 299 l 707 299 l 707 218 l 460 218 l 460 0 l 346 0 l 346 218 l 100 218 l 100 299 l 346 299 l 346 351 l 308 421 l 100 421 l 100 503 l 264 503 l 46 908 l 174 908 l 403 461 l 635 908 l 763 908 l 542 503 l 707 503 z "},"¦":{"ha":317,"x_min":108,"x_max":208,"o":"m 208 -247 l 108 -247 l 108 213 l 208 213 l 208 -247 m 208 510 l 108 510 l 108 969 l 208 969 l 208 510 z "},"§":{"ha":711,"x_min":71,"x_max":636,"o":"m 579 783 q 392 839 494 839 q 193 710 193 839 q 235 626 193 656 q 324 578 271 600 q 412 542 378 557 q 472 513 446 526 q 533 475 497 500 q 589 425 569 450 q 636 274 636 364 q 576 117 636 183 q 633 -31 633 57 q 549 -217 633 -151 q 325 -282 465 -282 q 82 -221 185 -282 l 82 -100 q 329 -178 185 -178 q 469 -140 419 -178 q 518 -39 518 -103 q 476 60 518 25 q 362 127 435 94 q 271 168 289 160 q 213 198 253 176 q 154 238 172 219 q 113 283 136 256 q 71 419 71 331 q 129 572 71 507 q 76 706 76 625 q 160 883 76 821 q 369 944 244 944 q 579 901 494 944 l 579 783 m 219 513 q 183 427 183 472 q 197 356 183 382 q 242 306 210 329 q 377 234 292 271 q 492 182 463 197 q 526 283 526 224 q 483 377 526 342 q 386 438 440 413 q 287 483 332 464 q 219 513 242 501 z "},"¨":{"ha":585,"x_min":81,"x_max":504,"o":"m 381 953 q 371 963 381 953 q 361 1004 361 974 q 381 1055 361 1035 q 432 1075 401 1075 q 483 1055 463 1075 q 504 1004 504 1035 q 483 953 504 974 q 432 932 463 932 q 381 953 401 932 m 101 953 q 91 963 101 953 q 81 1004 81 974 q 101 1055 81 1035 q 153 1075 122 1075 q 203 1055 183 1075 q 224 1004 224 1035 q 203 953 224 974 q 153 932 183 932 q 101 953 122 932 z "},"©":{"ha":1078,"x_min":60,"x_max":1018,"o":"m 408 466 q 408 427 408 466 q 456 339 408 389 q 573 289 503 289 q 688 324 643 289 l 688 233 q 571 204 643 204 q 381 280 451 204 q 310 464 310 356 q 381 650 311 572 q 572 728 451 728 q 688 700 638 728 l 688 610 q 571 642 639 642 q 455 592 503 642 q 408 466 407 543 m 267 742 q 210 685 267 742 q 153 467 153 628 q 267 192 153 306 q 540 79 381 79 q 814 192 700 79 q 928 467 928 306 q 814 742 928 628 q 540 856 700 856 q 267 742 381 856 m 539 -12 q 440 -12 539 -12 q 201 129 342 -12 q 60 467 60 271 q 201 806 60 664 q 539 947 342 947 q 877 806 736 947 q 1018 467 1018 664 q 877 129 1018 271 q 539 -12 736 -12 z "},"ª":{"ha":486,"x_min":3,"x_max":444,"o":"m 46 1104 q 228 1147 119 1147 q 444 919 444 1147 l 444 544 l 354 544 l 354 619 q 189 539 293 539 q 54 585 106 539 q 3 715 3 632 q 68 845 3 797 q 247 893 133 893 l 351 893 l 351 922 q 320 1029 351 993 q 206 1065 289 1065 q 46 1014 122 1065 l 46 1104 m 351 817 l 264 817 q 99 714 99 817 q 128 644 99 671 q 216 618 158 618 q 313 653 274 618 q 351 735 351 688 l 351 817 z "},"«":{"ha":667,"x_min":38,"x_max":625,"o":"m 625 576 l 422 351 l 625 126 l 504 126 l 296 351 l 504 576 l 625 576 m 367 576 l 164 351 l 367 126 l 246 126 l 38 351 l 246 576 l 367 576 z "},"¬":{"ha":763,"x_min":35,"x_max":711,"o":"m 711 222 l 610 222 l 610 475 l 35 475 l 35 574 l 711 574 l 711 222 z "},"­":{"ha":483,"x_min":79,"x_max":404,"o":"m 79 325 l 79 421 l 404 421 l 404 325 l 79 325 z "},"®":{"ha":624,"x_min":14,"x_max":610,"o":"m 14 796 q 14 860 14 796 q 98 1010 14 925 q 312 1094 182 1094 q 526 1010 442 1094 q 610 796 610 925 q 526 583 610 667 q 312 500 442 500 q 98 583 182 500 q 14 796 14 667 m 82 796 q 82 744 82 796 q 145 628 82 692 q 313 564 208 564 q 482 628 418 564 q 546 797 546 693 q 482 965 546 900 q 313 1029 418 1029 q 145 965 208 1029 q 82 796 82 900 m 221 954 l 306 954 q 419 860 419 954 q 369 776 419 800 l 444 657 l 372 657 l 308 765 l 282 765 l 282 657 l 221 657 l 221 954 m 282 904 l 282 815 l 317 815 q 357 860 357 815 q 313 904 357 904 l 282 904 z "},"¯":{"ha":585,"x_min":96,"x_max":488,"o":"m 488 963 l 96 963 l 96 1040 l 488 1040 l 488 963 z "},"°":{"ha":493,"x_min":42,"x_max":451,"o":"m 162 823 q 145 805 162 823 q 129 738 129 788 q 164 653 129 688 q 249 618 199 618 q 331 653 299 618 q 363 738 363 688 q 328 823 363 788 q 244 858 294 858 q 162 823 194 858 m 244 536 q 200 536 244 536 q 99 592 156 536 q 42 735 42 647 q 101 881 42 824 q 248 939 160 939 q 394 883 336 939 q 451 740 451 828 q 392 594 451 653 q 244 536 332 536 z "},"±":{"ha":768,"x_min":79,"x_max":690,"o":"m 431 556 l 690 556 l 690 460 l 431 460 l 431 225 l 328 225 l 328 460 l 79 460 l 79 556 l 328 556 l 328 790 l 431 790 l 431 556 m 79 42 l 79 139 l 690 139 l 690 42 l 79 42 z "},"²":{"ha":507,"x_min":65,"x_max":453,"o":"m 65 544 l 65 613 q 340 958 340 819 q 310 1039 340 1013 q 233 1065 281 1065 q 85 1006 158 1065 l 85 1101 q 239 1147 160 1147 q 375 1099 318 1147 q 432 967 432 1051 q 365 793 432 883 q 189 621 299 703 l 453 621 l 453 544 l 65 544 z "},"³":{"ha":451,"x_min":49,"x_max":403,"o":"m 143 885 l 176 885 q 260 910 226 885 q 294 979 294 935 q 193 1067 294 1067 q 65 1024 132 1067 l 65 1111 q 207 1147 126 1147 q 337 1101 288 1147 q 386 993 386 1054 q 357 896 386 932 q 276 849 328 860 q 365 804 328 844 q 403 698 403 764 q 351 585 403 632 q 208 539 300 539 q 49 574 115 539 l 49 657 q 186 618 118 618 q 313 710 313 618 q 277 782 313 756 q 176 808 242 808 l 143 808 l 143 885 z "},"´":{"ha":585,"x_min":160,"x_max":428,"o":"m 160 892 l 297 1108 l 428 1108 l 256 892 l 160 892 z "},"µ":{"ha":758,"x_min":101,"x_max":657,"o":"m 547 704 l 657 704 l 657 0 l 547 0 l 547 107 q 363 -8 497 -8 q 210 44 271 -8 l 210 -249 l 101 -249 l 101 704 l 210 704 l 210 247 q 260 132 210 174 q 384 90 311 90 q 502 151 457 90 q 547 317 547 211 l 547 704 z "},"¶":{"ha":757,"x_min":36,"x_max":656,"o":"m 557 -206 l 557 936 l 656 936 l 656 -206 l 557 -206 m 397 936 l 397 -206 l 299 -206 l 299 474 q 105 539 174 474 q 36 700 36 604 q 106 866 36 796 q 304 936 176 936 l 397 936 z "},"·":{"ha":322,"x_min":79,"x_max":243,"o":"m 103 385 q 91 397 103 385 q 79 443 79 408 q 103 501 79 478 q 161 525 126 525 q 219 501 196 525 q 243 443 243 478 q 219 385 243 408 q 161 361 196 361 q 103 385 126 361 z "},"¸":{"ha":585,"x_min":188,"x_max":396,"o":"m 371 -71 q 396 -175 396 -106 q 342 -296 396 -244 q 188 -350 289 -347 l 188 -269 q 304 -171 304 -261 q 272 -71 304 -124 l 371 -71 z "},"¹":{"ha":347,"x_min":14,"x_max":249,"o":"m 249 1142 l 249 544 l 163 544 l 163 1040 l 14 958 l 14 1049 l 176 1142 l 249 1142 z "},"º":{"ha":522,"x_min":-8,"x_max":529,"o":"m 433 842 q 433 891 433 842 q 392 1004 433 940 q 264 1068 350 1068 q 133 1002 178 1068 q 88 842 88 936 q 134 682 88 747 q 263 617 181 617 q 389 681 344 617 q 433 842 433 744 m 529 842 q 529 775 529 842 q 458 622 529 708 q 260 536 386 536 q 63 622 135 536 q -8 840 -8 708 q 65 1061 -8 972 q 264 1150 139 1150 q 459 1063 389 1150 q 529 842 529 976 z "},"»":{"ha":669,"x_min":40,"x_max":629,"o":"m 419 576 l 629 351 l 419 126 l 299 126 l 503 351 l 299 576 l 419 576 m 161 576 l 371 351 l 161 126 l 40 126 l 244 351 l 40 576 l 161 576 z "},"¿":{"ha":628,"x_min":63,"x_max":575,"o":"m 449 695 q 461 684 449 695 q 472 638 472 672 q 449 578 472 603 q 392 554 426 554 q 332 578 357 554 q 307 638 307 603 q 331 695 307 672 q 391 718 356 718 q 449 695 426 718 m 575 -183 q 353 -240 485 -240 q 142 -173 221 -240 q 63 13 63 -106 q 144 197 63 132 q 335 272 226 263 l 336 424 l 442 424 l 443 193 q 246 149 315 193 q 176 26 176 106 q 222 -97 176 -53 q 368 -140 268 -140 q 575 -72 468 -140 l 575 -183 z "},"À":{"ha":900,"x_min":49,"x_max":851,"o":"m 731 0 l 649 246 l 253 246 l 169 0 l 49 0 l 375 936 l 531 936 l 851 0 l 731 0 m 285 342 l 617 342 l 453 846 q 285 342 433 775 m 492 1010 l 396 1010 l 224 1226 l 356 1226 l 492 1010 z "},"Á":{"ha":900,"x_min":49,"x_max":851,"o":"m 731 0 l 649 246 l 253 246 l 169 0 l 49 0 l 375 936 l 531 936 l 851 0 l 731 0 m 285 342 l 617 342 l 453 846 q 285 342 433 775 m 683 1226 l 511 1010 l 415 1010 l 553 1226 l 683 1226 z "},"Â":{"ha":900,"x_min":49,"x_max":851,"o":"m 731 0 l 649 246 l 253 246 l 169 0 l 49 0 l 375 936 l 531 936 l 851 0 l 731 0 m 285 342 l 617 342 l 453 846 q 285 342 433 775 m 454 1156 l 336 1010 l 225 1010 l 401 1226 l 507 1226 l 683 1010 l 572 1010 l 454 1156 z "},"Ã":{"ha":900,"x_min":49,"x_max":851,"o":"m 731 0 l 649 246 l 253 246 l 169 0 l 49 0 l 375 936 l 531 936 l 851 0 l 731 0 m 285 342 l 617 342 l 453 846 q 285 342 433 775 m 550 1051 q 453 1082 513 1051 q 372 1113 394 1113 q 278 1046 315 1113 l 218 1097 q 276 1167 238 1139 q 357 1196 314 1196 q 460 1165 400 1196 q 544 1135 519 1135 q 619 1194 592 1135 l 688 1147 q 550 1051 643 1051 z "},"Ä":{"ha":900,"x_min":49,"x_max":851,"o":"m 731 0 l 649 246 l 253 246 l 169 0 l 49 0 l 375 936 l 531 936 l 851 0 l 731 0 m 285 342 l 617 342 l 453 846 q 285 342 433 775 m 366 1068 q 356 1058 366 1068 q 315 1047 346 1047 q 264 1068 285 1047 q 243 1119 243 1089 q 264 1170 243 1150 q 315 1190 285 1190 q 366 1170 346 1190 q 386 1119 386 1150 q 366 1068 386 1089 m 646 1068 q 635 1058 646 1068 q 594 1047 625 1047 q 544 1068 564 1047 q 524 1119 524 1089 q 544 1170 524 1150 q 594 1190 564 1190 q 646 1170 625 1190 q 667 1119 667 1150 q 646 1068 667 1089 z "},"Å":{"ha":900,"x_min":49,"x_max":851,"o":"m 731 0 l 649 246 l 253 246 l 169 0 l 49 0 l 375 936 l 531 936 l 851 0 l 731 0 m 285 342 l 617 342 l 453 846 q 285 342 433 775 m 558 1039 q 537 1017 558 1039 q 454 996 515 996 q 350 1039 393 996 q 307 1143 307 1082 q 350 1248 307 1204 q 454 1292 393 1292 q 558 1248 515 1292 q 601 1143 601 1204 q 558 1039 601 1082 m 529 1144 q 529 1160 529 1144 q 508 1197 529 1175 q 455 1219 486 1219 q 402 1198 424 1219 q 381 1145 381 1176 q 402 1092 381 1114 q 454 1069 424 1069 q 507 1092 485 1069 q 529 1144 529 1114 z "},"Æ":{"ha":1221,"x_min":32,"x_max":1154,"o":"m 744 99 l 1154 99 l 1154 0 l 633 0 l 633 246 l 294 246 l 153 0 l 32 0 l 564 936 l 1146 936 l 1146 838 l 744 838 l 744 517 l 1100 517 l 1100 418 l 744 418 l 744 99 m 633 342 l 633 847 q 350 342 543 676 l 633 342 z "},"Ç":{"ha":836,"x_min":67,"x_max":778,"o":"m 538 843 q 285 740 386 843 q 185 469 185 638 q 285 197 185 300 q 550 94 385 94 q 778 165 683 94 l 778 47 q 542 -11 692 -11 q 199 119 331 -11 q 67 466 67 249 q 201 816 67 683 q 538 949 335 949 q 775 899 683 949 l 775 783 q 665 829 714 815 q 538 843 617 843 m 561 -71 q 586 -175 586 -106 q 533 -296 586 -244 q 378 -350 479 -347 l 378 -269 q 494 -171 494 -261 q 463 -71 494 -124 l 561 -71 z "},"È":{"ha":696,"x_min":107,"x_max":629,"o":"m 219 99 l 629 99 l 629 0 l 107 0 l 107 936 l 622 936 l 622 838 l 219 838 l 219 517 l 575 517 l 575 418 l 219 418 l 219 99 m 444 1008 l 349 1008 l 176 1225 l 308 1225 l 444 1008 z "},"É":{"ha":696,"x_min":107,"x_max":629,"o":"m 219 99 l 629 99 l 629 0 l 107 0 l 107 936 l 622 936 l 622 838 l 219 838 l 219 517 l 575 517 l 575 418 l 219 418 l 219 99 m 607 1226 l 435 1010 l 339 1010 l 476 1226 l 607 1226 z "},"Ê":{"ha":696,"x_min":107,"x_max":629,"o":"m 219 99 l 629 99 l 629 0 l 107 0 l 107 936 l 622 936 l 622 838 l 219 838 l 219 517 l 575 517 l 575 418 l 219 418 l 219 99 m 379 1156 l 261 1010 l 150 1010 l 326 1226 l 432 1226 l 608 1010 l 497 1010 l 379 1156 z "},"Ë":{"ha":696,"x_min":107,"x_max":629,"o":"m 219 99 l 629 99 l 629 0 l 107 0 l 107 936 l 622 936 l 622 838 l 219 838 l 219 517 l 575 517 l 575 418 l 219 418 l 219 99 m 284 1067 q 274 1056 284 1067 q 233 1046 264 1046 q 182 1067 203 1046 q 161 1118 161 1088 q 182 1169 161 1149 q 233 1189 203 1189 q 284 1169 264 1189 q 304 1118 304 1149 q 284 1067 304 1088 m 564 1067 q 553 1056 564 1067 q 513 1046 543 1046 q 462 1067 482 1046 q 442 1118 442 1088 q 462 1169 442 1149 q 513 1189 482 1189 q 564 1169 543 1189 q 585 1118 585 1149 q 564 1067 585 1088 z "},"Ì":{"ha":343,"x_min":-56,"x_max":228,"o":"m 76 1226 l 213 1010 l 117 1010 l -56 1226 l 76 1226 m 115 0 l 115 936 l 228 936 l 228 0 l 115 0 z "},"Í":{"ha":343,"x_min":115,"x_max":397,"o":"m 129 1010 l 267 1226 l 397 1226 l 225 1010 l 129 1010 m 115 0 l 115 936 l 228 936 l 228 0 l 115 0 z "},"Î":{"ha":343,"x_min":-57,"x_max":401,"o":"m 115 0 l 115 936 l 228 936 l 228 0 l 115 0 m 119 1226 l 225 1226 l 401 1010 l 290 1010 l 172 1156 l 54 1010 l -57 1010 l 119 1226 z "},"Ï":{"ha":343,"x_min":-37,"x_max":386,"o":"m 263 1068 q 253 1078 263 1068 q 243 1119 243 1089 q 263 1170 243 1150 q 314 1190 283 1190 q 365 1170 344 1190 q 386 1119 386 1150 q 365 1068 386 1089 q 314 1047 344 1047 q 263 1068 283 1047 m -17 1068 q -27 1078 -17 1068 q -37 1119 -37 1089 q -17 1170 -37 1150 q 35 1190 4 1190 q 85 1170 65 1190 q 106 1119 106 1150 q 85 1068 106 1089 q 35 1047 65 1047 q -17 1068 4 1047 m 115 0 l 115 936 l 228 936 l 228 0 l 115 0 z "},"Ð":{"ha":1014,"x_min":85,"x_max":953,"o":"m 203 936 l 481 936 q 821 808 689 936 q 953 476 953 679 q 830 136 953 272 q 486 0 707 0 l 203 0 l 203 422 l 85 422 l 85 517 l 203 517 l 203 936 m 317 99 l 486 99 q 644 129 575 99 q 753 214 713 160 q 836 474 836 321 q 738 732 836 628 q 479 836 639 836 l 317 836 l 317 517 l 560 517 l 560 422 l 317 422 l 317 99 z "},"Ñ":{"ha":935,"x_min":107,"x_max":828,"o":"m 576 1051 q 480 1082 539 1051 q 399 1113 421 1113 q 304 1046 342 1113 l 244 1097 q 302 1167 264 1139 q 383 1196 340 1196 q 486 1165 426 1196 q 571 1135 546 1135 q 646 1194 618 1135 l 714 1147 q 576 1051 669 1051 m 107 0 l 107 936 l 249 936 l 483 542 l 721 136 q 715 540 715 271 l 715 936 l 828 936 l 828 0 l 686 0 q 213 801 297 649 q 219 394 219 657 l 219 0 l 107 0 z "},"Ò":{"ha":972,"x_min":67,"x_max":907,"o":"m 410 1226 l 546 1010 l 450 1010 l 278 1226 l 410 1226 m 487 849 q 416 849 487 849 q 265 748 344 849 q 185 473 185 647 q 267 197 185 299 q 490 96 350 96 q 709 196 631 96 q 788 472 788 296 q 708 749 788 649 q 487 849 629 849 m 489 -11 q 393 -11 489 -11 q 182 121 297 -11 q 67 473 67 253 q 180 824 67 693 q 488 954 293 954 q 795 824 683 954 q 907 473 907 694 q 794 120 907 251 q 489 -11 681 -11 z "},"Ó":{"ha":972,"x_min":67,"x_max":907,"o":"m 487 849 q 416 849 487 849 q 265 748 344 849 q 185 473 185 647 q 267 197 185 299 q 490 96 350 96 q 709 196 631 96 q 788 472 788 296 q 708 749 788 649 q 487 849 629 849 m 489 -11 q 393 -11 489 -11 q 182 121 297 -11 q 67 473 67 253 q 180 824 67 693 q 488 954 293 954 q 795 824 683 954 q 907 473 907 694 q 794 120 907 251 q 489 -11 681 -11 m 450 1010 l 588 1226 l 718 1226 l 546 1010 l 450 1010 z "},"Ô":{"ha":972,"x_min":67,"x_max":907,"o":"m 443 1226 l 549 1226 l 725 1010 l 614 1010 l 496 1156 l 378 1010 l 267 1010 l 443 1226 m 489 -11 q 393 -11 489 -11 q 182 121 297 -11 q 67 473 67 253 q 180 824 67 693 q 488 954 293 954 q 795 824 683 954 q 907 473 907 694 q 794 120 907 251 q 489 -11 681 -11 m 487 849 q 416 849 487 849 q 265 748 344 849 q 185 473 185 647 q 267 197 185 299 q 490 96 350 96 q 709 196 631 96 q 788 472 788 296 q 708 749 788 649 q 487 849 629 849 z "},"Õ":{"ha":972,"x_min":67,"x_max":907,"o":"m 586 1053 q 490 1083 549 1053 q 408 1114 431 1114 q 314 1047 351 1114 l 254 1099 q 312 1169 274 1140 q 393 1197 350 1197 q 496 1167 436 1197 q 581 1136 556 1136 q 656 1196 628 1136 l 724 1149 q 586 1053 679 1053 m 487 849 q 416 849 487 849 q 265 748 344 849 q 185 473 185 647 q 267 197 185 299 q 490 96 350 96 q 709 196 631 96 q 788 472 788 296 q 708 749 788 649 q 487 849 629 849 m 489 -11 q 393 -11 489 -11 q 182 121 297 -11 q 67 473 67 253 q 180 824 67 693 q 488 954 293 954 q 795 824 683 954 q 907 473 907 694 q 794 120 907 251 q 489 -11 681 -11 z "},"Ö":{"ha":972,"x_min":67,"x_max":907,"o":"m 487 849 q 416 849 487 849 q 265 748 344 849 q 185 473 185 647 q 267 197 185 299 q 490 96 350 96 q 709 196 631 96 q 788 472 788 296 q 708 749 788 649 q 487 849 629 849 m 489 -11 q 393 -11 489 -11 q 182 121 297 -11 q 67 473 67 253 q 180 824 67 693 q 488 954 293 954 q 795 824 683 954 q 907 473 907 694 q 794 120 907 251 q 489 -11 681 -11 m 581 1068 q 571 1078 581 1068 q 561 1119 561 1089 q 581 1170 561 1150 q 632 1190 601 1190 q 683 1170 663 1190 q 704 1119 704 1150 q 683 1068 704 1089 q 632 1047 663 1047 q 581 1068 601 1047 m 301 1068 q 291 1078 301 1068 q 281 1119 281 1089 q 301 1170 281 1150 q 353 1190 322 1190 q 403 1170 383 1190 q 424 1119 424 1150 q 403 1068 424 1089 q 353 1047 383 1047 q 301 1068 322 1047 z "},"×":{"ha":682,"x_min":82,"x_max":599,"o":"m 599 660 l 411 474 l 594 292 l 524 221 l 340 403 l 158 221 l 88 293 l 269 474 l 82 660 l 153 729 l 340 544 l 528 731 l 599 660 z "},"Ø":{"ha":938,"x_min":57,"x_max":899,"o":"m 794 814 q 897 468 897 685 q 784 120 897 251 q 479 -11 671 -11 q 233 64 336 -11 l 176 -12 l 57 -12 l 164 131 q 57 478 57 264 q 170 824 57 693 q 476 954 283 954 q 722 882 622 954 l 776 954 l 899 954 l 794 814 m 476 850 q 254 749 335 850 q 174 487 174 649 q 235 226 174 325 l 657 793 q 476 850 585 850 m 479 93 q 701 194 622 93 q 781 459 781 294 q 722 719 781 624 l 300 153 q 479 93 375 93 z "},"Ù":{"ha":896,"x_min":106,"x_max":790,"o":"m 364 1226 l 500 1010 l 404 1010 l 232 1226 l 364 1226 m 678 353 l 678 936 l 790 936 l 790 356 q 699 82 790 175 q 447 -11 608 -11 q 196 80 286 -11 q 106 344 106 171 l 106 936 l 218 936 l 218 346 q 280 156 218 217 q 446 94 342 94 q 678 353 678 94 z "},"Ú":{"ha":896,"x_min":106,"x_max":790,"o":"m 678 353 l 678 936 l 790 936 l 790 356 q 699 82 790 175 q 447 -11 608 -11 q 196 80 286 -11 q 106 344 106 171 l 106 936 l 218 936 l 218 346 q 280 156 218 217 q 446 94 342 94 q 678 353 678 94 m 417 1010 l 554 1226 l 685 1226 l 513 1010 l 417 1010 z "},"Û":{"ha":896,"x_min":106,"x_max":790,"o":"m 397 1226 l 503 1226 l 679 1010 l 568 1010 l 450 1156 l 332 1010 l 221 1010 l 397 1226 m 678 353 l 678 936 l 790 936 l 790 356 q 699 82 790 175 q 447 -11 608 -11 q 196 80 286 -11 q 106 344 106 171 l 106 936 l 218 936 l 218 346 q 280 156 218 217 q 446 94 342 94 q 678 353 678 94 z "},"Ü":{"ha":896,"x_min":106,"x_max":790,"o":"m 678 353 l 678 936 l 790 936 l 790 356 q 699 82 790 175 q 447 -11 608 -11 q 196 80 286 -11 q 106 344 106 171 l 106 936 l 218 936 l 218 346 q 280 156 218 217 q 446 94 342 94 q 678 353 678 94 m 538 1068 q 528 1078 538 1068 q 518 1119 518 1089 q 538 1170 518 1150 q 589 1190 558 1190 q 640 1170 619 1190 q 661 1119 661 1150 q 640 1068 661 1089 q 589 1047 619 1047 q 538 1068 558 1047 m 258 1068 q 248 1078 258 1068 q 238 1119 238 1089 q 258 1170 238 1150 q 310 1190 279 1190 q 360 1170 340 1190 q 381 1119 381 1150 q 360 1068 381 1089 q 310 1047 340 1047 q 258 1068 279 1047 z "},"Ý":{"ha":824,"x_min":36,"x_max":788,"o":"m 467 0 l 354 0 l 354 347 l 36 936 l 167 936 q 410 450 385 514 q 657 936 417 471 l 788 936 l 467 349 l 467 0 m 656 1225 l 483 1008 l 388 1008 l 525 1225 l 656 1225 z "},"Þ":{"ha":744,"x_min":107,"x_max":692,"o":"m 219 764 l 342 764 q 601 681 511 764 q 692 467 692 599 q 602 253 692 335 q 353 172 513 172 l 219 172 l 219 0 l 107 0 l 107 936 l 219 936 l 219 764 m 219 268 l 357 268 q 522 322 467 268 q 578 465 578 375 q 521 612 578 556 q 346 668 464 668 l 219 668 l 219 268 z "},"ß":{"ha":751,"x_min":106,"x_max":711,"o":"m 358 114 q 474 86 413 86 q 569 113 535 86 q 603 180 603 140 q 581 250 603 219 q 529 305 560 281 q 468 354 499 329 q 394 489 394 414 q 412 561 394 526 q 451 617 429 596 q 490 672 472 639 q 507 749 507 706 q 469 825 507 793 q 371 857 432 857 q 215 692 215 857 l 215 0 l 106 0 l 106 689 q 178 890 106 822 q 367 958 251 958 q 551 896 483 958 q 618 744 618 833 q 591 637 618 683 q 538 558 564 590 q 511 499 511 525 q 532 448 511 472 q 582 401 553 424 q 640 351 611 378 q 690 282 669 324 q 711 190 711 240 q 649 47 711 103 q 478 -10 588 -10 q 358 8 401 -10 l 358 114 z "},"à":{"ha":683,"x_min":65,"x_max":590,"o":"m 325 715 q 590 446 590 715 l 590 0 l 482 0 l 482 83 q 285 -7 428 -7 q 126 51 186 -7 q 65 205 65 110 q 142 356 65 300 q 353 413 219 413 l 481 413 l 481 449 q 443 574 481 532 q 305 617 406 617 q 117 557 204 617 l 117 667 q 325 715 196 715 m 481 325 l 358 325 q 225 290 269 325 q 181 203 181 256 q 215 117 181 150 q 321 85 250 85 q 436 127 392 85 q 481 235 481 169 l 481 325 m 404 778 l 308 778 l 136 994 l 268 994 l 404 778 z "},"á":{"ha":683,"x_min":65,"x_max":590,"o":"m 325 715 q 590 446 590 715 l 590 0 l 482 0 l 482 83 q 285 -7 428 -7 q 126 51 186 -7 q 65 205 65 110 q 142 356 65 300 q 353 413 219 413 l 481 413 l 481 449 q 443 574 481 532 q 305 617 406 617 q 117 557 204 617 l 117 667 q 325 715 196 715 m 481 325 l 358 325 q 225 290 269 325 q 181 203 181 256 q 215 117 181 150 q 321 85 250 85 q 436 127 392 85 q 481 235 481 169 l 481 325 m 578 994 l 406 778 l 310 778 l 447 994 l 578 994 z "},"â":{"ha":683,"x_min":65,"x_max":590,"o":"m 325 715 q 590 446 590 715 l 590 0 l 482 0 l 482 83 q 285 -7 428 -7 q 126 51 186 -7 q 65 205 65 110 q 142 356 65 300 q 353 413 219 413 l 481 413 l 481 449 q 443 574 481 532 q 305 617 406 617 q 117 557 204 617 l 117 667 q 325 715 196 715 m 481 325 l 358 325 q 225 290 269 325 q 181 203 181 256 q 215 117 181 150 q 321 85 250 85 q 436 127 392 85 q 481 235 481 169 l 481 325 m 353 922 l 235 776 l 124 776 l 300 993 l 406 993 l 582 776 l 471 776 l 353 922 z "},"ã":{"ha":683,"x_min":65,"x_max":590,"o":"m 325 715 q 590 446 590 715 l 590 0 l 482 0 l 482 83 q 285 -7 428 -7 q 126 51 186 -7 q 65 205 65 110 q 142 356 65 300 q 353 413 219 413 l 481 413 l 481 449 q 443 574 481 532 q 305 617 406 617 q 117 557 204 617 l 117 667 q 325 715 196 715 m 481 325 l 358 325 q 225 290 269 325 q 181 203 181 256 q 215 117 181 150 q 321 85 250 85 q 436 127 392 85 q 481 235 481 169 l 481 325 m 444 819 q 348 850 407 819 q 267 881 289 881 q 172 814 210 881 l 113 865 q 170 935 132 907 q 251 964 208 964 q 354 933 294 964 q 439 903 414 903 q 514 963 486 903 l 582 915 q 444 819 538 819 z "},"ä":{"ha":683,"x_min":65,"x_max":590,"o":"m 325 715 q 590 446 590 715 l 590 0 l 482 0 l 482 83 q 285 -7 428 -7 q 126 51 186 -7 q 65 205 65 110 q 142 356 65 300 q 353 413 219 413 l 481 413 l 481 449 q 443 574 481 532 q 305 617 406 617 q 117 557 204 617 l 117 667 q 325 715 196 715 m 481 325 l 358 325 q 225 290 269 325 q 181 203 181 256 q 215 117 181 150 q 321 85 250 85 q 436 127 392 85 q 481 235 481 169 l 481 325 m 262 832 q 252 822 262 832 q 211 811 242 811 q 160 832 181 811 q 139 883 139 853 q 160 934 139 914 q 211 954 181 954 q 262 934 242 954 q 282 883 282 914 q 262 832 282 853 m 542 832 q 531 822 542 832 q 490 811 521 811 q 440 832 460 811 q 419 883 419 853 q 440 934 419 914 q 490 954 460 954 q 542 934 521 954 q 563 883 563 914 q 542 832 563 853 z "},"å":{"ha":683,"x_min":65,"x_max":590,"o":"m 325 715 q 590 446 590 715 l 590 0 l 482 0 l 482 83 q 285 -7 428 -7 q 126 51 186 -7 q 65 205 65 110 q 142 356 65 300 q 353 413 219 413 l 481 413 l 481 449 q 443 574 481 532 q 305 617 406 617 q 117 557 204 617 l 117 667 q 325 715 196 715 m 481 325 l 358 325 q 225 290 269 325 q 181 203 181 256 q 215 117 181 150 q 321 85 250 85 q 436 127 392 85 q 481 235 481 169 l 481 325 m 458 807 q 437 785 458 807 q 354 764 415 764 q 250 807 293 764 q 207 911 207 850 q 250 1016 207 972 q 354 1060 293 1060 q 458 1016 415 1060 q 501 911 501 972 q 458 807 501 850 m 429 913 q 429 929 429 913 q 408 966 429 944 q 355 988 386 988 q 302 966 324 988 q 281 913 281 944 q 302 860 281 882 q 354 838 324 838 q 407 860 385 838 q 429 913 429 882 z "},"æ":{"ha":1138,"x_min":72,"x_max":1082,"o":"m 597 306 q 678 146 610 201 q 853 90 746 90 q 1032 139 961 90 l 1032 36 q 850 -7 953 -7 q 669 32 747 -7 q 550 138 592 71 q 458 33 524 74 q 295 -7 393 -7 q 135 48 197 -7 q 72 201 72 103 q 150 357 72 300 q 363 414 228 414 l 488 414 l 488 449 q 450 574 488 532 q 313 617 413 617 q 124 558 213 617 l 124 665 q 328 715 204 715 q 557 590 507 715 q 800 713 639 713 q 1009 627 936 713 q 1082 382 1082 542 q 1075 306 1082 343 l 597 306 m 974 397 l 974 425 q 924 567 972 517 q 799 617 876 617 q 665 561 721 617 q 596 397 608 506 l 974 397 m 488 246 l 488 322 l 383 322 q 186 201 186 322 q 222 119 186 150 q 325 89 257 89 q 440 132 393 89 q 488 246 488 175 z "},"ç":{"ha":654,"x_min":60,"x_max":586,"o":"m 446 -71 q 471 -175 471 -106 q 417 -296 471 -244 q 263 -350 364 -347 l 263 -269 q 379 -171 379 -261 q 347 -71 379 -124 l 446 -71 m 436 83 q 586 129 517 83 l 586 25 q 422 -15 519 -15 q 158 91 256 -15 q 60 349 60 197 q 158 608 60 500 q 425 717 256 717 q 586 678 515 717 l 586 574 q 436 617 522 617 q 245 540 317 617 q 174 349 174 463 q 243 159 175 235 q 436 83 311 83 z "},"è":{"ha":725,"x_min":60,"x_max":660,"o":"m 415 -7 q 158 91 256 -7 q 60 353 60 189 q 147 615 60 518 q 369 713 235 713 q 582 628 504 713 q 660 388 660 543 q 653 306 660 343 l 172 306 q 251 146 185 201 q 431 90 318 90 q 615 139 544 90 l 615 36 q 415 -7 533 -7 m 550 397 l 550 425 q 503 565 550 513 q 374 617 456 617 q 238 560 293 617 q 172 397 182 503 l 550 397 m 442 778 l 346 778 l 174 994 l 306 994 l 442 778 z "},"é":{"ha":725,"x_min":60,"x_max":660,"o":"m 415 -7 q 158 91 256 -7 q 60 353 60 189 q 147 615 60 518 q 369 713 235 713 q 582 628 504 713 q 660 388 660 543 q 653 306 660 343 l 172 306 q 251 146 185 201 q 431 90 318 90 q 615 139 544 90 l 615 36 q 415 -7 533 -7 m 550 397 l 550 425 q 503 565 550 513 q 374 617 456 617 q 238 560 293 617 q 172 397 182 503 l 550 397 m 617 994 l 444 778 l 349 778 l 486 994 l 617 994 z "},"ê":{"ha":725,"x_min":60,"x_max":660,"o":"m 415 -7 q 158 91 256 -7 q 60 353 60 189 q 147 615 60 518 q 369 713 235 713 q 582 628 504 713 q 660 388 660 543 q 653 306 660 343 l 172 306 q 251 146 185 201 q 431 90 318 90 q 615 139 544 90 l 615 36 q 415 -7 533 -7 m 550 397 l 550 425 q 503 565 550 513 q 374 617 456 617 q 238 560 293 617 q 172 397 182 503 l 550 397 m 390 924 l 272 778 l 161 778 l 338 994 l 443 994 l 619 778 l 508 778 l 390 924 z "},"ë":{"ha":725,"x_min":60,"x_max":660,"o":"m 415 -7 q 158 91 256 -7 q 60 353 60 189 q 147 615 60 518 q 369 713 235 713 q 582 628 504 713 q 660 388 660 543 q 653 306 660 343 l 172 306 q 251 146 185 201 q 431 90 318 90 q 615 139 544 90 l 615 36 q 415 -7 533 -7 m 550 397 l 550 425 q 503 565 550 513 q 374 617 456 617 q 238 560 293 617 q 172 397 182 503 l 550 397 m 302 836 q 292 826 302 836 q 251 815 282 815 q 200 836 221 815 q 179 888 179 857 q 200 938 179 918 q 251 958 221 958 q 302 938 282 958 q 322 888 322 918 q 302 836 322 857 m 582 836 q 572 826 582 836 q 531 815 561 815 q 480 836 500 815 q 460 888 460 857 q 480 938 460 918 q 531 958 500 958 q 582 938 561 958 q 603 888 603 918 q 582 836 603 857 z "},"ì":{"ha":324,"x_min":-67,"x_max":217,"o":"m 65 993 l 201 776 l 106 776 l -67 993 l 65 993 m 107 0 l 107 704 l 217 704 l 217 0 l 107 0 z "},"í":{"ha":324,"x_min":107,"x_max":390,"o":"m 122 778 l 260 994 l 390 994 l 218 778 l 122 778 m 107 0 l 107 704 l 217 704 l 217 0 l 107 0 z "},"î":{"ha":324,"x_min":-67,"x_max":392,"o":"m 107 0 l 107 704 l 217 704 l 217 0 l 107 0 m 110 994 l 215 994 l 392 778 l 281 778 l 163 924 l 44 778 l -67 778 l 110 994 z "},"ï":{"ha":324,"x_min":-50,"x_max":374,"o":"m 251 838 q 241 848 251 838 q 231 889 231 858 q 251 940 231 919 q 301 960 271 960 q 353 940 332 960 q 374 889 374 919 q 353 838 374 858 q 301 817 332 817 q 251 838 271 817 m -29 838 q -40 848 -29 838 q -50 889 -50 858 q -29 940 -50 919 q 22 960 -8 960 q 73 940 53 960 q 93 889 93 919 q 73 838 93 858 q 22 817 53 817 q -29 838 -8 817 m 107 0 l 107 704 l 217 704 l 217 0 l 107 0 z "},"ð":{"ha":718,"x_min":53,"x_max":654,"o":"m 654 374 q 572 86 654 185 q 353 -12 490 -12 q 135 74 217 -12 q 53 287 53 160 q 135 490 53 414 q 338 567 217 567 q 542 472 460 567 q 418 744 517 619 l 224 644 l 224 729 l 365 801 q 182 936 283 883 l 354 936 q 458 850 410 900 l 628 936 l 628 851 l 510 790 q 654 374 654 604 m 167 279 q 167 235 167 279 q 218 140 167 192 q 351 89 269 89 q 490 153 433 89 q 550 356 546 218 q 340 465 467 465 q 216 416 265 465 q 167 279 167 367 z "},"ñ":{"ha":750,"x_min":101,"x_max":657,"o":"m 210 704 l 210 582 q 432 714 272 714 q 596 651 535 714 q 657 485 657 589 l 657 0 l 547 0 l 547 456 q 508 574 547 533 q 397 615 468 615 q 267 554 325 615 q 210 385 210 493 l 210 0 l 101 0 l 101 704 l 210 704 m 486 819 q 390 850 449 819 q 308 881 331 881 q 214 814 251 881 l 154 865 q 212 935 174 907 q 293 964 250 964 q 396 933 336 964 q 481 903 456 903 q 556 963 528 903 l 624 915 q 486 819 579 819 z "},"ò":{"ha":781,"x_min":60,"x_max":721,"o":"m 306 994 l 442 778 l 346 778 l 174 994 l 306 994 m 607 351 q 607 408 607 351 q 553 541 607 465 q 393 617 499 617 q 231 539 288 617 q 174 350 174 461 q 232 162 174 239 q 392 85 290 85 q 550 160 493 85 q 607 351 607 236 m 721 351 q 721 272 721 351 q 632 90 721 193 q 390 -12 543 -12 q 148 90 236 -12 q 60 348 60 192 q 151 609 60 504 q 394 714 242 714 q 634 611 547 714 q 721 351 721 508 z "},"ó":{"ha":781,"x_min":60,"x_max":721,"o":"m 607 351 q 607 408 607 351 q 553 541 607 465 q 393 617 499 617 q 231 539 288 617 q 174 350 174 461 q 232 162 174 239 q 392 85 290 85 q 550 160 493 85 q 607 351 607 236 m 721 351 q 721 272 721 351 q 632 90 721 193 q 390 -12 543 -12 q 148 90 236 -12 q 60 348 60 192 q 151 609 60 504 q 394 714 242 714 q 634 611 547 714 q 721 351 721 508 m 358 778 l 496 994 l 626 994 l 454 778 l 358 778 z "},"ô":{"ha":781,"x_min":60,"x_max":721,"o":"m 342 993 l 447 993 l 624 776 l 513 776 l 394 922 l 276 776 l 165 776 l 342 993 m 721 351 q 721 272 721 351 q 632 90 721 193 q 390 -12 543 -12 q 148 90 236 -12 q 60 348 60 192 q 151 609 60 504 q 394 714 242 714 q 634 611 547 714 q 721 351 721 508 m 607 351 q 607 408 607 351 q 553 541 607 465 q 393 617 499 617 q 231 539 288 617 q 174 350 174 461 q 232 162 174 239 q 392 85 290 85 q 550 160 493 85 q 607 351 607 236 z "},"õ":{"ha":781,"x_min":60,"x_max":721,"o":"m 492 819 q 395 850 454 819 q 314 881 336 881 q 219 814 257 881 l 160 865 q 217 935 179 907 q 299 964 256 964 q 401 933 342 964 q 486 903 461 903 q 561 963 533 903 l 629 915 q 492 819 585 819 m 607 351 q 607 408 607 351 q 553 541 607 465 q 393 617 499 617 q 231 539 288 617 q 174 350 174 461 q 232 162 174 239 q 392 85 290 85 q 550 160 493 85 q 607 351 607 236 m 721 351 q 721 272 721 351 q 632 90 721 193 q 390 -12 543 -12 q 148 90 236 -12 q 60 348 60 192 q 151 609 60 504 q 394 714 242 714 q 634 611 547 714 q 721 351 721 508 z "},"ö":{"ha":781,"x_min":60,"x_max":721,"o":"m 607 351 q 607 408 607 351 q 553 541 607 465 q 393 617 499 617 q 231 539 288 617 q 174 350 174 461 q 232 162 174 239 q 392 85 290 85 q 550 160 493 85 q 607 351 607 236 m 721 351 q 721 272 721 351 q 632 90 721 193 q 390 -12 543 -12 q 148 90 236 -12 q 60 348 60 192 q 151 609 60 504 q 394 714 242 714 q 634 611 547 714 q 721 351 721 508 m 491 833 q 481 844 491 833 q 471 885 471 854 q 491 935 471 915 q 542 956 511 956 q 593 935 572 956 q 614 885 614 915 q 593 833 614 854 q 542 813 572 813 q 491 833 511 813 m 211 833 q 201 844 211 833 q 190 885 190 854 q 211 935 190 915 q 263 956 232 956 q 313 935 293 956 q 333 885 333 915 q 313 833 333 854 q 263 813 293 813 q 211 833 232 813 z "},"÷":{"ha":768,"x_min":79,"x_max":690,"o":"m 383 151 q 368 151 383 151 q 331 173 353 151 q 310 224 310 194 q 331 276 310 254 q 383 297 353 297 q 434 276 413 297 q 456 224 456 254 q 434 173 456 194 q 383 151 413 151 m 79 422 l 79 522 l 690 522 l 690 422 l 79 422 m 383 647 q 368 647 383 647 q 331 669 353 647 q 310 720 310 690 q 331 772 310 750 q 383 793 353 793 q 434 772 413 793 q 456 720 456 750 q 434 669 456 690 q 383 647 413 647 z "},"ø":{"ha":782,"x_min":78,"x_max":740,"o":"m 658 606 q 740 349 740 504 q 651 90 740 193 q 407 -12 563 -12 q 229 36 307 -12 l 192 -12 l 78 -12 l 160 97 q 78 349 78 196 q 169 608 78 503 q 407 714 261 714 q 589 665 511 714 l 625 714 l 740 714 l 658 606 m 406 625 q 243 545 301 625 q 185 359 185 465 q 226 185 185 253 l 532 590 q 406 625 479 625 m 407 76 q 575 154 517 76 q 633 340 633 232 q 594 521 633 449 l 288 114 q 407 76 340 76 z "},"ù":{"ha":750,"x_min":93,"x_max":649,"o":"m 539 704 l 649 704 l 649 0 l 539 0 l 539 122 q 318 -8 483 -8 q 153 53 214 -8 q 93 219 93 115 l 93 704 l 203 704 l 203 247 q 242 131 203 171 q 358 90 281 90 q 487 151 435 90 q 539 317 539 213 l 539 704 m 422 776 l 326 776 l 154 993 l 286 993 l 422 776 z "},"ú":{"ha":750,"x_min":93,"x_max":649,"o":"m 539 704 l 649 704 l 649 0 l 539 0 l 539 122 q 318 -8 483 -8 q 153 53 214 -8 q 93 219 93 115 l 93 704 l 203 704 l 203 247 q 242 131 203 171 q 358 90 281 90 q 487 151 435 90 q 539 317 539 213 l 539 704 m 601 994 l 429 778 l 333 778 l 471 994 l 601 994 z "},"û":{"ha":750,"x_min":93,"x_max":649,"o":"m 539 704 l 649 704 l 649 0 l 539 0 l 539 122 q 318 -8 483 -8 q 153 53 214 -8 q 93 219 93 115 l 93 704 l 203 704 l 203 247 q 242 131 203 171 q 358 90 281 90 q 487 151 435 90 q 539 317 539 213 l 539 704 m 374 924 l 256 778 l 144 778 l 321 994 l 426 994 l 603 778 l 492 778 l 374 924 z "},"ü":{"ha":750,"x_min":93,"x_max":649,"o":"m 539 704 l 649 704 l 649 0 l 539 0 l 539 122 q 318 -8 483 -8 q 153 53 214 -8 q 93 219 93 115 l 93 704 l 203 704 l 203 247 q 242 131 203 171 q 358 90 281 90 q 487 151 435 90 q 539 317 539 213 l 539 704 m 287 833 q 277 823 287 833 q 236 813 267 813 q 185 833 206 813 q 164 885 164 854 q 185 935 164 915 q 236 956 206 956 q 287 935 267 956 q 307 885 307 915 q 287 833 307 854 m 567 833 q 556 823 567 833 q 515 813 546 813 q 465 833 485 813 q 444 885 444 854 q 465 935 444 915 q 515 956 485 956 q 567 935 546 956 q 588 885 588 915 q 567 833 588 854 z "},"ý":{"ha":685,"x_min":11,"x_max":661,"o":"m 108 -242 q 50 -235 72 -242 l 50 -136 q 97 -142 71 -142 q 296 18 238 -142 l 11 704 l 135 704 l 350 153 q 543 704 361 192 l 661 704 l 407 18 q 278 -183 353 -125 q 108 -242 204 -242 m 308 778 l 446 994 l 576 994 l 404 778 l 308 778 z "},"þ":{"ha":788,"x_min":101,"x_max":728,"o":"m 210 982 l 210 597 q 426 715 283 715 q 648 613 568 715 q 728 353 728 511 q 644 92 728 196 q 423 -11 560 -11 q 210 107 286 -11 l 210 -274 l 101 -274 l 101 982 l 210 982 m 210 354 q 210 285 210 354 q 272 153 210 217 q 417 89 335 89 q 557 159 500 89 q 614 351 614 229 q 558 544 614 474 q 418 615 503 615 q 272 553 333 615 q 210 354 210 492 z "},"ÿ":{"ha":685,"x_min":11,"x_max":661,"o":"m 108 -242 q 50 -235 72 -242 l 50 -136 q 97 -142 71 -142 q 296 18 238 -142 l 11 704 l 135 704 l 350 153 q 543 704 361 192 l 661 704 l 407 18 q 278 -183 353 -125 q 108 -242 204 -242 m 164 833 q 153 844 164 833 q 143 885 143 854 q 164 935 143 915 q 215 956 185 956 q 266 935 246 956 q 286 885 286 915 q 266 833 286 854 q 215 813 246 813 q 164 833 185 813 m 444 833 q 434 844 444 833 q 424 885 424 854 q 444 935 424 915 q 494 956 464 956 q 546 935 525 956 q 567 885 567 915 q 546 833 567 854 q 494 813 525 813 q 444 833 464 813 z "},"Ā":{"ha":900,"x_min":49,"x_max":851,"o":"m 731 0 l 649 246 l 253 246 l 169 0 l 49 0 l 375 936 l 531 936 l 851 0 l 731 0 m 285 342 l 617 342 l 453 846 q 285 342 433 775 m 650 1157 l 650 1079 l 258 1079 l 258 1157 l 650 1157 z "},"ā":{"ha":683,"x_min":65,"x_max":590,"o":"m 325 715 q 590 446 590 715 l 590 0 l 482 0 l 482 83 q 285 -7 428 -7 q 126 51 186 -7 q 65 205 65 110 q 142 356 65 300 q 353 413 219 413 l 481 413 l 481 449 q 443 574 481 532 q 305 617 406 617 q 117 557 204 617 l 117 667 q 325 715 196 715 m 481 325 l 358 325 q 225 290 269 325 q 181 203 181 256 q 215 117 181 150 q 321 85 250 85 q 436 127 392 85 q 481 235 481 169 l 481 325 m 539 925 l 539 847 l 147 847 l 147 925 l 539 925 z "},"Ă":{"ha":900,"x_min":49,"x_max":851,"o":"m 731 0 l 649 246 l 253 246 l 169 0 l 49 0 l 375 936 l 531 936 l 851 0 l 731 0 m 285 342 l 617 342 l 453 846 q 285 342 433 775 m 590 1225 l 681 1225 q 624 1064 681 1124 q 453 1004 567 1004 q 281 1064 339 1004 q 224 1225 224 1124 l 314 1225 q 347 1122 314 1161 q 452 1083 381 1083 q 557 1122 524 1083 q 590 1225 590 1161 z "},"ă":{"ha":683,"x_min":65,"x_max":590,"o":"m 325 715 q 590 446 590 715 l 590 0 l 482 0 l 482 83 q 285 -7 428 -7 q 126 51 186 -7 q 65 205 65 110 q 142 356 65 300 q 353 413 219 413 l 481 413 l 481 449 q 443 574 481 532 q 305 617 406 617 q 117 557 204 617 l 117 667 q 325 715 196 715 m 481 325 l 358 325 q 225 290 269 325 q 181 203 181 256 q 215 117 181 150 q 321 85 250 85 q 436 127 392 85 q 481 235 481 169 l 481 325 m 485 993 l 575 993 q 518 832 575 892 q 347 772 461 772 q 176 832 233 772 q 118 993 118 892 l 208 993 q 242 890 208 929 q 347 851 275 851 q 451 890 418 851 q 485 993 485 929 z "},"Ą":{"ha":897,"x_min":47,"x_max":879,"o":"m 694 -174 q 718 -235 694 -214 q 789 -256 742 -256 q 879 -225 836 -256 l 879 -308 q 762 -336 836 -336 q 643 -293 688 -336 q 599 -183 599 -250 q 725 14 599 -67 l 647 246 l 251 246 l 168 0 l 47 0 l 374 936 l 529 936 l 850 0 q 694 -174 694 -76 m 283 342 l 615 342 l 451 846 q 283 342 432 775 z "},"ą":{"ha":682,"x_min":65,"x_max":619,"o":"m 590 446 l 590 0 q 435 -174 435 -76 q 458 -235 435 -214 q 529 -256 482 -256 q 619 -225 576 -256 l 619 -308 q 502 -336 576 -336 q 383 -293 428 -336 q 339 -185 339 -250 q 379 -68 339 -121 q 482 22 419 -15 l 482 88 q 285 -7 411 -7 q 126 49 186 -7 q 65 203 65 106 q 143 357 65 300 q 356 414 221 414 l 481 414 l 481 449 q 443 574 481 532 q 306 617 406 617 q 117 558 206 617 l 117 665 q 325 715 197 715 q 590 446 590 715 m 481 322 l 376 322 q 179 201 179 322 q 215 119 179 150 q 319 89 250 89 q 434 129 388 89 q 481 225 481 169 l 481 322 z "},"Ć":{"ha":836,"x_min":67,"x_max":778,"o":"m 458 1010 l 596 1226 l 726 1226 l 554 1010 l 458 1010 m 538 843 q 285 740 386 843 q 185 469 185 638 q 285 197 185 300 q 550 94 385 94 q 778 165 683 94 l 778 47 q 542 -11 692 -11 q 199 119 331 -11 q 67 466 67 249 q 201 816 67 683 q 538 949 335 949 q 775 899 683 949 l 775 783 q 665 829 714 815 q 538 843 617 843 z "},"ć":{"ha":654,"x_min":60,"x_max":628,"o":"m 436 83 q 586 129 517 83 l 586 25 q 422 -15 519 -15 q 158 91 256 -15 q 60 349 60 197 q 158 608 60 500 q 425 717 256 717 q 586 678 515 717 l 586 574 q 436 617 522 617 q 245 540 317 617 q 174 349 174 463 q 243 159 175 235 q 436 83 311 83 m 360 776 l 497 993 l 628 993 l 456 776 l 360 776 z "},"Ĉ":{"ha":836,"x_min":67,"x_max":778,"o":"m 451 1226 l 557 1226 l 733 1010 l 622 1010 l 504 1156 l 386 1010 l 275 1010 l 451 1226 m 538 843 q 285 740 386 843 q 185 469 185 638 q 285 197 185 300 q 550 94 385 94 q 778 165 683 94 l 778 47 q 542 -11 692 -11 q 199 119 331 -11 q 67 466 67 249 q 201 816 67 683 q 538 949 335 949 q 775 899 683 949 l 775 783 q 665 829 714 815 q 538 843 617 843 z "},"ĉ":{"ha":654,"x_min":60,"x_max":603,"o":"m 321 994 l 426 994 l 603 778 l 492 778 l 374 924 l 256 778 l 144 778 l 321 994 m 436 617 q 245 540 317 617 q 174 349 174 463 q 243 159 175 235 q 436 83 311 83 q 586 129 517 83 l 586 25 q 422 -15 519 -15 q 158 91 256 -15 q 60 349 60 197 q 158 608 60 500 q 425 717 256 717 q 586 678 515 717 l 586 574 q 436 617 522 617 z "},"Ċ":{"ha":836,"x_min":67,"x_max":778,"o":"m 538 843 q 285 740 386 843 q 185 469 185 638 q 285 197 185 300 q 550 94 385 94 q 778 165 683 94 l 778 47 q 542 -11 692 -11 q 199 119 331 -11 q 67 466 67 249 q 201 816 67 683 q 538 949 335 949 q 775 899 683 949 l 775 783 q 665 829 714 815 q 538 843 617 843 m 465 1071 q 455 1081 465 1071 q 444 1122 444 1092 q 465 1173 444 1153 q 517 1193 486 1193 q 567 1173 547 1193 q 588 1122 588 1153 q 567 1071 588 1092 q 517 1050 547 1050 q 465 1071 486 1050 z "},"ċ":{"ha":654,"x_min":60,"x_max":586,"o":"m 365 836 q 355 847 365 836 q 344 888 344 857 q 365 938 344 918 q 417 958 386 958 q 467 938 447 958 q 488 888 488 918 q 467 836 488 857 q 417 815 447 815 q 365 836 386 815 m 436 83 q 586 129 517 83 l 586 25 q 422 -15 519 -15 q 158 91 256 -15 q 60 349 60 197 q 158 608 60 500 q 425 717 256 717 q 586 678 515 717 l 586 574 q 436 617 522 617 q 245 540 317 617 q 174 349 174 463 q 243 159 175 235 q 436 83 311 83 z "},"Č":{"ha":836,"x_min":67,"x_max":778,"o":"m 578 1010 l 472 1010 l 296 1226 l 407 1226 l 526 1081 l 643 1226 l 754 1226 l 578 1010 m 538 843 q 285 740 386 843 q 185 469 185 638 q 285 197 185 300 q 550 94 385 94 q 778 165 683 94 l 778 47 q 542 -11 692 -11 q 199 119 331 -11 q 67 466 67 249 q 201 816 67 683 q 538 949 335 949 q 775 899 683 949 l 775 783 q 665 829 714 815 q 538 843 617 843 z "},"č":{"ha":654,"x_min":60,"x_max":611,"o":"m 435 778 l 329 778 l 153 994 l 264 994 l 383 849 l 500 994 l 611 994 l 435 778 m 436 617 q 245 540 317 617 q 174 349 174 463 q 243 159 175 235 q 436 83 311 83 q 586 129 517 83 l 586 25 q 422 -15 519 -15 q 158 91 256 -15 q 60 349 60 197 q 158 608 60 500 q 425 717 256 717 q 586 678 515 717 l 586 574 q 436 617 522 617 z "},"Ď":{"ha":918,"x_min":107,"x_max":857,"o":"m 107 936 l 385 936 q 724 808 592 936 q 857 476 857 679 q 734 136 857 272 q 390 0 611 0 l 107 0 l 107 936 m 221 99 l 389 99 q 651 206 563 99 q 740 471 740 314 q 641 732 740 628 q 383 836 542 836 l 221 836 l 221 99 m 478 1008 l 372 1008 l 196 1225 l 307 1225 l 426 1079 l 543 1225 l 654 1225 l 478 1008 z "},"ď":{"ha":917,"x_min":60,"x_max":1011,"o":"m 883 982 l 1011 982 l 857 715 l 767 715 l 883 982 m 576 982 l 686 982 l 686 0 l 576 0 l 576 104 q 360 -11 501 -11 q 140 93 219 -11 q 60 354 60 197 q 144 613 60 511 q 365 715 229 715 q 576 597 500 715 l 576 982 m 174 353 q 174 292 174 353 q 229 160 174 231 q 370 89 285 89 q 516 153 456 89 q 576 353 576 217 q 514 553 576 490 q 370 615 451 615 q 231 545 289 615 q 174 353 174 475 z "},"Đ":{"ha":1014,"x_min":85,"x_max":953,"o":"m 203 936 l 481 936 q 821 808 689 936 q 953 476 953 679 q 830 136 953 272 q 486 0 707 0 l 203 0 l 203 422 l 85 422 l 85 517 l 203 517 l 203 936 m 317 99 l 486 99 q 644 129 575 99 q 753 214 713 160 q 836 474 836 321 q 738 732 836 628 q 479 836 639 836 l 317 836 l 317 517 l 560 517 l 560 422 l 317 422 l 317 99 z "},"đ":{"ha":788,"x_min":60,"x_max":785,"o":"m 785 892 l 785 815 l 686 815 l 686 0 l 576 0 l 576 104 q 360 -11 501 -11 q 140 93 219 -11 q 60 354 60 197 q 144 613 60 511 q 365 715 229 715 q 576 597 500 715 l 576 815 l 308 815 l 308 892 l 576 892 l 576 982 l 686 982 l 686 892 l 785 892 m 174 353 q 174 292 174 353 q 229 160 174 231 q 370 89 285 89 q 516 153 456 89 q 576 353 576 217 q 514 553 576 490 q 370 615 451 615 q 231 545 289 615 q 174 353 174 475 z "},"Ē":{"ha":696,"x_min":107,"x_max":629,"o":"m 219 99 l 629 99 l 629 0 l 107 0 l 107 936 l 622 936 l 622 838 l 219 838 l 219 517 l 575 517 l 575 418 l 219 418 l 219 99 m 561 1158 l 561 1081 l 169 1081 l 169 1158 l 561 1158 z "},"ē":{"ha":725,"x_min":60,"x_max":660,"o":"m 415 -7 q 158 91 256 -7 q 60 353 60 189 q 147 615 60 518 q 369 713 235 713 q 582 628 504 713 q 660 388 660 543 q 653 306 660 343 l 172 306 q 251 146 185 201 q 431 90 318 90 q 615 139 544 90 l 615 36 q 415 -7 533 -7 m 550 397 l 550 425 q 503 565 550 513 q 374 617 456 617 q 238 560 293 617 q 172 397 182 503 l 550 397 m 579 925 l 579 847 l 188 847 l 188 925 l 579 925 z "},"Ĕ":{"ha":696,"x_min":107,"x_max":629,"o":"m 219 99 l 629 99 l 629 0 l 107 0 l 107 936 l 622 936 l 622 838 l 219 838 l 219 517 l 575 517 l 575 418 l 219 418 l 219 99 m 511 1226 l 601 1226 q 544 1065 601 1125 q 374 1006 488 1006 q 202 1065 260 1006 q 144 1226 144 1125 l 235 1226 q 268 1124 235 1163 q 373 1085 301 1085 q 478 1124 444 1085 q 511 1226 511 1163 z "},"ĕ":{"ha":725,"x_min":60,"x_max":660,"o":"m 415 -7 q 158 91 256 -7 q 60 353 60 189 q 147 615 60 518 q 369 713 235 713 q 582 628 504 713 q 660 388 660 543 q 653 306 660 343 l 172 306 q 251 146 185 201 q 431 90 318 90 q 615 139 544 90 l 615 36 q 415 -7 533 -7 m 550 397 l 550 425 q 503 565 550 513 q 374 617 456 617 q 238 560 293 617 q 172 397 182 503 l 550 397 m 519 994 l 610 994 q 553 833 610 893 q 382 774 496 774 q 210 833 268 774 q 153 994 153 893 l 243 994 q 276 892 243 931 q 381 853 310 853 q 486 892 453 853 q 519 994 519 931 z "},"Ė":{"ha":696,"x_min":107,"x_max":629,"o":"m 219 99 l 629 99 l 629 0 l 107 0 l 107 936 l 622 936 l 622 838 l 219 838 l 219 517 l 575 517 l 575 418 l 219 418 l 219 99 m 433 1069 q 423 1059 433 1069 q 382 1049 413 1049 q 331 1069 351 1049 q 310 1121 310 1090 q 331 1172 310 1151 q 382 1192 351 1192 q 433 1172 413 1192 q 453 1121 453 1151 q 433 1069 453 1090 z "},"ė":{"ha":725,"x_min":60,"x_max":660,"o":"m 415 -7 q 158 91 256 -7 q 60 353 60 189 q 147 615 60 518 q 369 713 235 713 q 582 628 504 713 q 660 388 660 543 q 653 306 660 343 l 172 306 q 251 146 185 201 q 431 90 318 90 q 615 139 544 90 l 615 36 q 415 -7 533 -7 m 550 397 l 550 425 q 503 565 550 513 q 374 617 456 617 q 238 560 293 617 q 172 397 182 503 l 550 397 m 442 836 q 432 826 442 836 q 392 815 422 815 q 340 836 361 815 q 319 888 319 857 q 340 938 319 918 q 392 958 361 958 q 442 938 422 958 q 463 888 463 918 q 442 836 463 857 z "},"Ę":{"ha":696,"x_min":107,"x_max":629,"o":"m 629 0 l 506 0 q 349 -174 349 -78 q 373 -235 349 -214 q 445 -256 397 -256 q 533 -225 493 -256 l 533 -310 q 416 -336 489 -336 q 299 -293 343 -336 q 254 -183 254 -250 q 363 0 254 -81 l 107 0 l 107 936 l 622 936 l 622 838 l 219 838 l 219 517 l 575 517 l 575 418 l 219 418 l 219 99 l 629 99 l 629 0 z "},"ę":{"ha":725,"x_min":60,"x_max":660,"o":"m 536 -304 q 419 -331 492 -331 q 301 -287 346 -331 q 257 -178 257 -244 q 354 -3 257 -82 q 140 111 219 17 q 60 362 60 206 q 147 615 60 518 q 369 713 235 713 q 582 628 504 713 q 660 388 660 543 q 653 306 660 343 l 172 306 q 251 146 185 201 q 431 90 318 90 q 615 139 544 90 l 615 36 q 497 0 568 11 q 351 -168 351 -76 q 376 -229 351 -208 q 448 -250 400 -250 q 536 -219 496 -250 l 536 -304 m 550 397 l 550 425 q 503 565 550 513 q 374 617 456 617 q 238 560 293 617 q 172 397 182 503 l 550 397 z "},"Ě":{"ha":696,"x_min":107,"x_max":629,"o":"m 219 99 l 629 99 l 629 0 l 107 0 l 107 936 l 622 936 l 622 838 l 219 838 l 219 517 l 575 517 l 575 418 l 219 418 l 219 99 m 429 1008 l 324 1008 l 147 1225 l 258 1225 l 378 1079 l 494 1225 l 606 1225 l 429 1008 z "},"ě":{"ha":725,"x_min":60,"x_max":660,"o":"m 415 -7 q 158 91 256 -7 q 60 353 60 189 q 147 615 60 518 q 369 713 235 713 q 582 628 504 713 q 660 388 660 543 q 653 306 660 343 l 172 306 q 251 146 185 201 q 431 90 318 90 q 615 139 544 90 l 615 36 q 415 -7 533 -7 m 550 397 l 550 425 q 503 565 550 513 q 374 617 456 617 q 238 560 293 617 q 172 397 182 503 l 550 397 m 433 778 l 328 778 l 151 994 l 263 994 l 382 849 l 499 994 l 610 994 l 433 778 z "},"Ĝ":{"ha":931,"x_min":67,"x_max":838,"o":"m 838 525 l 838 78 l 836 78 l 838 74 q 547 -11 725 -11 q 199 117 331 -11 q 67 464 67 246 q 198 817 67 682 q 529 953 329 953 q 803 889 694 953 l 803 768 q 535 843 689 843 q 283 741 382 843 q 185 467 185 639 q 282 197 185 296 q 550 97 379 97 q 725 135 644 97 l 725 426 l 519 426 l 519 525 l 838 525 m 508 1154 l 390 1008 l 279 1008 l 456 1225 l 561 1225 l 738 1008 l 626 1008 l 508 1154 z "},"ĝ":{"ha":763,"x_min":61,"x_max":669,"o":"m 560 704 l 669 704 l 669 57 q 581 -185 669 -104 q 358 -267 492 -267 q 133 -224 224 -267 l 133 -114 q 333 -165 222 -165 q 560 58 560 -165 l 560 138 q 361 18 490 18 q 147 107 232 18 q 61 353 61 196 q 140 613 61 511 q 356 714 219 714 q 560 588 492 714 l 560 704 m 175 356 q 175 297 175 356 q 233 177 175 239 q 367 115 292 115 q 501 174 442 115 q 560 359 560 233 q 503 550 560 485 q 363 615 446 615 q 228 544 281 615 q 175 356 175 472 m 385 924 l 267 778 l 156 778 l 332 994 l 438 994 l 614 778 l 503 778 l 385 924 z "},"Ğ":{"ha":931,"x_min":67,"x_max":838,"o":"m 838 525 l 838 78 l 836 78 l 838 74 q 547 -11 725 -11 q 199 117 331 -11 q 67 464 67 246 q 198 817 67 682 q 529 953 329 953 q 803 889 694 953 l 803 768 q 535 843 689 843 q 283 741 382 843 q 185 467 185 639 q 282 197 185 296 q 550 97 379 97 q 725 135 644 97 l 725 426 l 519 426 l 519 525 l 838 525 m 650 1226 l 740 1226 q 683 1065 740 1125 q 513 1006 626 1006 q 341 1065 399 1006 q 283 1226 283 1125 l 374 1226 q 407 1124 374 1163 q 512 1085 440 1085 q 617 1124 583 1085 q 650 1226 650 1163 z "},"ğ":{"ha":763,"x_min":61,"x_max":669,"o":"m 560 704 l 669 704 l 669 57 q 581 -185 669 -104 q 358 -267 492 -267 q 133 -224 224 -267 l 133 -114 q 333 -165 222 -165 q 560 58 560 -165 l 560 138 q 361 18 490 18 q 147 107 232 18 q 61 353 61 196 q 140 613 61 511 q 356 714 219 714 q 560 588 492 714 l 560 704 m 175 356 q 175 297 175 356 q 233 177 175 239 q 367 115 292 115 q 501 174 442 115 q 560 359 560 233 q 503 550 560 485 q 363 615 446 615 q 228 544 281 615 q 175 356 175 472 m 543 994 l 633 994 q 576 833 633 893 q 406 774 519 774 q 234 833 292 774 q 176 994 176 893 l 267 994 q 300 892 267 931 q 405 853 333 853 q 510 892 476 853 q 543 994 543 931 z "},"Ġ":{"ha":931,"x_min":67,"x_max":838,"o":"m 838 525 l 838 78 l 836 78 l 838 74 q 547 -11 725 -11 q 199 117 331 -11 q 67 464 67 246 q 198 817 67 682 q 529 953 329 953 q 803 889 694 953 l 803 768 q 535 843 689 843 q 283 741 382 843 q 185 467 185 639 q 282 197 185 296 q 550 97 379 97 q 725 135 644 97 l 725 426 l 519 426 l 519 525 l 838 525 m 572 1068 q 561 1058 572 1068 q 521 1047 551 1047 q 469 1068 490 1047 q 449 1119 449 1089 q 469 1170 449 1150 q 521 1190 490 1190 q 572 1170 551 1190 q 592 1119 592 1150 q 572 1068 592 1089 z "},"ġ":{"ha":763,"x_min":61,"x_max":669,"o":"m 560 704 l 669 704 l 669 57 q 581 -185 669 -104 q 358 -267 492 -267 q 133 -224 224 -267 l 133 -114 q 333 -165 222 -165 q 560 58 560 -165 l 560 138 q 361 18 490 18 q 147 107 232 18 q 61 353 61 196 q 140 613 61 511 q 356 714 219 714 q 560 588 492 714 l 560 704 m 175 356 q 175 297 175 356 q 233 177 175 239 q 367 115 292 115 q 501 174 442 115 q 560 359 560 233 q 503 550 560 485 q 363 615 446 615 q 228 544 281 615 q 175 356 175 472 m 474 836 q 464 826 474 836 q 424 815 454 815 q 372 836 393 815 q 351 888 351 857 q 372 938 351 918 q 424 958 393 958 q 474 938 454 958 q 494 888 494 918 q 474 836 494 857 z "},"Ģ":{"ha":931,"x_min":67,"x_max":838,"o":"m 838 525 l 838 78 l 836 78 l 838 74 q 547 -11 725 -11 q 199 117 331 -11 q 67 464 67 246 q 198 817 67 682 q 529 953 329 953 q 803 889 694 953 l 803 768 q 535 843 689 843 q 283 741 382 843 q 185 467 185 639 q 282 197 185 296 q 550 97 379 97 q 725 135 644 97 l 725 426 l 519 426 l 519 525 l 838 525 m 340 -337 l 457 -71 l 585 -71 l 431 -337 l 340 -337 z "},"ģ":{"ha":763,"x_min":61,"x_max":669,"o":"m 560 704 l 669 704 l 669 57 q 581 -185 669 -104 q 358 -267 492 -267 q 133 -224 224 -267 l 133 -114 q 333 -165 222 -165 q 560 58 560 -165 l 560 138 q 361 18 490 18 q 147 107 232 18 q 61 353 61 196 q 140 613 61 511 q 356 714 219 714 q 560 588 492 714 l 560 704 m 175 356 q 175 297 175 356 q 233 177 175 239 q 367 115 292 115 q 501 174 442 115 q 560 359 560 233 q 503 550 560 485 q 363 615 446 615 q 228 544 281 615 q 175 356 175 472 m 608 1044 l 490 778 l 364 778 l 518 1044 l 608 1044 z "},"Ĥ":{"ha":893,"x_min":107,"x_max":786,"o":"m 674 936 l 786 936 l 786 0 l 674 0 l 674 424 l 219 424 l 219 0 l 107 0 l 107 936 l 219 936 l 219 525 l 674 525 l 674 936 m 451 1154 l 333 1008 l 222 1008 l 399 1225 l 504 1225 l 681 1008 l 569 1008 l 451 1154 z "},"ĥ":{"ha":750,"x_min":-71,"x_max":657,"o":"m 210 982 l 210 582 q 432 714 272 714 q 595 651 533 714 q 657 482 657 589 l 657 0 l 547 0 l 547 456 q 508 574 547 532 q 397 615 468 615 q 268 556 326 615 q 210 385 210 496 l 210 0 l 101 0 l 101 982 l 210 982 m 276 1056 l 158 1201 l 40 1056 l -71 1056 l 106 1272 l 211 1272 l 388 1056 l 276 1056 z "},"Ħ":{"ha":981,"x_min":46,"x_max":933,"o":"m 933 792 l 933 713 l 831 713 l 831 0 l 717 0 l 717 424 l 263 424 l 263 0 l 150 0 l 150 713 l 46 713 l 46 792 l 150 792 l 150 936 l 263 936 l 263 792 l 717 792 l 717 936 l 831 936 l 831 792 l 933 792 m 717 525 l 717 713 l 263 713 l 263 525 l 717 525 z "},"ħ":{"ha":750,"x_min":1,"x_max":657,"o":"m 210 815 l 210 582 q 432 714 272 714 q 595 651 533 714 q 657 482 657 589 l 657 0 l 547 0 l 547 456 q 508 574 547 532 q 397 615 468 615 q 268 556 326 615 q 210 385 210 496 l 210 0 l 101 0 l 101 815 l 1 815 l 1 892 l 101 892 l 101 982 l 210 982 l 210 892 l 468 892 l 468 815 l 210 815 z "},"Ĩ":{"ha":343,"x_min":-64,"x_max":406,"o":"m 268 1049 q 172 1079 231 1049 q 90 1110 113 1110 q -4 1043 33 1110 l -64 1094 q -6 1165 -44 1136 q 75 1193 32 1193 q 178 1163 118 1193 q 263 1132 238 1132 q 338 1192 310 1132 l 406 1144 q 268 1049 361 1049 m 115 0 l 115 936 l 228 936 l 228 0 l 115 0 z "},"ĩ":{"ha":324,"x_min":-72,"x_max":397,"o":"m 260 814 q 163 844 222 814 q 82 875 104 875 q -12 808 25 875 l -72 860 q -15 930 -53 901 q 67 958 24 958 q 169 928 110 958 q 254 897 229 897 q 329 957 301 897 l 397 910 q 260 814 353 814 m 107 0 l 107 704 l 217 704 l 217 0 l 107 0 z "},"Ī":{"ha":343,"x_min":-24,"x_max":368,"o":"m 368 1079 l -24 1079 l -24 1157 l 368 1157 l 368 1079 m 115 0 l 115 936 l 228 936 l 228 0 l 115 0 z "},"ī":{"ha":324,"x_min":-33,"x_max":358,"o":"m 358 847 l -33 847 l -33 925 l 358 925 l 358 847 m 107 0 l 107 704 l 217 704 l 217 0 l 107 0 z "},"Ĭ":{"ha":343,"x_min":-56,"x_max":401,"o":"m 115 0 l 115 936 l 228 936 l 228 0 l 115 0 m -56 1226 l 35 1226 q 68 1124 35 1163 q 173 1085 101 1085 q 278 1124 244 1085 q 311 1226 311 1163 l 401 1226 q 344 1065 401 1125 q 174 1006 288 1006 q 2 1065 60 1006 q -56 1226 -56 1125 z "},"ĭ":{"ha":324,"x_min":-67,"x_max":390,"o":"m 107 0 l 107 704 l 217 704 l 217 0 l 107 0 m -67 994 l 24 994 q 57 892 24 931 q 162 853 90 853 q 267 892 233 853 q 300 994 300 931 l 390 994 q 333 833 390 893 q 163 774 276 774 q -9 833 49 774 q -67 994 -67 893 z "},"Į":{"ha":343,"x_min":-22,"x_max":257,"o":"m 72 -174 q 97 -235 72 -214 q 169 -256 121 -256 q 257 -225 217 -256 l 257 -310 q 140 -336 213 -336 q 22 -293 67 -336 q -22 -183 -22 -250 q 115 19 -22 -64 l 115 936 l 228 936 l 228 1 l 229 0 q 72 -174 72 -78 z "},"į":{"ha":324,"x_min":-35,"x_max":244,"o":"m 217 704 l 217 0 q 60 -174 60 -78 q 84 -235 60 -214 q 156 -256 108 -256 q 244 -225 204 -256 l 244 -310 q 127 -336 200 -336 q 10 -293 54 -336 q -35 -185 -35 -250 q 5 -67 -35 -121 q 107 22 44 -14 l 107 704 l 217 704 m 213 874 q 202 864 213 874 q 161 854 192 854 q 110 874 131 854 q 90 925 90 894 q 110 976 90 956 q 161 997 131 997 q 213 976 192 997 q 233 925 233 956 q 213 874 233 894 z "},"İ":{"ha":343,"x_min":101,"x_max":244,"o":"m 122 1071 q 112 1081 122 1071 q 101 1122 101 1092 q 122 1173 101 1153 q 174 1193 143 1193 q 224 1173 204 1193 q 244 1122 244 1153 q 224 1071 244 1092 q 174 1050 204 1050 q 122 1071 143 1050 m 115 0 l 115 936 l 228 936 l 228 0 l 115 0 z "},"ı":{"ha":324,"x_min":107,"x_max":217,"o":"m 107 0 l 107 704 l 217 704 l 217 0 l 107 0 z "},"Ĳ":{"ha":782,"x_min":115,"x_max":676,"o":"m 443 103 q 564 231 564 103 l 564 936 l 676 936 l 676 240 q 458 0 676 0 q 326 31 381 0 l 326 139 q 443 103 382 103 m 115 0 l 115 936 l 228 936 l 228 0 l 115 0 z "},"ĳ":{"ha":632,"x_min":86,"x_max":547,"o":"m 424 874 q 414 884 424 874 q 404 925 404 894 q 424 976 404 956 q 475 997 444 997 q 526 976 506 997 q 547 925 547 956 q 526 874 547 894 q 475 854 506 854 q 424 874 444 854 m 344 -175 q 422 -74 422 -175 l 422 704 l 531 704 l 531 -76 q 483 -219 531 -168 q 350 -271 435 -271 q 250 -250 304 -271 l 250 -153 q 344 -175 303 -175 m 106 874 q 96 884 106 874 q 86 925 86 894 q 106 976 86 956 q 157 997 126 997 q 208 976 188 997 q 229 925 229 956 q 208 874 229 894 q 157 854 188 854 q 106 874 126 854 m 103 0 l 103 704 l 213 704 l 213 0 l 103 0 z "},"Ĵ":{"ha":553,"x_min":42,"x_max":567,"o":"m 285 1225 l 390 1225 l 567 1008 l 456 1008 l 338 1154 l 219 1008 l 108 1008 l 285 1225 m 158 103 q 279 231 279 103 l 279 936 l 392 936 l 392 240 q 174 0 392 0 q 42 31 96 0 l 42 139 q 158 103 97 103 z "},"ĵ":{"ha":317,"x_min":-65,"x_max":393,"o":"m 31 -175 q 108 -74 108 -175 l 108 704 l 217 704 l 217 -76 q 169 -219 217 -168 q 36 -271 121 -271 q -64 -250 -10 -271 l -64 -153 q 31 -175 -11 -175 m 111 994 l 217 994 l 393 778 l 282 778 l 164 924 l 46 778 l -65 778 l 111 994 z "},"Ķ":{"ha":796,"x_min":107,"x_max":757,"o":"m 381 463 l 757 0 l 611 0 l 242 463 l 599 936 l 738 936 l 381 463 m 229 -337 l 347 -71 l 474 -71 l 319 -337 l 229 -337 m 107 0 l 107 936 l 219 936 l 219 0 l 107 0 z "},"ķ":{"ha":667,"x_min":101,"x_max":639,"o":"m 353 369 l 639 0 l 507 0 l 224 369 l 500 704 l 631 704 l 353 369 m 163 -337 l 281 -71 l 407 -71 l 253 -337 l 163 -337 m 210 976 l 210 0 l 101 0 l 101 976 l 210 976 z "},"ĸ":{"ha":667,"x_min":101,"x_max":639,"o":"m 353 369 l 639 0 l 507 0 l 224 369 l 500 704 l 631 704 l 353 369 m 101 0 l 101 704 l 210 704 l 210 0 l 101 0 z "},"Ĺ":{"ha":663,"x_min":107,"x_max":622,"o":"m 219 936 l 219 101 l 618 101 l 618 0 l 107 0 l 107 936 l 219 936 m 622 1226 l 450 1010 l 354 1010 l 492 1226 l 622 1226 z "},"ĺ":{"ha":324,"x_min":107,"x_max":385,"o":"m 107 0 l 107 982 l 217 982 l 217 0 l 107 0 m 117 1056 l 254 1272 l 385 1272 l 213 1056 l 117 1056 z "},"Ļ":{"ha":663,"x_min":107,"x_max":618,"o":"m 219 101 l 618 101 l 618 0 l 107 0 l 107 936 l 219 936 l 219 101 m 193 -337 l 310 -71 l 438 -71 l 283 -337 l 193 -337 z "},"ļ":{"ha":324,"x_min":-18,"x_max":226,"o":"m -18 -337 l 99 -71 l 226 -71 l 72 -337 l -18 -337 m 107 0 l 107 982 l 217 982 l 217 0 l 107 0 z "},"Ľ":{"ha":663,"x_min":107,"x_max":618,"o":"m 219 101 l 618 101 l 618 0 l 107 0 l 107 936 l 219 936 l 219 101 m 589 974 l 435 707 l 344 707 l 463 974 l 589 974 z "},"ľ":{"ha":360,"x_min":107,"x_max":554,"o":"m 310 715 l 428 982 l 554 982 l 400 715 l 310 715 m 107 0 l 107 982 l 217 982 l 217 0 l 107 0 z "},"Ŀ":{"ha":674,"x_min":107,"x_max":618,"o":"m 219 101 l 618 101 l 618 0 l 107 0 l 107 936 l 219 936 l 219 101 m 524 508 q 524 492 524 508 q 500 453 524 475 q 442 431 476 431 q 386 453 408 431 q 364 508 364 475 q 387 565 364 542 q 443 589 410 589 q 500 565 476 589 q 524 508 524 542 z "},"ŀ":{"ha":532,"x_min":101,"x_max":494,"o":"m 414 424 q 397 424 414 424 q 357 446 379 424 q 335 502 335 468 q 358 559 335 536 q 414 582 381 582 q 471 559 447 582 q 494 502 494 536 q 472 446 494 468 q 414 424 449 424 m 101 0 l 101 982 l 210 982 l 210 0 l 101 0 z "},"Ł":{"ha":694,"x_min":40,"x_max":646,"o":"m 247 101 l 646 101 l 646 0 l 135 0 l 135 340 l 40 275 l 40 382 l 135 447 l 135 936 l 247 936 l 247 525 l 456 669 l 456 561 l 247 418 l 247 101 z "},"ł":{"ha":404,"x_min":46,"x_max":363,"o":"m 250 0 l 140 0 l 140 422 l 46 356 l 46 463 l 140 529 l 140 982 l 250 982 l 250 607 l 363 688 l 363 579 l 250 500 l 250 0 z "},"Ń":{"ha":935,"x_min":107,"x_max":828,"o":"m 107 0 l 107 936 l 249 936 l 483 542 l 721 136 q 715 540 715 271 l 715 936 l 828 936 l 828 0 l 686 0 q 213 801 297 649 q 219 394 219 657 l 219 0 l 107 0 m 453 1008 l 590 1225 l 721 1225 l 549 1008 l 453 1008 z "},"ń":{"ha":750,"x_min":101,"x_max":657,"o":"m 210 704 l 210 582 q 432 714 272 714 q 596 651 535 714 q 657 485 657 589 l 657 0 l 547 0 l 547 456 q 508 574 547 533 q 397 615 468 615 q 267 554 325 615 q 210 385 210 493 l 210 0 l 101 0 l 101 704 l 210 704 m 638 994 l 465 778 l 369 778 l 507 994 l 638 994 z "},"Ņ":{"ha":935,"x_min":107,"x_max":828,"o":"m 107 0 l 107 936 l 249 936 l 483 542 l 721 136 q 715 540 715 271 l 715 936 l 828 936 l 828 0 l 686 0 q 213 801 297 649 q 219 394 219 657 l 219 0 l 107 0 m 303 -337 l 419 -71 l 547 -71 l 393 -337 l 303 -337 z "},"ņ":{"ha":750,"x_min":101,"x_max":657,"o":"m 210 704 l 210 582 q 432 714 272 714 q 596 651 535 714 q 657 485 657 589 l 657 0 l 547 0 l 547 456 q 508 574 547 533 q 397 615 468 615 q 267 554 325 615 q 210 385 210 493 l 210 0 l 101 0 l 101 704 l 210 704 m 207 -337 l 324 -71 l 451 -71 l 297 -337 l 207 -337 z "},"Ň":{"ha":935,"x_min":107,"x_max":828,"o":"m 543 1010 l 438 1010 l 261 1226 l 372 1226 l 492 1081 l 608 1226 l 719 1226 l 543 1010 m 107 0 l 107 936 l 249 936 l 483 542 l 721 136 q 715 540 715 271 l 715 936 l 828 936 l 828 0 l 686 0 q 213 801 297 649 q 219 394 219 657 l 219 0 l 107 0 z "},"ň":{"ha":750,"x_min":101,"x_max":657,"o":"m 210 704 l 210 582 q 432 714 272 714 q 596 651 535 714 q 657 485 657 589 l 657 0 l 547 0 l 547 456 q 508 574 547 533 q 397 615 468 615 q 267 554 325 615 q 210 385 210 493 l 210 0 l 101 0 l 101 704 l 210 704 m 451 778 l 346 778 l 169 994 l 281 994 l 400 849 l 517 994 l 628 994 l 451 778 z "},"ŉ":{"ha":800,"x_min":-31,"x_max":708,"o":"m 261 704 l 261 582 q 483 714 324 714 q 647 651 586 714 q 708 485 708 589 l 708 0 l 599 0 l 599 456 q 559 574 599 533 q 448 615 519 615 q 319 554 376 615 q 261 385 261 493 l 261 0 l 153 0 l 153 704 l 261 704 m 75 965 l 199 965 l 47 682 l -31 682 l 75 965 z "},"Ŋ":{"ha":935,"x_min":107,"x_max":828,"o":"m 715 936 l 828 936 l 828 -36 q 610 -276 828 -276 q 478 -246 529 -276 l 478 -137 q 594 -174 536 -174 q 715 -46 715 -174 l 715 0 l 686 0 q 213 801 297 649 q 219 394 219 657 l 219 0 l 107 0 l 107 936 l 249 936 l 483 542 l 721 136 q 715 540 715 271 l 715 936 z "},"ŋ":{"ha":750,"x_min":101,"x_max":658,"o":"m 657 335 l 658 335 l 658 -76 q 610 -219 658 -168 q 476 -271 563 -271 q 378 -250 431 -271 l 378 -153 q 471 -175 429 -175 q 549 -74 549 -175 l 549 0 l 547 0 l 547 456 q 508 574 547 533 q 397 615 468 615 q 267 554 325 615 q 210 385 210 493 l 210 0 l 101 0 l 101 704 l 210 704 l 210 582 q 432 714 272 714 q 596 651 535 714 q 657 485 657 589 l 657 335 z "},"Ō":{"ha":972,"x_min":67,"x_max":907,"o":"m 487 849 q 416 849 487 849 q 265 748 344 849 q 185 473 185 647 q 267 197 185 299 q 490 96 350 96 q 709 196 631 96 q 788 472 788 296 q 708 749 788 649 q 487 849 629 849 m 489 -11 q 393 -11 489 -11 q 182 121 297 -11 q 67 473 67 253 q 180 824 67 693 q 488 954 293 954 q 795 824 683 954 q 907 473 907 694 q 794 120 907 251 q 489 -11 681 -11 m 683 1079 l 292 1079 l 292 1157 l 683 1157 l 683 1079 z "},"ō":{"ha":781,"x_min":60,"x_max":721,"o":"m 607 351 q 607 408 607 351 q 553 541 607 465 q 393 617 499 617 q 231 539 288 617 q 174 350 174 461 q 232 162 174 239 q 392 85 290 85 q 550 160 493 85 q 607 351 607 236 m 721 351 q 721 272 721 351 q 632 90 721 193 q 390 -12 543 -12 q 148 90 236 -12 q 60 348 60 192 q 151 609 60 504 q 394 714 242 714 q 634 611 547 714 q 721 351 721 508 m 590 847 l 199 847 l 199 925 l 590 925 l 590 847 z "},"Ŏ":{"ha":972,"x_min":67,"x_max":907,"o":"m 489 -11 q 393 -11 489 -11 q 182 121 297 -11 q 67 473 67 253 q 180 824 67 693 q 488 954 293 954 q 795 824 683 954 q 907 473 907 694 q 794 120 907 251 q 489 -11 681 -11 m 487 849 q 416 849 487 849 q 265 748 344 849 q 185 473 185 647 q 267 197 185 299 q 490 96 350 96 q 709 196 631 96 q 788 472 788 296 q 708 749 788 649 q 487 849 629 849 m 265 1226 l 356 1226 q 389 1124 356 1163 q 494 1085 422 1085 q 599 1124 565 1085 q 632 1226 632 1163 l 722 1226 q 665 1065 722 1125 q 494 1006 608 1006 q 323 1065 381 1006 q 265 1226 265 1125 z "},"ŏ":{"ha":781,"x_min":60,"x_max":721,"o":"m 721 351 q 721 272 721 351 q 632 90 721 193 q 390 -12 543 -12 q 148 90 236 -12 q 60 348 60 192 q 151 609 60 504 q 394 714 242 714 q 634 611 547 714 q 721 351 721 508 m 607 351 q 607 408 607 351 q 553 541 607 465 q 393 617 499 617 q 231 539 288 617 q 174 350 174 461 q 232 162 174 239 q 392 85 290 85 q 550 160 493 85 q 607 351 607 236 m 178 994 l 268 994 q 301 892 268 931 q 406 853 335 853 q 511 892 478 853 q 544 994 544 931 l 635 994 q 578 833 635 893 q 407 774 521 774 q 235 833 293 774 q 178 994 178 893 z "},"Ő":{"ha":972,"x_min":67,"x_max":907,"o":"m 487 849 q 416 849 487 849 q 265 748 344 849 q 185 473 185 647 q 267 197 185 299 q 490 96 350 96 q 709 196 631 96 q 788 472 788 296 q 708 749 788 649 q 487 849 629 849 m 489 -11 q 393 -11 489 -11 q 182 121 297 -11 q 67 473 67 253 q 180 824 67 693 q 488 954 293 954 q 795 824 683 954 q 907 473 907 694 q 794 120 907 251 q 489 -11 681 -11 m 357 1010 l 490 1226 l 618 1226 l 442 1010 l 357 1010 m 574 1010 l 714 1226 l 844 1226 l 658 1010 l 574 1010 z "},"ő":{"ha":781,"x_min":60,"x_max":756,"o":"m 607 351 q 607 408 607 351 q 553 541 607 465 q 393 617 499 617 q 231 539 288 617 q 174 350 174 461 q 232 162 174 239 q 392 85 290 85 q 550 160 493 85 q 607 351 607 236 m 721 351 q 721 272 721 351 q 632 90 721 193 q 390 -12 543 -12 q 148 90 236 -12 q 60 348 60 192 q 151 609 60 504 q 394 714 242 714 q 634 611 547 714 q 721 351 721 508 m 268 778 l 401 994 l 529 994 l 353 778 l 268 778 m 485 778 l 625 994 l 756 994 l 569 778 l 485 778 z "},"Œ":{"ha":1365,"x_min":67,"x_max":1299,"o":"m 886 99 l 1299 99 l 1299 0 l 776 0 l 776 122 q 479 -11 667 -11 q 179 120 292 -11 q 67 472 67 251 q 177 824 67 693 q 478 954 288 954 q 776 822 668 954 l 776 936 l 1292 936 l 1292 838 l 886 838 l 886 517 l 1244 517 l 1244 418 l 886 418 l 886 99 m 185 473 q 185 385 185 473 q 265 197 185 297 q 483 96 344 96 q 699 196 622 96 q 776 472 776 296 q 699 749 776 649 q 481 849 622 849 q 262 749 339 849 q 185 473 185 649 z "},"œ":{"ha":1239,"x_min":60,"x_max":1181,"o":"m 933 -7 q 642 138 740 -7 q 376 -12 560 -12 q 143 89 226 -12 q 60 348 60 190 q 146 610 60 506 q 376 714 232 714 q 639 572 557 714 q 897 713 726 713 q 1107 627 1033 713 q 1181 382 1181 542 q 1174 306 1181 343 l 694 306 q 775 146 707 201 q 951 90 843 90 q 1131 139 1060 90 l 1131 36 q 933 -7 1049 -7 m 174 351 q 174 294 174 351 q 227 161 174 238 q 381 85 281 85 q 531 159 481 85 q 582 349 582 233 q 376 617 582 617 q 225 540 276 617 q 174 351 174 464 m 1071 397 l 1071 428 q 1022 568 1069 519 q 897 617 975 617 q 763 561 819 617 q 694 397 706 506 l 1071 397 z "},"Ŕ":{"ha":761,"x_min":107,"x_max":729,"o":"m 365 369 l 219 369 l 219 0 l 107 0 l 107 936 l 342 936 q 588 860 504 936 q 672 649 672 783 q 621 483 669 551 q 483 388 572 415 l 729 0 l 594 0 l 365 369 m 219 839 l 219 465 l 361 465 q 508 517 457 465 q 558 651 558 569 q 349 839 558 839 l 219 839 m 596 1226 l 424 1010 l 328 1010 l 465 1226 l 596 1226 z "},"ŕ":{"ha":453,"x_min":100,"x_max":501,"o":"m 210 704 l 210 581 q 401 711 265 711 q 440 708 426 711 l 440 600 q 381 610 411 610 q 258 542 307 610 q 210 385 210 474 l 210 0 l 100 0 l 101 704 l 210 704 m 501 994 l 329 778 l 233 778 l 371 994 l 501 994 z "},"Ŗ":{"ha":761,"x_min":107,"x_max":729,"o":"m 365 369 l 219 369 l 219 0 l 107 0 l 107 936 l 342 936 q 588 860 504 936 q 672 649 672 783 q 621 483 669 551 q 483 388 572 415 l 729 0 l 594 0 l 365 369 m 219 839 l 219 465 l 361 465 q 508 517 457 465 q 558 651 558 569 q 349 839 558 839 l 219 839 m 218 -337 l 336 -71 l 463 -71 l 308 -337 l 218 -337 z "},"ŗ":{"ha":453,"x_min":-28,"x_max":440,"o":"m 210 704 l 210 581 q 401 711 265 711 q 440 708 426 711 l 440 600 q 381 610 411 610 q 258 542 307 610 q 210 385 210 474 l 210 0 l 100 0 l 101 704 l 210 704 m -28 -337 l 89 -71 l 217 -71 l 63 -337 l -28 -337 z "},"Ř":{"ha":761,"x_min":107,"x_max":729,"o":"m 365 369 l 219 369 l 219 0 l 107 0 l 107 936 l 342 936 q 588 860 504 936 q 672 649 672 783 q 621 483 669 551 q 483 388 572 415 l 729 0 l 594 0 l 365 369 m 219 839 l 219 465 l 361 465 q 508 517 457 465 q 558 651 558 569 q 349 839 558 839 l 219 839 m 439 1008 l 333 1008 l 157 1225 l 268 1225 l 388 1079 l 504 1225 l 615 1225 l 439 1008 z "},"ř":{"ha":453,"x_min":51,"x_max":510,"o":"m 210 704 l 210 581 q 401 711 265 711 q 440 708 426 711 l 440 600 q 381 610 411 610 q 258 542 307 610 q 210 385 210 474 l 210 0 l 100 0 l 101 704 l 210 704 m 333 776 l 228 776 l 51 993 l 163 993 l 282 847 l 399 993 l 510 993 l 333 776 z "},"Ś":{"ha":728,"x_min":92,"x_max":649,"o":"m 597 783 q 411 839 513 839 q 260 799 310 839 q 210 696 210 760 q 269 586 210 628 q 381 527 314 557 q 472 485 447 497 q 537 448 497 474 q 597 397 576 422 q 649 249 649 335 q 564 58 649 125 q 339 -10 479 -10 q 96 50 199 -10 l 96 171 q 343 94 197 94 q 481 133 431 94 q 531 246 531 172 q 481 344 531 307 q 351 417 425 386 q 247 465 278 449 q 172 514 215 482 q 92 694 92 578 q 177 877 92 810 q 388 944 263 944 q 597 901 513 944 l 597 783 m 343 1008 l 481 1225 l 611 1225 l 439 1008 l 343 1008 z "},"ś":{"ha":572,"x_min":78,"x_max":529,"o":"m 310 615 q 222 590 254 615 q 189 531 189 564 q 199 480 189 499 q 236 443 208 461 q 347 390 269 422 q 475 311 425 357 q 525 181 525 265 q 462 44 525 97 q 280 -8 399 -8 q 82 35 161 -8 l 82 142 q 282 86 175 86 q 379 111 346 86 q 413 183 413 136 q 376 257 413 229 q 256 317 339 285 q 126 396 174 350 q 78 524 78 442 q 144 659 78 607 q 314 711 210 711 q 485 681 418 711 l 485 576 q 310 615 421 615 m 261 778 l 399 994 l 529 994 l 357 778 l 261 778 z "},"Ŝ":{"ha":728,"x_min":92,"x_max":649,"o":"m 304 1225 l 410 1225 l 586 1008 l 475 1008 l 357 1154 l 239 1008 l 128 1008 l 304 1225 m 597 783 q 411 839 513 839 q 260 799 310 839 q 210 696 210 760 q 269 586 210 628 q 381 527 314 557 q 472 485 447 497 q 537 448 497 474 q 597 397 576 422 q 649 249 649 335 q 564 58 649 125 q 339 -10 479 -10 q 96 50 199 -10 l 96 171 q 343 94 197 94 q 481 133 431 94 q 531 246 531 172 q 481 344 531 307 q 351 417 425 386 q 247 465 278 449 q 172 514 215 482 q 92 694 92 578 q 177 877 92 810 q 388 944 263 944 q 597 901 513 944 l 597 783 z "},"ŝ":{"ha":572,"x_min":78,"x_max":540,"o":"m 258 994 l 364 994 l 540 778 l 429 778 l 311 924 l 193 778 l 82 778 l 258 994 m 310 615 q 222 590 254 615 q 189 531 189 564 q 199 480 189 499 q 236 443 208 461 q 347 390 269 422 q 475 311 425 357 q 525 181 525 265 q 462 44 525 97 q 280 -8 399 -8 q 82 35 161 -8 l 82 142 q 282 86 175 86 q 379 111 346 86 q 413 183 413 136 q 376 257 413 229 q 256 317 339 285 q 126 396 174 350 q 78 524 78 442 q 144 659 78 607 q 314 711 210 711 q 485 681 418 711 l 485 576 q 310 615 421 615 z "},"Ş":{"ha":728,"x_min":92,"x_max":649,"o":"m 410 -71 q 435 -175 435 -106 q 381 -296 435 -244 q 226 -350 328 -347 l 226 -269 q 343 -171 343 -261 q 311 -71 343 -124 l 410 -71 m 597 783 q 411 839 513 839 q 260 799 310 839 q 210 696 210 760 q 269 586 210 628 q 381 527 314 557 q 472 485 447 497 q 537 448 497 474 q 597 397 576 422 q 649 249 649 335 q 564 58 649 125 q 339 -10 479 -10 q 96 50 199 -10 l 96 171 q 343 94 197 94 q 481 133 431 94 q 531 246 531 172 q 481 344 531 307 q 351 417 425 386 q 247 465 278 449 q 172 514 215 482 q 92 694 92 578 q 177 877 92 810 q 388 944 263 944 q 597 901 513 944 l 597 783 z "},"ş":{"ha":572,"x_min":78,"x_max":525,"o":"m 360 -71 q 385 -175 385 -106 q 331 -296 385 -244 q 176 -350 278 -347 l 176 -269 q 293 -171 293 -261 q 261 -71 293 -124 l 360 -71 m 310 615 q 222 590 254 615 q 189 531 189 564 q 199 480 189 499 q 236 443 208 461 q 347 390 269 422 q 475 311 425 357 q 525 181 525 265 q 462 44 525 97 q 280 -8 399 -8 q 82 35 161 -8 l 82 142 q 282 86 175 86 q 379 111 346 86 q 413 183 413 136 q 376 257 413 229 q 256 317 339 285 q 126 396 174 350 q 78 524 78 442 q 144 659 78 607 q 314 711 210 711 q 485 681 418 711 l 485 576 q 310 615 421 615 z "},"Š":{"ha":728,"x_min":92,"x_max":649,"o":"m 418 1008 l 313 1008 l 136 1225 l 247 1225 l 367 1079 l 483 1225 l 594 1225 l 418 1008 m 597 783 q 411 839 513 839 q 260 799 310 839 q 210 696 210 760 q 269 586 210 628 q 381 527 314 557 q 472 485 447 497 q 537 448 497 474 q 597 397 576 422 q 649 249 649 335 q 564 58 649 125 q 339 -10 479 -10 q 96 50 199 -10 l 96 171 q 343 94 197 94 q 481 133 431 94 q 531 246 531 172 q 481 344 531 307 q 351 417 425 386 q 247 465 278 449 q 172 514 215 482 q 92 694 92 578 q 177 877 92 810 q 388 944 263 944 q 597 901 513 944 l 597 783 z "},"š":{"ha":572,"x_min":78,"x_max":550,"o":"m 374 778 l 268 778 l 92 994 l 203 994 l 322 849 l 439 994 l 550 994 l 374 778 m 310 615 q 222 590 254 615 q 189 531 189 564 q 199 480 189 499 q 236 443 208 461 q 347 390 269 422 q 475 311 425 357 q 525 181 525 265 q 462 44 525 97 q 280 -8 399 -8 q 82 35 161 -8 l 82 142 q 282 86 175 86 q 379 111 346 86 q 413 183 413 136 q 376 257 413 229 q 256 317 339 285 q 126 396 174 350 q 78 524 78 442 q 144 659 78 607 q 314 711 210 711 q 485 681 418 711 l 485 576 q 310 615 421 615 z "},"Ţ":{"ha":669,"x_min":25,"x_max":643,"o":"m 643 936 l 643 838 l 390 838 l 390 0 l 278 0 l 278 838 l 25 838 l 25 936 l 643 936 m 146 -337 l 263 -71 l 390 -71 l 236 -337 l 146 -337 z "},"ţ":{"ha":513,"x_min":31,"x_max":454,"o":"m 253 615 l 253 203 q 358 90 253 90 q 454 122 413 90 l 454 18 q 351 -7 408 -7 q 143 206 143 -7 l 143 615 l 31 615 l 31 704 l 143 704 l 143 879 l 253 879 l 253 704 l 447 704 l 447 615 l 253 615 m 79 -337 l 196 -71 l 324 -71 l 168 -337 l 79 -337 z "},"Ť":{"ha":669,"x_min":25,"x_max":643,"o":"m 643 936 l 643 838 l 390 838 l 390 0 l 278 0 l 278 838 l 25 838 l 25 936 l 643 936 m 388 1010 l 282 1010 l 106 1226 l 217 1226 l 336 1081 l 453 1226 l 564 1226 l 388 1010 z "},"ť":{"ha":513,"x_min":31,"x_max":579,"o":"m 253 615 l 253 203 q 358 90 253 90 q 454 122 413 90 l 454 18 q 351 -7 408 -7 q 143 206 143 -7 l 143 615 l 31 615 l 31 704 l 143 704 l 143 879 l 253 879 l 253 704 l 447 704 l 447 615 l 253 615 m 579 1056 l 425 788 l 335 788 l 453 1056 l 579 1056 z "},"Ŧ":{"ha":669,"x_min":25,"x_max":643,"o":"m 643 838 l 390 838 l 390 503 l 554 503 l 554 414 l 390 414 l 390 0 l 278 0 l 278 414 l 114 414 l 114 503 l 278 503 l 278 838 l 25 838 l 25 936 l 643 936 l 643 838 z "},"ŧ":{"ha":524,"x_min":36,"x_max":460,"o":"m 260 363 l 260 203 q 364 90 260 90 q 460 122 418 90 l 460 18 q 357 -7 417 -7 q 149 206 149 -7 l 149 363 l 36 363 l 36 443 l 149 443 l 149 618 l 36 618 l 36 704 l 149 704 l 149 879 l 260 879 l 260 704 l 453 704 l 453 618 l 260 618 l 260 443 l 454 443 l 454 363 l 260 363 z "},"Ũ":{"ha":896,"x_min":106,"x_max":790,"o":"m 554 1050 q 458 1081 517 1050 q 376 1111 399 1111 q 282 1044 319 1111 l 222 1096 q 280 1166 242 1138 q 361 1194 318 1194 q 464 1164 404 1194 q 549 1133 524 1133 q 624 1193 596 1133 l 692 1146 q 554 1050 647 1050 m 678 353 l 678 936 l 790 936 l 790 356 q 699 82 790 175 q 447 -11 608 -11 q 196 80 286 -11 q 106 344 106 171 l 106 936 l 218 936 l 218 346 q 280 156 218 217 q 446 94 342 94 q 678 353 678 94 z "},"ũ":{"ha":750,"x_min":93,"x_max":649,"o":"m 539 704 l 649 704 l 649 0 l 539 0 l 539 122 q 318 -8 483 -8 q 153 53 214 -8 q 93 219 93 115 l 93 704 l 203 704 l 203 247 q 242 131 203 171 q 358 90 281 90 q 487 151 435 90 q 539 317 539 213 l 539 704 m 475 813 q 378 843 438 813 q 297 874 319 874 q 203 807 240 874 l 143 858 q 201 928 163 900 q 282 957 239 957 q 385 926 325 957 q 469 896 444 896 q 544 956 517 896 l 613 908 q 475 813 568 813 z "},"Ū":{"ha":896,"x_min":106,"x_max":790,"o":"m 649 1079 l 257 1079 l 257 1157 l 649 1157 l 649 1079 m 678 353 l 678 936 l 790 936 l 790 356 q 699 82 790 175 q 447 -11 608 -11 q 196 80 286 -11 q 106 344 106 171 l 106 936 l 218 936 l 218 346 q 280 156 218 217 q 446 94 342 94 q 678 353 678 94 z "},"ū":{"ha":750,"x_min":93,"x_max":649,"o":"m 539 704 l 649 704 l 649 0 l 539 0 l 539 122 q 318 -8 483 -8 q 153 53 214 -8 q 93 219 93 115 l 93 704 l 203 704 l 203 247 q 242 131 203 171 q 358 90 281 90 q 487 151 435 90 q 539 317 539 213 l 539 704 m 567 925 l 567 847 l 175 847 l 175 925 l 567 925 z "},"Ŭ":{"ha":896,"x_min":106,"x_max":790,"o":"m 678 353 l 678 936 l 790 936 l 790 356 q 699 82 790 175 q 447 -11 608 -11 q 196 80 286 -11 q 106 344 106 171 l 106 936 l 218 936 l 218 346 q 280 156 218 217 q 446 94 342 94 q 678 353 678 94 m 224 1225 l 314 1225 q 347 1122 314 1161 q 452 1083 381 1083 q 557 1122 524 1083 q 590 1225 590 1161 l 681 1225 q 624 1064 681 1124 q 453 1004 567 1004 q 281 1064 339 1004 q 224 1225 224 1124 z "},"ŭ":{"ha":750,"x_min":93,"x_max":649,"o":"m 539 704 l 649 704 l 649 0 l 539 0 l 539 122 q 318 -8 483 -8 q 153 53 214 -8 q 93 219 93 115 l 93 704 l 203 704 l 203 247 q 242 131 203 171 q 358 90 281 90 q 487 151 435 90 q 539 317 539 213 l 539 704 m 517 994 l 607 994 q 550 833 607 893 q 379 774 493 774 q 208 833 265 774 q 150 994 150 893 l 240 994 q 274 892 240 931 q 378 853 307 853 q 483 892 450 853 q 517 994 517 931 z "},"Ů":{"ha":896,"x_min":106,"x_max":790,"o":"m 678 353 l 678 936 l 790 936 l 790 356 q 699 82 790 175 q 447 -11 608 -11 q 196 80 286 -11 q 106 344 106 171 l 106 936 l 218 936 l 218 346 q 280 156 218 217 q 446 94 342 94 q 678 353 678 94 m 452 1218 q 436 1218 452 1218 q 399 1197 421 1218 q 378 1144 378 1175 q 399 1090 378 1113 q 451 1068 421 1068 q 504 1090 482 1068 q 526 1144 526 1113 q 505 1197 526 1175 q 452 1218 483 1218 m 347 1038 q 326 1059 347 1038 q 304 1142 304 1081 q 347 1247 304 1203 q 451 1290 390 1290 q 556 1247 513 1290 q 599 1142 599 1203 q 556 1038 599 1081 q 451 994 513 994 q 347 1038 390 994 z "},"ů":{"ha":750,"x_min":93,"x_max":649,"o":"m 539 704 l 649 704 l 649 0 l 539 0 l 539 122 q 318 -8 483 -8 q 153 53 214 -8 q 93 219 93 115 l 93 704 l 203 704 l 203 247 q 242 131 203 171 q 358 90 281 90 q 487 151 435 90 q 539 317 539 213 l 539 704 m 486 807 q 465 785 486 807 q 382 764 443 764 q 278 807 321 764 q 235 911 235 850 q 278 1016 235 972 q 382 1060 321 1060 q 486 1016 443 1060 q 529 911 529 972 q 486 807 529 850 m 457 913 q 457 929 457 913 q 435 966 457 944 q 383 988 414 988 q 330 966 351 988 q 308 913 308 944 q 330 860 308 882 q 382 838 351 838 q 435 860 413 838 q 457 913 457 882 z "},"Ű":{"ha":896,"x_min":106,"x_max":790,"o":"m 293 1010 l 426 1226 l 554 1226 l 378 1010 l 293 1010 m 510 1010 l 650 1226 l 781 1226 l 594 1010 l 510 1010 m 678 353 l 678 936 l 790 936 l 790 356 q 699 82 790 175 q 447 -11 608 -11 q 196 80 286 -11 q 106 344 106 171 l 106 936 l 218 936 l 218 346 q 280 156 218 217 q 446 94 342 94 q 678 353 678 94 z "},"ű":{"ha":750,"x_min":93,"x_max":713,"o":"m 539 317 l 539 704 l 649 704 l 649 0 l 539 0 l 539 122 q 318 -8 483 -8 q 153 53 214 -8 q 93 219 93 115 l 93 704 l 203 704 l 203 247 q 242 131 203 171 q 358 90 281 90 q 487 151 435 90 q 539 317 539 213 m 486 994 l 310 778 l 225 778 l 358 994 l 486 994 m 526 778 l 442 778 l 582 994 l 713 994 l 526 778 z "},"Ų":{"ha":896,"x_min":106,"x_max":790,"o":"m 678 936 l 790 936 l 790 356 q 582 10 790 78 q 426 -164 426 -68 q 451 -225 426 -204 q 523 -246 475 -246 q 611 -215 571 -246 l 611 -300 q 494 -326 567 -326 q 376 -283 421 -326 q 332 -174 332 -240 q 415 -10 332 -86 q 188 89 269 -1 q 106 344 106 179 l 106 936 l 218 936 l 218 346 q 280 156 218 217 q 446 94 342 94 q 678 353 678 94 l 678 936 z "},"ų":{"ha":750,"x_min":93,"x_max":676,"o":"m 649 704 l 649 0 q 492 -174 492 -78 q 516 -235 492 -214 q 588 -256 540 -256 q 676 -225 636 -256 l 676 -310 q 559 -336 632 -336 q 442 -293 486 -336 q 397 -185 397 -250 q 437 -67 397 -121 q 539 22 476 -14 l 539 122 q 318 -8 483 -8 q 153 53 214 -8 q 93 219 93 115 l 93 704 l 203 704 l 203 247 q 242 131 203 171 q 358 90 281 90 q 487 151 435 90 q 539 317 539 213 l 539 704 l 649 704 z "},"Ŵ":{"ha":1303,"x_min":50,"x_max":1253,"o":"m 607 1226 l 713 1226 l 889 1010 l 778 1010 l 660 1156 l 542 1010 l 431 1010 l 607 1226 m 600 922 l 713 922 l 815 589 l 957 114 q 1139 936 1010 365 l 1253 936 l 1033 0 l 889 0 l 658 764 q 438 0 618 610 l 294 0 l 50 936 l 168 936 l 256 589 l 371 118 q 600 922 450 410 z "},"ŵ":{"ha":1100,"x_min":35,"x_max":1065,"o":"m 493 994 l 599 994 l 775 778 l 664 778 l 546 924 l 428 778 l 317 778 l 493 994 m 251 0 l 35 704 l 151 704 q 318 107 289 235 q 486 704 333 175 l 603 704 l 775 106 q 953 704 793 179 l 1065 704 l 843 0 l 708 0 l 642 231 l 544 582 q 386 0 528 514 l 251 0 z "},"Ŷ":{"ha":824,"x_min":36,"x_max":788,"o":"m 467 0 l 354 0 l 354 347 l 36 936 l 167 936 q 410 450 385 514 q 657 936 417 471 l 788 936 l 467 349 l 467 0 m 411 1154 l 293 1008 l 182 1008 l 358 1225 l 464 1225 l 640 1008 l 529 1008 l 411 1154 z "},"ŷ":{"ha":685,"x_min":11,"x_max":661,"o":"m 108 -242 q 50 -235 72 -242 l 50 -136 q 97 -142 71 -142 q 296 18 238 -142 l 11 704 l 135 704 l 350 153 q 543 704 361 192 l 661 704 l 407 18 q 278 -183 353 -125 q 108 -242 204 -242 m 286 994 l 392 994 l 568 778 l 457 778 l 339 924 l 221 778 l 110 778 l 286 994 z "},"Ÿ":{"ha":824,"x_min":36,"x_max":788,"o":"m 467 0 l 354 0 l 354 347 l 36 936 l 167 936 q 410 450 385 514 q 657 936 417 471 l 788 936 l 467 349 l 467 0 m 324 1067 q 314 1056 324 1067 q 274 1046 304 1046 q 222 1067 243 1046 q 201 1118 201 1088 q 222 1169 201 1149 q 274 1189 243 1189 q 324 1169 304 1189 q 344 1118 344 1149 q 324 1067 344 1088 m 604 1067 q 594 1056 604 1067 q 553 1046 583 1046 q 502 1067 522 1046 q 482 1118 482 1088 q 502 1169 482 1149 q 553 1189 522 1189 q 604 1169 583 1189 q 625 1118 625 1149 q 604 1067 625 1088 z "},"Ź":{"ha":790,"x_min":72,"x_max":718,"o":"m 697 936 l 697 844 l 203 96 l 718 96 l 718 0 l 72 0 l 72 93 l 567 840 l 79 840 l 79 936 l 697 936 m 365 1010 l 503 1226 l 633 1226 l 461 1010 l 365 1010 z "},"ź":{"ha":629,"x_min":61,"x_max":568,"o":"m 549 704 l 549 624 l 188 99 l 568 99 l 568 0 l 61 0 l 61 86 l 418 607 l 75 607 l 75 704 l 549 704 m 278 778 l 415 994 l 546 994 l 374 778 l 278 778 z "},"Ż":{"ha":790,"x_min":72,"x_max":718,"o":"m 354 1071 q 344 1081 354 1071 q 333 1122 333 1092 q 354 1173 333 1153 q 406 1193 375 1193 q 456 1173 436 1193 q 476 1122 476 1153 q 456 1071 476 1092 q 406 1050 436 1050 q 354 1071 375 1050 m 697 936 l 697 844 l 203 96 l 718 96 l 718 0 l 72 0 l 72 93 l 567 840 l 79 840 l 79 936 l 697 936 z "},"ż":{"ha":629,"x_min":61,"x_max":568,"o":"m 286 835 q 276 845 286 835 q 265 886 265 856 q 286 937 265 917 q 338 957 307 957 q 388 937 368 957 q 408 886 408 917 q 388 835 408 856 q 338 814 368 814 q 286 835 307 814 m 549 704 l 549 624 l 188 99 l 568 99 l 568 0 l 61 0 l 61 86 l 418 607 l 75 607 l 75 704 l 549 704 z "},"Ž":{"ha":790,"x_min":72,"x_max":718,"o":"m 446 1010 l 340 1010 l 164 1226 l 275 1226 l 394 1081 l 511 1226 l 622 1226 l 446 1010 m 697 936 l 697 844 l 203 96 l 718 96 l 718 0 l 72 0 l 72 93 l 567 840 l 79 840 l 79 936 l 697 936 z "},"ž":{"ha":629,"x_min":61,"x_max":568,"o":"m 389 778 l 283 778 l 107 994 l 218 994 l 338 849 l 454 994 l 565 994 l 389 778 m 549 704 l 549 624 l 188 99 l 568 99 l 568 0 l 61 0 l 61 86 l 418 607 l 75 607 l 75 704 l 549 704 z "},"ſ":{"ha":335,"x_min":103,"x_max":376,"o":"m 376 957 q 308 969 347 969 q 240 939 269 969 q 211 844 211 908 l 211 0 l 103 0 l 103 844 q 157 1007 103 947 q 310 1067 211 1067 q 376 1058 347 1067 l 376 957 z "},"ƒ":{"ha":544,"x_min":-92,"x_max":574,"o":"m 482 946 q 574 933 539 946 l 574 833 q 494 847 536 847 q 365 689 393 847 l 335 515 l 472 515 l 472 426 l 319 426 l 226 -111 q 153 -294 206 -232 q 3 -357 100 -357 q -92 -343 -54 -357 l -92 -243 q -8 -258 -54 -258 q 119 -100 90 -258 l 210 426 l 75 426 l 75 515 l 225 515 l 257 700 q 331 883 278 821 q 482 946 385 946 z "},"Ș":{"ha":728,"x_min":92,"x_max":649,"o":"m 189 -337 l 306 -71 l 433 -71 l 279 -337 l 189 -337 m 597 783 q 411 839 513 839 q 260 799 310 839 q 210 696 210 760 q 269 586 210 628 q 381 527 314 557 q 472 485 447 497 q 537 448 497 474 q 597 397 576 422 q 649 249 649 335 q 564 58 649 125 q 339 -10 479 -10 q 96 50 199 -10 l 96 171 q 343 94 197 94 q 481 133 431 94 q 531 246 531 172 q 481 344 531 307 q 351 417 425 386 q 247 465 278 449 q 172 514 215 482 q 92 694 92 578 q 177 877 92 810 q 388 944 263 944 q 597 901 513 944 l 597 783 z "},"ș":{"ha":572,"x_min":78,"x_max":525,"o":"m 310 615 q 222 590 254 615 q 189 531 189 564 q 199 480 189 499 q 236 443 208 461 q 347 390 269 422 q 475 311 425 357 q 525 181 525 265 q 462 44 525 97 q 280 -8 399 -8 q 82 35 161 -8 l 82 142 q 282 86 175 86 q 379 111 346 86 q 413 183 413 136 q 376 257 413 229 q 256 317 339 285 q 126 396 174 350 q 78 524 78 442 q 144 659 78 607 q 314 711 210 711 q 485 681 418 711 l 485 576 q 310 615 421 615 m 121 -337 l 238 -71 l 365 -71 l 211 -337 l 121 -337 z "},"Ț":{"ha":669,"x_min":25,"x_max":643,"o":"m 25 936 l 643 936 l 643 838 l 390 838 l 390 0 l 278 0 l 278 838 l 25 838 l 25 936 m 150 -337 l 267 -71 l 394 -71 l 240 -337 l 150 -337 z "},"ț":{"ha":513,"x_min":31,"x_max":454,"o":"m 253 615 l 253 203 q 358 90 253 90 q 454 122 413 90 l 454 18 q 351 -7 408 -7 q 143 206 143 -7 l 143 615 l 31 615 l 31 704 l 143 704 l 143 879 l 253 879 l 253 704 l 447 704 l 447 615 l 253 615 m 156 -337 l 272 -71 l 400 -71 l 246 -337 l 156 -337 z "},"ȷ":{"ha":317,"x_min":-64,"x_max":217,"o":"m 31 -175 q 108 -74 108 -175 l 108 704 l 217 704 l 217 -76 q 169 -219 217 -168 q 36 -271 121 -271 q -64 -250 -10 -271 l -64 -153 q 31 -175 -11 -175 z "},"ʼ":{"ha":251,"x_min":29,"x_max":282,"o":"m 29 654 l 146 965 l 282 965 l 115 654 l 29 654 z "},"ˆ":{"ha":585,"x_min":63,"x_max":521,"o":"m 239 1108 l 344 1108 l 521 892 l 410 892 l 292 1038 l 174 892 l 63 892 l 239 1108 z "},"ˇ":{"ha":585,"x_min":63,"x_max":521,"o":"m 344 892 l 239 892 l 63 1108 l 174 1108 l 293 963 l 410 1108 l 521 1108 l 344 892 z "},"ˉ":{"ha":585,"x_min":96,"x_max":488,"o":"m 488 963 l 96 963 l 96 1040 l 488 1040 l 488 963 z "},"˘":{"ha":585,"x_min":64,"x_max":521,"o":"m 64 1108 l 154 1108 q 188 1006 154 1044 q 292 967 221 967 q 397 1006 364 967 q 431 1108 431 1044 l 521 1108 q 464 947 521 1007 q 293 888 407 888 q 122 947 179 888 q 64 1108 64 1007 z "},"˙":{"ha":585,"x_min":221,"x_max":364,"o":"m 242 954 q 231 965 242 954 q 221 1006 221 975 q 242 1056 221 1036 q 293 1076 263 1076 q 344 1056 324 1076 q 364 1006 364 1036 q 344 954 364 975 q 293 933 324 933 q 242 954 263 933 z "},"˚":{"ha":585,"x_min":144,"x_max":439,"o":"m 292 1076 q 276 1076 292 1076 q 240 1055 261 1076 q 218 1002 218 1033 q 240 949 218 971 q 292 926 261 926 q 344 949 322 926 q 367 1002 367 971 q 344 1055 367 1033 q 292 1076 322 1076 m 188 896 q 166 917 188 896 q 144 1000 144 939 q 188 1105 144 1061 q 292 1149 231 1149 q 396 1105 353 1149 q 439 1000 439 1061 q 396 896 439 939 q 292 853 353 853 q 188 896 231 853 z "},"˛":{"ha":585,"x_min":153,"x_max":432,"o":"m 432 -294 q 315 -321 388 -321 q 197 -278 242 -321 q 153 -161 153 -235 q 216 -24 153 -87 q 361 68 279 40 l 404 15 q 247 -158 247 -62 q 272 -219 247 -199 q 344 -240 296 -240 q 432 -210 392 -240 l 432 -294 z "},"˜":{"ha":585,"x_min":69,"x_max":539,"o":"m 401 914 q 305 944 364 914 q 224 975 246 975 q 129 908 167 975 l 69 960 q 127 1030 89 1001 q 208 1058 165 1058 q 311 1028 251 1058 q 396 997 371 997 q 471 1057 443 997 l 539 1010 q 401 914 494 914 z "},"˝":{"ha":585,"x_min":49,"x_max":536,"o":"m 49 892 l 182 1108 l 310 1108 l 133 892 l 49 892 m 265 892 l 406 1108 l 536 1108 l 350 892 l 265 892 z "},"π":{"ha":808,"x_min":33,"x_max":783,"o":"m 783 704 l 783 615 l 651 615 l 651 0 l 542 0 l 542 615 l 276 615 l 276 229 q 220 51 276 103 q 57 0 164 0 l 57 96 q 142 122 118 96 q 167 225 167 149 l 167 615 l 33 615 l 33 704 l 783 704 z "},"ँ":{"ha":0,"x_min":-439,"x_max":61,"o":"m -188 1250 q -204 1250 -188 1250 q -239 1269 -219 1250 q -258 1320 -258 1289 q -238 1372 -258 1351 q -187 1393 -218 1393 q -136 1372 -157 1393 q -115 1321 -115 1351 q -136 1270 -115 1290 q -188 1250 -157 1250 m 61 1244 q -12 1083 61 1140 q -190 1026 -85 1026 q -367 1082 -296 1026 q -439 1244 -439 1138 l -331 1244 q -293 1150 -331 1188 q -189 1113 -256 1113 q -84 1150 -122 1113 q -46 1244 -46 1188 l 61 1244 z "},"ं":{"ha":0,"x_min":-262,"x_max":-111,"o":"m -241 1035 q -252 1045 -241 1035 q -262 1088 -262 1056 q -241 1142 -262 1119 q -187 1164 -219 1164 q -133 1142 -156 1164 q -111 1088 -111 1119 q -133 1035 -111 1056 q -187 1014 -156 1014 q -241 1035 -219 1014 z "},"ः":{"ha":414,"x_min":83,"x_max":233,"o":"m 104 164 q 94 174 104 164 q 83 217 83 185 q 104 271 83 249 q 157 293 125 293 q 211 271 189 293 q 233 217 233 249 q 211 164 233 185 q 157 143 189 143 q 104 164 125 143 m 104 619 q 94 630 104 619 q 83 672 83 640 q 104 726 83 704 q 157 747 125 747 q 211 726 189 747 q 233 672 233 704 q 211 619 233 640 q 157 597 189 597 q 104 619 125 597 z "},"अ":{"ha":915,"x_min":42,"x_max":946,"o":"m 946 892 l 946 799 l 785 799 l 785 0 l 676 0 l 676 361 l 485 361 q 486 331 486 351 q 413 164 486 228 q 211 100 340 100 q 42 133 121 100 l 42 236 q 202 193 128 193 q 327 228 276 193 q 378 332 378 264 q 204 467 378 467 l 157 467 l 157 564 l 201 564 q 313 596 275 564 q 350 682 350 628 q 219 796 350 796 q 85 763 146 796 l 85 865 q 221 890 144 890 q 397 838 335 890 q 458 705 458 785 q 423 579 458 625 q 331 518 388 533 q 444 456 401 508 l 676 456 l 676 799 l 550 799 l 550 892 l 946 892 z "},"आ":{"ha":1283,"x_min":42,"x_max":1314,"o":"m 1314 892 l 1314 799 l 1153 799 l 1153 0 l 1044 0 l 1044 799 l 785 799 l 785 0 l 676 0 l 676 361 l 485 361 q 486 331 486 351 q 413 164 486 228 q 211 100 340 100 q 42 133 121 100 l 42 236 q 202 193 128 193 q 327 228 276 193 q 378 332 378 264 q 204 467 378 467 l 157 467 l 157 564 l 201 564 q 313 596 275 564 q 350 682 350 628 q 219 796 350 796 q 85 763 146 796 l 85 865 q 221 890 144 890 q 397 838 335 890 q 458 705 458 785 q 423 579 458 625 q 331 518 388 533 q 444 456 401 508 l 676 456 l 676 799 l 550 799 l 550 892 l 1314 892 z "},"इ":{"ha":668,"x_min":-31,"x_max":699,"o":"m 549 592 l 326 592 q 235 569 268 592 q 201 506 201 547 q 242 444 201 464 q 375 417 282 424 q 626 219 626 401 q 560 69 626 131 q 385 8 494 8 q 199 76 275 8 l 199 -83 l 92 -83 l 92 233 l 190 233 q 267 137 213 175 q 384 99 322 99 q 482 132 446 99 q 518 218 518 165 q 357 325 518 315 q 92 503 92 338 q 156 636 92 588 q 324 685 219 685 l 439 685 l 439 799 l -31 799 l -31 892 l 699 892 l 699 799 l 549 799 l 549 592 z "},"ई":{"ha":668,"x_min":-31,"x_max":699,"o":"m 546 592 l 326 592 q 235 569 268 592 q 201 506 201 547 q 242 444 201 464 q 375 417 282 424 q 626 219 626 401 q 560 69 626 131 q 385 8 494 8 q 199 76 275 8 l 199 -83 l 92 -83 l 92 233 l 190 233 q 267 137 213 175 q 384 99 322 99 q 482 132 446 99 q 518 218 518 165 q 357 325 518 315 q 92 503 92 338 q 156 636 92 588 q 324 685 219 685 l 436 685 l 436 799 l -31 799 l -31 892 l 407 892 q 361 1025 361 946 q 416 1160 361 1104 q 563 1215 471 1215 q 661 1196 619 1215 l 661 1097 q 569 1118 617 1118 q 497 1090 522 1118 q 471 1006 471 1061 q 524 892 471 950 l 699 892 l 699 799 l 546 799 l 546 592 z "},"उ":{"ha":594,"x_min":-31,"x_max":626,"o":"m 626 892 l 626 799 l 446 799 q 494 669 494 746 q 350 481 494 521 q 484 418 426 474 q 542 262 542 363 q 461 94 542 161 q 233 26 381 26 q 42 63 138 26 l 42 163 q 225 119 131 119 q 376 159 319 119 q 432 275 432 199 q 374 392 432 351 q 218 432 315 432 l 154 432 l 154 526 l 218 526 q 385 669 385 526 q 326 799 385 746 l -31 799 l -31 892 l 626 892 z "},"ऊ":{"ha":963,"x_min":-31,"x_max":992,"o":"m 992 892 l 992 799 l 446 799 q 494 669 494 746 q 350 481 494 521 q 483 418 431 474 q 558 521 503 481 q 679 561 613 561 q 860 493 797 561 q 924 308 924 425 q 857 117 924 192 q 678 42 790 42 q 646 46 658 42 l 646 136 q 669 133 653 133 q 778 178 740 133 q 815 302 815 224 q 781 425 815 381 q 681 469 747 469 q 578 414 615 469 q 542 279 542 358 l 542 272 q 461 94 542 161 q 233 26 381 26 q 42 63 138 26 l 42 163 q 225 119 131 119 q 376 159 319 119 q 432 275 432 199 q 374 392 432 351 q 218 432 315 432 l 154 432 l 154 526 l 218 526 q 385 669 385 526 q 326 799 385 746 l -31 799 l -31 892 l 992 892 z "},"ऋ":{"ha":1135,"x_min":-31,"x_max":1167,"o":"m 614 799 l 614 482 l 808 594 l 808 674 l 908 674 l 908 547 q 1031 431 908 431 l 1043 431 l 1043 340 l 985 340 q 890 312 922 340 q 857 237 857 283 q 890 167 857 190 q 988 143 922 143 q 1099 175 1053 143 l 1099 82 q 969 53 1053 53 q 818 99 886 53 q 750 231 750 146 q 785 334 750 289 q 881 399 819 379 q 814 493 828 424 l 614 376 l 614 0 l 504 0 l 504 321 l 71 60 l 71 172 l 382 357 q 315 490 360 442 q 194 538 271 538 q 54 507 118 538 l 54 611 q 202 639 114 639 q 363 583 290 639 q 469 410 436 526 l 504 431 l 504 799 l -31 799 l -31 892 l 1167 892 l 1167 799 l 614 799 z "},"ऌ":{"ha":1057,"x_min":-31,"x_max":1088,"o":"m 924 799 l 924 232 q 804 196 843 231 q 765 114 765 161 q 799 39 765 67 q 895 11 833 11 q 1015 33 957 11 l 1015 -57 q 901 -76 957 -76 q 726 -27 794 -76 q 658 114 658 22 q 699 228 658 181 q 814 294 740 276 l 814 544 q 718 568 769 568 q 568 392 568 568 l 568 292 l 460 292 l 460 394 q 338 560 460 560 q 236 509 276 560 q 196 352 196 458 q 257 169 196 246 q 436 92 318 92 q 501 101 476 92 l 501 10 q 421 0 465 0 q 179 103 271 0 q 88 365 88 207 q 153 572 88 492 q 326 651 218 651 q 452 617 403 651 q 515 521 501 582 q 710 657 547 657 q 814 638 763 657 l 814 799 l -31 799 l -31 892 l 1088 892 l 1088 799 l 924 799 z "},"ऍ":{"ha":771,"x_min":-31,"x_max":801,"o":"m 801 892 l 801 799 l 679 799 l 679 596 q 619 440 679 499 q 451 382 560 382 q 389 390 417 382 l 389 481 q 443 472 410 472 q 571 601 571 472 l 571 799 l 226 799 l 226 360 q 468 139 226 139 q 664 183 579 139 l 664 83 q 460 47 578 47 q 211 123 304 47 q 118 358 118 199 l 118 799 l -31 799 l -31 892 l 801 892 m 549 1244 l 656 1244 q 584 1083 656 1140 q 407 1026 513 1026 q 231 1082 301 1026 q 161 1244 161 1138 l 269 1244 q 306 1149 269 1186 q 408 1113 342 1113 q 512 1149 475 1113 q 549 1244 549 1186 z "},"ऎ":{"ha":771,"x_min":-31,"x_max":801,"o":"m 801 892 l 801 799 l 679 799 l 679 596 q 619 440 679 499 q 451 382 560 382 q 389 390 417 382 l 389 481 q 443 472 410 472 q 571 601 571 472 l 571 799 l 226 799 l 226 360 q 468 139 226 139 q 664 183 579 139 l 664 83 q 460 47 578 47 q 211 123 304 47 q 118 358 118 199 l 118 799 l -31 799 l -31 892 l 571 892 q 546 988 569 954 q 463 1022 522 1022 l 386 1022 q 220 1072 278 1022 q 163 1244 163 1122 l 271 1244 q 299 1143 271 1172 q 392 1114 328 1114 l 467 1114 q 679 892 679 1114 l 801 892 z "},"ए":{"ha":771,"x_min":-31,"x_max":801,"o":"m 801 892 l 801 799 l 679 799 l 679 596 q 619 440 679 499 q 451 382 560 382 q 389 390 417 382 l 389 481 q 443 472 410 472 q 571 601 571 472 l 571 799 l 226 799 l 226 360 q 468 139 226 139 q 664 183 579 139 l 664 83 q 460 47 578 47 q 211 123 304 47 q 118 358 118 199 l 118 799 l -31 799 l -31 892 l 801 892 z "},"ऐ":{"ha":771,"x_min":-31,"x_max":801,"o":"m 801 892 l 801 799 l 679 799 l 679 596 q 619 440 679 499 q 451 382 560 382 q 389 390 417 382 l 389 481 q 443 472 410 472 q 571 601 571 472 l 571 799 l 226 799 l 226 360 q 468 139 226 139 q 664 183 579 139 l 664 83 q 460 47 578 47 q 211 123 304 47 q 118 358 118 199 l 118 799 l -31 799 l -31 892 l 554 892 l 440 1065 q 314 1138 393 1138 q 244 1129 286 1138 l 244 1224 q 319 1232 294 1232 q 440 1202 390 1232 q 532 1107 490 1172 l 674 892 l 801 892 z "},"ऑ":{"ha":1283,"x_min":42,"x_max":1314,"o":"m 1314 892 l 1314 799 l 1153 799 l 1153 0 l 1044 0 l 1044 799 l 785 799 l 785 0 l 676 0 l 676 361 l 485 361 q 486 331 486 351 q 413 164 486 228 q 211 100 340 100 q 42 133 121 100 l 42 236 q 202 193 128 193 q 327 228 276 193 q 378 332 378 264 q 204 467 378 467 l 157 467 l 157 564 l 201 564 q 313 596 275 564 q 350 682 350 628 q 219 796 350 796 q 85 763 146 796 l 85 865 q 221 890 144 890 q 397 838 335 890 q 458 705 458 785 q 423 579 458 625 q 331 518 388 533 q 444 456 401 508 l 676 456 l 676 799 l 550 799 l 550 892 l 1314 892 m 1069 1244 l 1176 1244 q 1105 1083 1176 1140 q 928 1026 1033 1026 q 752 1082 822 1026 q 682 1244 682 1138 l 790 1244 q 826 1149 790 1186 q 929 1113 863 1113 q 1033 1150 996 1113 q 1069 1244 1069 1188 z "},"ऒ":{"ha":1285,"x_min":42,"x_max":1315,"o":"m 1154 892 l 1315 892 l 1315 799 l 1154 799 l 1154 0 l 1046 0 l 1046 799 l 785 799 l 785 0 l 676 0 l 676 361 l 485 361 q 486 331 486 351 q 413 164 486 228 q 211 100 340 100 q 42 133 121 100 l 42 236 q 202 193 128 193 q 327 228 276 193 q 378 332 378 264 q 204 467 378 467 l 157 467 l 157 564 l 201 564 q 313 596 275 564 q 350 682 350 628 q 219 796 350 796 q 85 763 146 796 l 85 865 q 221 890 144 890 q 397 838 335 890 q 458 705 458 785 q 423 579 458 625 q 331 518 388 533 q 444 456 401 508 l 676 456 l 676 799 l 550 799 l 550 892 l 1046 892 q 1021 988 1044 954 q 938 1022 997 1022 l 861 1022 q 695 1072 753 1022 q 638 1244 638 1122 l 746 1244 q 774 1143 746 1172 q 867 1114 803 1114 l 942 1114 q 1154 892 1154 1114 z "},"ओ":{"ha":1285,"x_min":42,"x_max":1304,"o":"m 1304 892 l 1304 799 l 1143 799 l 1143 0 l 1035 0 l 1035 799 l 785 799 l 785 0 l 676 0 l 676 361 l 485 361 q 486 331 486 351 q 413 164 486 228 q 211 100 340 100 q 42 133 121 100 l 42 236 q 202 193 128 193 q 327 228 276 193 q 378 332 378 264 q 204 467 378 467 l 157 467 l 157 564 l 201 564 q 313 596 275 564 q 350 682 350 628 q 219 796 350 796 q 85 763 146 796 l 85 865 q 221 890 144 890 q 397 838 335 890 q 458 705 458 785 q 423 579 458 625 q 331 518 388 533 q 444 456 401 508 l 676 456 l 676 799 l 550 799 l 550 892 l 1032 892 l 918 1065 q 792 1138 871 1138 q 722 1129 764 1138 l 722 1224 q 797 1232 772 1232 q 918 1202 868 1232 q 1010 1107 968 1172 l 1151 892 l 1304 892 z "},"औ":{"ha":1285,"x_min":42,"x_max":1315,"o":"m 1315 892 l 1315 799 l 1154 799 l 1154 0 l 1046 0 l 1046 799 l 785 799 l 785 0 l 676 0 l 676 361 l 485 361 q 486 331 486 351 q 413 164 486 228 q 211 100 340 100 q 42 133 121 100 l 42 236 q 202 193 128 193 q 327 228 276 193 q 378 332 378 264 q 204 467 378 467 l 157 467 l 157 564 l 201 564 q 313 596 275 564 q 350 682 350 628 q 219 796 350 796 q 85 763 146 796 l 85 865 q 221 890 144 890 q 397 838 335 890 q 458 705 458 785 q 423 579 458 625 q 331 518 388 533 q 444 456 401 508 l 676 456 l 676 799 l 550 799 l 550 892 l 1011 892 q 890 969 942 944 q 788 993 838 993 q 700 981 738 993 l 700 1078 q 783 1089 733 1089 q 879 1066 833 1089 q 986 990 925 1043 l 1072 914 l 944 1078 q 781 1156 883 1156 q 700 1146 739 1156 l 700 1240 q 785 1249 725 1249 q 1018 1117 933 1249 l 1163 892 l 1315 892 z "},"क":{"ha":1071,"x_min":-31,"x_max":1101,"o":"m 1101 799 l 590 799 l 590 600 q 760 667 654 667 q 938 597 867 667 q 1008 411 1008 528 q 929 222 1008 294 q 732 150 850 150 q 700 153 717 150 l 700 246 q 728 243 714 243 q 850 289 801 243 q 899 410 899 335 q 855 531 899 486 q 745 576 811 576 q 635 534 679 576 q 590 428 590 492 l 590 0 l 481 0 l 481 200 q 313 136 419 136 q 135 205 206 136 q 64 390 64 274 q 143 580 64 507 q 339 653 222 653 q 371 649 361 653 l 371 557 q 344 558 364 558 q 221 513 269 558 q 172 392 172 467 q 217 271 172 317 q 327 225 261 225 q 437 268 393 225 q 481 375 481 311 l 481 799 l -31 799 l -31 892 l 1101 892 l 1101 799 z "},"ख":{"ha":1082,"x_min":-31,"x_max":1113,"o":"m 1113 892 l 1113 799 l 953 799 l 953 0 l 843 0 l 843 250 q 680 185 779 185 q 513 249 581 185 q 444 417 444 313 q 513 584 444 521 q 679 647 581 647 q 746 640 714 647 l 746 550 q 693 557 724 557 q 592 517 633 557 q 551 413 551 476 q 591 310 551 349 q 693 272 631 272 q 799 315 756 272 q 843 425 843 357 l 843 799 l 414 799 l 414 601 q 352 447 414 503 q 188 388 290 392 l 171 386 l 476 0 l 342 0 l 43 388 l 43 478 l 136 478 q 306 613 306 478 l 306 799 l -31 799 l -31 892 l 1113 892 z "},"ग":{"ha":797,"x_min":-31,"x_max":828,"o":"m -31 892 l 828 892 l 828 799 l 667 799 l 667 0 l 560 0 l 560 799 l 317 799 l 317 474 q 272 338 317 386 q 143 290 228 290 q 42 308 86 290 l 42 404 q 126 385 83 385 q 210 478 210 385 l 210 799 l -31 799 l -31 892 z "},"घ":{"ha":892,"x_min":-31,"x_max":922,"o":"m 922 892 l 922 799 l 761 799 l 761 0 l 654 0 l 654 258 q 535 166 613 203 q 352 129 458 129 q 172 187 246 129 q 97 342 97 244 q 140 458 97 414 q 260 517 183 501 q 151 563 197 524 q 106 676 106 603 q 164 799 106 749 l -31 799 l -31 892 l 922 892 m 654 458 l 654 799 l 293 799 q 215 675 215 757 q 390 565 215 565 l 457 565 l 457 471 l 375 471 q 252 437 297 471 q 207 342 207 403 q 256 251 207 282 q 375 221 306 221 q 573 292 492 221 q 654 458 654 363 z "},"ङ":{"ha":797,"x_min":-31,"x_max":829,"o":"m -31 892 l 829 892 l 829 799 l 554 799 l 554 589 l 313 589 q 229 568 263 589 q 196 501 196 547 q 238 433 196 454 q 383 406 279 411 q 633 214 633 399 q 556 58 632 118 q 342 -1 481 -1 q 88 60 203 -1 l 88 167 q 351 90 211 90 q 476 122 431 90 q 522 209 522 154 q 481 288 522 264 q 342 315 439 311 q 86 499 86 326 q 149 635 86 588 q 308 682 211 682 l 446 682 l 446 799 l -31 799 l -31 892 m 632 481 q 632 497 632 481 q 653 533 632 513 q 705 554 674 554 q 758 533 736 554 q 779 481 779 511 q 758 429 779 450 q 704 408 736 408 q 652 429 672 408 q 632 481 632 450 z "},"च":{"ha":881,"x_min":-31,"x_max":911,"o":"m 911 892 l 911 799 l 750 799 l 750 0 l 642 0 l 642 261 q 544 174 608 208 q 377 138 479 139 q 201 199 275 138 q 128 364 128 260 q 236 538 128 485 l 39 538 l 39 631 l 514 631 l 514 538 q 299 490 363 538 q 236 372 236 442 q 281 265 236 301 q 400 228 326 228 q 577 297 513 228 q 642 454 642 365 l 642 799 l -31 799 l -31 892 l 911 892 z "},"छ":{"ha":876,"x_min":-31,"x_max":907,"o":"m 907 799 l 694 799 l 694 636 q 800 427 800 576 q 690 178 800 278 q 424 79 579 79 q 180 142 269 79 q 90 313 90 204 q 134 434 90 386 q 247 489 178 482 q 156 542 197 497 q 115 667 115 588 q 178 799 115 746 l -31 799 l -31 892 l 907 892 l 907 799 m 593 799 l 310 799 q 224 657 224 751 q 265 564 224 599 q 364 529 306 529 l 406 529 l 406 436 l 353 436 q 240 403 279 436 q 200 309 200 371 q 260 208 200 247 q 411 169 319 169 q 613 238 535 169 q 690 428 690 307 q 651 540 690 499 q 535 581 611 581 q 475 571 497 581 l 475 661 q 532 671 499 671 q 593 668 565 671 l 593 799 z "},"ज":{"ha":903,"x_min":-31,"x_max":933,"o":"m -31 892 l 933 892 l 933 799 l 772 799 l 772 0 l 664 0 l 664 533 l 385 533 q 485 338 485 474 q 409 156 485 225 q 208 88 333 88 q 42 118 117 88 l 42 218 q 197 179 117 179 q 327 223 278 179 q 376 352 376 267 q 312 485 376 438 q 133 533 247 533 l 133 626 l 664 626 l 664 799 l -31 799 l -31 892 z "},"झ":{"ha":1054,"x_min":-31,"x_max":1085,"o":"m 1085 892 l 1085 799 l 924 799 l 924 0 l 814 0 l 814 350 l 588 350 q 628 221 628 301 q 563 81 628 140 q 386 21 499 21 q 196 90 274 21 l 196 -67 l 90 -67 l 90 247 l 188 247 q 268 150 211 189 q 387 111 325 111 q 484 143 449 111 q 519 229 519 175 q 356 349 519 338 q 169 392 235 356 q 104 515 104 428 q 167 649 104 601 q 335 696 231 696 l 454 696 l 454 799 l -31 799 l -31 892 l 1085 892 m 814 439 l 814 799 l 564 799 l 564 603 l 342 603 q 214 519 214 603 q 250 464 214 479 q 392 439 286 446 l 814 439 z "},"ञ":{"ha":938,"x_min":-31,"x_max":968,"o":"m 968 892 l 968 799 l 807 799 l 807 0 l 697 0 l 697 358 l 535 358 q 446 179 525 249 q 249 109 367 110 q 31 158 131 108 l 31 261 q 225 203 126 203 q 374 253 324 203 q 424 383 424 304 q 378 508 424 461 q 263 556 333 556 q 146 536 192 556 l 146 629 q 256 647 190 647 q 440 596 369 647 q 529 451 511 544 l 697 451 l 697 799 l -31 799 l -31 892 l 968 892 z "},"ट":{"ha":688,"x_min":-31,"x_max":718,"o":"m 192 333 q 192 282 192 333 q 259 176 192 231 q 437 122 326 122 q 635 175 547 122 l 635 75 q 433 31 549 31 q 177 110 275 31 q 79 328 79 190 q 175 550 79 465 q 422 636 271 635 q 456 635 444 636 l 456 799 l -31 799 l -31 892 l 718 892 l 718 799 l 564 799 l 564 540 q 467 547 519 547 q 267 491 343 547 q 192 333 192 435 z "},"ठ":{"ha":783,"x_min":-31,"x_max":814,"o":"m 814 799 l 475 799 l 475 619 q 643 533 579 600 q 707 352 707 465 q 620 163 707 239 q 392 86 533 86 q 164 163 251 86 q 76 361 76 239 q 162 551 76 483 q 367 626 247 619 l 367 799 l -31 799 l -31 892 l 814 892 l 814 799 m 391 175 q 437 175 391 175 q 540 226 483 175 q 596 362 596 278 q 540 492 596 446 q 397 538 485 538 q 248 493 308 538 q 188 363 188 449 q 243 226 188 278 q 391 175 299 175 z "},"ड":{"ha":724,"x_min":-31,"x_max":754,"o":"m 554 589 l 313 589 q 229 568 263 589 q 196 501 196 547 q 238 433 196 454 q 383 406 279 411 q 633 214 633 399 q 556 58 632 118 q 342 -1 481 -1 q 88 60 203 -1 l 88 167 q 351 90 211 90 q 476 122 431 90 q 522 209 522 154 q 481 288 522 264 q 342 315 439 311 q 86 499 86 326 q 149 635 86 588 q 308 682 211 682 l 446 682 l 446 799 l -31 799 l -31 892 l 754 892 l 754 799 l 554 799 l 554 589 z "},"ढ":{"ha":772,"x_min":-31,"x_max":803,"o":"m 369 385 q 510 414 428 414 q 644 366 593 414 q 696 234 696 318 q 619 90 696 150 q 406 29 543 29 q 172 115 269 29 q 75 336 75 200 q 172 561 75 472 q 428 651 268 650 q 490 647 458 651 l 490 799 l -31 799 l -31 892 l 803 892 l 803 799 l 600 799 l 600 544 q 458 558 514 558 q 259 497 332 558 q 186 338 186 435 q 251 180 186 240 q 418 119 315 119 q 540 152 492 119 q 589 242 589 185 q 561 303 589 279 q 478 326 533 326 q 369 294 422 326 l 369 385 z "},"ण":{"ha":1032,"x_min":-31,"x_max":1063,"o":"m 1063 892 l 1063 799 l 901 799 l 901 0 l 793 0 l 793 799 l 568 799 l 568 486 q 506 303 568 367 q 328 240 444 240 q 97 486 97 240 l 97 799 l -31 799 l -31 892 l 1063 892 m 460 483 l 460 799 l 206 799 l 206 483 q 329 332 206 332 q 460 483 460 332 z "},"त":{"ha":815,"x_min":-31,"x_max":847,"o":"m 847 892 l 847 799 l 686 799 l 686 0 l 578 0 l 578 533 l 446 533 q 200 317 200 533 q 251 154 200 214 q 400 94 301 94 q 432 96 424 94 l 432 3 q 390 0 410 0 q 171 89 251 0 q 90 317 90 178 q 178 542 90 457 q 433 628 265 628 l 578 628 l 578 799 l -31 799 l -31 892 l 847 892 z "},"थ":{"ha":888,"x_min":39,"x_max":915,"o":"m 501 704 q 415 520 501 590 q 167 411 328 450 q 390 243 207 243 q 574 313 497 243 q 650 513 650 382 l 650 892 l 915 892 l 915 799 l 758 799 l 758 0 l 650 0 l 650 285 q 551 192 624 235 q 385 150 478 150 q 152 232 250 150 q 39 475 54 314 q 308 567 222 514 q 394 703 394 619 q 372 779 394 750 q 303 808 349 808 q 233 781 257 808 q 210 717 210 754 q 226 635 210 681 l 119 635 q 103 724 103 682 q 158 848 103 796 q 304 900 213 900 q 449 844 396 900 q 501 704 501 788 z "},"द":{"ha":764,"x_min":-31,"x_max":794,"o":"m -31 892 l 794 892 l 794 799 l 628 799 l 628 567 l 383 567 q 235 518 289 567 q 181 381 181 469 q 229 240 181 292 q 360 189 278 189 q 491 235 442 189 q 543 353 540 281 l 647 353 l 647 -14 l 539 -14 l 539 171 q 352 99 482 99 q 143 179 222 99 q 64 381 64 260 q 146 580 64 501 q 375 658 228 658 l 519 658 l 519 799 l -31 799 l -31 892 z "},"ध":{"ha":881,"x_min":-31,"x_max":911,"o":"m 911 892 l 911 799 l 751 799 l 751 0 l 643 0 l 643 218 q 538 126 608 164 q 376 89 468 89 q 166 152 244 89 q 88 302 88 215 q 136 435 88 389 q 264 492 185 482 q 140 542 186 500 q 94 658 94 583 q 181 799 94 754 l -31 799 l -31 892 l 400 892 l 400 799 l 399 799 q 256 760 307 799 q 204 659 204 721 q 257 567 204 597 q 393 538 310 538 l 463 538 l 463 444 l 381 444 q 247 409 296 444 q 199 314 199 374 q 248 218 199 254 q 382 182 297 182 q 571 253 499 182 q 643 414 643 325 l 643 892 l 911 892 z "},"न":{"ha":681,"x_min":-31,"x_max":711,"o":"m -31 892 l 711 892 l 711 799 l 551 799 l 551 0 l 442 0 l 442 457 l 196 457 q 161 444 171 457 q 151 393 151 432 q 169 300 151 354 l 78 300 q 39 444 39 378 q 160 549 39 549 l 442 549 l 442 799 l -31 799 l -31 892 z "},"ऩ":{"ha":681,"x_min":-31,"x_max":711,"o":"m -31 892 l 711 892 l 711 799 l 551 799 l 551 0 l 442 0 l 442 457 l 196 457 q 161 444 171 457 q 151 393 151 432 q 169 300 151 354 l 78 300 q 39 444 39 378 q 160 549 39 549 l 442 549 l 442 799 l -31 799 l -31 892 m 126 112 q 137 123 126 112 q 178 133 147 133 q 231 112 208 133 q 253 60 253 90 q 231 8 253 29 q 178 -12 210 -12 q 126 8 147 -12 q 106 59 106 28 q 126 112 106 90 z "},"प":{"ha":768,"x_min":-31,"x_max":799,"o":"m 799 892 l 799 799 l 639 799 l 639 0 l 529 0 l 529 331 q 344 244 465 246 q 94 521 94 244 l 94 799 l -31 799 l -31 892 l 799 892 m 529 531 l 529 799 l 204 799 l 204 519 q 240 377 204 421 q 351 333 276 333 q 477 387 425 333 q 529 531 529 440 z "},"फ":{"ha":1099,"x_min":-31,"x_max":1129,"o":"m 1129 799 l 639 799 l 639 607 q 808 672 701 672 q 985 603 915 672 q 1056 417 1056 533 q 976 228 1056 300 q 781 157 897 157 q 747 160 756 157 l 747 253 q 775 250 764 250 q 898 295 850 250 q 946 417 946 340 q 902 538 946 493 q 793 583 858 583 q 683 540 728 583 q 639 431 639 496 l 639 0 l 529 0 l 529 331 q 342 249 465 250 q 157 311 219 249 q 94 515 94 374 l 94 799 l -31 799 l -31 892 l 1129 892 l 1129 799 m 529 531 l 529 799 l 204 799 l 204 519 q 240 380 204 421 q 350 339 275 339 q 477 390 425 339 q 529 531 529 440 z "},"ब":{"ha":854,"x_min":-31,"x_max":886,"o":"m 886 892 l 886 799 l 725 799 l 725 0 l 617 0 l 617 226 q 514 144 579 176 q 368 113 449 113 q 162 192 247 113 q 76 399 76 272 q 162 606 76 525 q 381 688 247 688 q 496 674 436 688 l 496 578 q 382 596 440 596 q 279 572 324 596 l 569 288 q 617 425 617 347 l 617 799 l -31 799 l -31 892 l 886 892 m 222 526 q 182 393 182 475 q 237 256 182 311 q 376 201 292 201 q 517 240 461 201 l 222 526 z "},"भ":{"ha":771,"x_min":8,"x_max":801,"o":"m 532 482 l 532 892 l 801 892 l 801 799 l 640 799 l 640 0 l 532 0 l 532 390 l 260 390 l 260 200 l 163 200 l 129 278 q 92 396 92 361 q 108 451 92 431 q 150 478 124 472 l 150 714 q 136 783 150 761 q 82 804 122 804 q 8 786 42 804 l 8 876 q 106 897 50 897 q 260 732 260 897 l 260 482 l 532 482 z "},"म":{"ha":794,"x_min":-31,"x_max":825,"o":"m 557 799 l 265 799 l 265 481 l 557 481 l 557 799 m -31 799 l -31 892 l 825 892 l 825 799 l 665 799 l 665 0 l 557 0 l 557 389 l 265 389 l 265 200 l 171 200 l 136 278 q 99 399 99 367 q 157 476 99 461 l 157 799 l -31 799 z "},"य":{"ha":868,"x_min":-31,"x_max":899,"o":"m 200 442 q 275 316 217 365 q 423 267 333 267 q 572 320 513 267 q 631 464 631 374 l 631 799 l 371 799 q 406 669 406 746 q 200 442 406 506 m 406 174 q 184 262 276 174 q 71 510 92 350 q 240 571 182 526 q 297 681 297 615 q 254 799 297 747 l -31 799 l -31 892 l 899 892 l 899 799 l 739 799 l 739 0 l 631 0 l 631 269 q 406 174 560 174 z "},"र":{"ha":522,"x_min":-31,"x_max":553,"o":"m 43 478 l 136 478 q 306 611 306 478 l 306 799 l -31 799 l -31 892 l 553 892 l 553 799 l 414 799 l 414 601 q 353 447 414 503 q 189 388 292 390 l 174 388 l 468 0 l 336 0 l 43 388 l 43 478 z "},"ऱ":{"ha":522,"x_min":-36,"x_max":553,"o":"m 38 -56 q 22 -56 38 -56 q -15 -35 6 -56 q -36 16 -36 -15 q -15 69 -36 47 q 37 90 6 90 q 90 69 68 90 q 111 17 111 47 q 90 -35 111 -14 q 38 -56 69 -56 m 43 478 l 136 478 q 306 611 306 478 l 306 799 l -31 799 l -31 892 l 553 892 l 553 799 l 414 799 l 414 601 q 353 447 414 503 q 189 388 292 390 l 174 388 l 468 0 l 336 0 l 43 388 l 43 478 z "},"ल":{"ha":1019,"x_min":-31,"x_max":1050,"o":"m 1050 892 l 1050 799 l 889 799 l 889 0 l 779 0 l 779 550 q 704 568 743 568 q 554 392 554 568 l 554 292 l 446 292 l 446 394 q 325 560 446 560 q 224 509 264 560 q 185 352 185 458 q 246 169 185 246 q 425 92 307 92 q 463 94 449 92 l 463 4 q 410 0 438 0 q 168 103 260 0 q 76 365 76 207 q 142 572 76 492 q 315 651 207 651 q 439 617 390 651 q 501 521 488 583 q 696 657 533 657 q 779 642 742 657 l 779 799 l -31 799 l -31 892 l 1050 892 z "},"ळ":{"ha":1108,"x_min":-31,"x_max":1139,"o":"m 1139 799 l 832 799 l 832 639 q 987 555 929 622 q 1044 380 1044 488 q 967 199 1044 272 q 774 126 889 126 q 535 228 626 126 q 340 126 467 126 q 138 197 213 126 q 64 383 64 267 q 139 573 64 500 q 328 646 214 646 q 563 551 471 646 q 726 642 624 629 l 726 799 l -31 799 l -31 892 l 1139 892 l 1139 799 m 443 275 q 489 383 469 319 q 517 467 508 446 q 333 556 440 556 q 217 507 260 556 q 174 383 174 458 q 217 263 174 307 q 334 218 260 218 q 443 275 408 218 m 769 218 q 890 265 844 218 q 935 389 935 313 q 890 510 935 465 q 769 556 846 556 q 639 475 682 556 q 601 381 618 435 q 581 314 585 326 q 769 218 661 218 z "},"ऴ":{"ha":1108,"x_min":-31,"x_max":1139,"o":"m 1139 799 l 832 799 l 832 639 q 987 555 929 622 q 1044 380 1044 488 q 967 199 1044 272 q 774 126 889 126 q 535 228 626 126 q 340 126 467 126 q 138 197 213 126 q 64 383 64 267 q 139 573 64 500 q 328 646 214 646 q 563 551 471 646 q 726 642 624 629 l 726 799 l -31 799 l -31 892 l 1139 892 l 1139 799 m 443 275 q 489 383 469 319 q 517 467 508 446 q 333 556 440 556 q 217 507 260 556 q 174 383 174 458 q 217 263 174 307 q 334 218 260 218 q 443 275 408 218 m 769 218 q 890 265 844 218 q 935 389 935 313 q 890 510 935 465 q 769 556 846 556 q 639 475 682 556 q 601 381 618 435 q 581 314 585 326 q 769 218 661 218 m 247 6 q 258 17 247 6 q 299 28 268 28 q 351 6 329 28 q 374 -46 374 -15 q 352 -98 374 -76 q 299 -119 331 -119 q 247 -99 268 -119 q 226 -47 226 -78 q 247 6 226 -15 z "},"व":{"ha":797,"x_min":-31,"x_max":828,"o":"m 828 892 l 828 799 l 667 799 l 667 0 l 558 0 l 558 231 q 336 126 486 126 q 145 198 225 126 q 65 388 65 269 q 142 581 65 506 q 340 657 219 657 q 428 646 392 657 l 428 550 q 346 563 393 563 q 224 516 272 563 q 175 391 175 469 q 224 264 175 313 q 347 215 274 215 q 501 281 444 215 q 558 435 558 346 l 558 799 l -31 799 l -31 892 l 828 892 z "},"श":{"ha":928,"x_min":42,"x_max":958,"o":"m 688 892 l 958 892 l 958 799 l 797 799 l 797 0 l 688 0 l 688 892 m 101 703 q 156 838 101 782 q 308 893 210 893 q 469 823 407 893 q 532 653 532 753 q 438 434 532 513 q 218 356 344 356 l 172 356 l 492 0 l 349 0 l 42 351 l 42 449 l 179 449 q 359 502 294 449 q 424 640 424 556 q 391 762 424 725 q 306 799 358 799 q 230 769 254 799 q 206 694 206 739 q 226 614 206 650 l 119 614 q 101 703 101 651 z "},"ष":{"ha":806,"x_min":-31,"x_max":836,"o":"m 836 892 l 836 799 l 675 799 l 675 0 l 567 0 l 567 318 q 376 236 499 239 q 178 305 251 236 q 106 515 106 374 l 106 799 l -31 799 l -31 892 l 836 892 m 213 519 q 259 374 213 422 q 394 325 306 325 q 532 400 482 325 l 213 710 l 213 519 m 567 518 l 567 799 l 222 799 l 561 465 q 567 518 567 488 z "},"स":{"ha":882,"x_min":-31,"x_max":913,"o":"m 913 892 l 913 799 l 753 799 l 753 0 l 644 0 l 644 368 l 411 368 q 175 381 257 368 l 431 0 l 299 0 l 39 392 l 39 478 l 131 478 q 238 509 210 478 q 267 608 267 540 l 267 799 l -31 799 l -31 892 l 913 892 m 644 463 l 644 799 l 375 799 l 375 600 q 338 463 375 513 l 644 463 z "},"ह":{"ha":736,"x_min":-31,"x_max":768,"o":"m 611 581 l 278 581 q 200 518 200 581 q 219 453 200 482 q 265 413 239 425 q 400 433 324 433 q 575 378 514 433 q 636 247 636 324 q 621 169 636 201 l 514 169 q 533 241 533 196 q 499 315 533 286 q 386 343 465 343 q 256 303 307 343 q 204 199 204 263 q 264 92 204 136 q 427 49 324 49 q 619 74 531 49 l 619 -19 q 438 -43 524 -43 q 185 32 274 -43 q 96 206 96 107 q 183 371 96 306 q 90 532 90 432 q 138 635 90 599 q 260 671 185 671 l 504 671 l 504 799 l -31 799 l -31 892 l 768 892 l 768 799 l 611 799 l 611 581 z "},"़":{"ha":0,"x_min":-453,"x_max":-306,"o":"m -432 -229 q -442 -219 -432 -229 q -453 -178 -453 -208 q -432 -126 -453 -147 q -381 -104 -411 -104 q -328 -126 -350 -104 q -306 -178 -306 -147 q -327 -229 -306 -208 q -380 -250 -349 -250 q -432 -229 -411 -250 z "},"ऽ":{"ha":629,"x_min":25,"x_max":600,"o":"m 600 231 q 528 65 600 135 q 301 -4 456 -4 q 25 69 147 -4 l 25 185 q 318 93 165 93 q 447 133 403 93 q 490 224 490 172 q 442 326 490 276 q 326 419 394 376 q 191 507 258 463 q 76 610 124 551 q 28 737 28 668 q 75 849 28 806 q 206 892 122 892 l 563 892 l 563 794 l 218 794 q 140 726 140 794 q 188 647 140 689 q 302 561 235 604 q 438 470 369 518 q 553 360 506 422 q 600 231 600 297 z "},"ा":{"ha":369,"x_min":-31,"x_max":400,"o":"m -31 799 l -31 892 l 400 892 l 400 799 l 239 799 l 239 0 l 131 0 l 131 799 l -31 799 z "},"ि":{"ha":368,"x_min":-31,"x_max":913,"o":"m 913 990 q 646 1106 793 1064 q 410 1147 499 1147 q 280 1107 321 1147 q 239 996 239 1067 l 239 892 l 399 892 l 399 799 l 239 799 l 239 0 l 131 0 l 131 799 l -31 799 l -31 892 l 131 892 l 131 997 q 200 1178 131 1110 q 393 1246 269 1246 q 913 1094 635 1246 l 913 990 z "},"ी":{"ha":368,"x_min":-243,"x_max":399,"o":"m 238 892 l 399 892 l 399 799 l 239 799 l 239 0 l 131 0 l 131 799 l -31 799 l -31 892 l 128 892 l 128 1008 q 91 1113 128 1076 q -6 1149 54 1149 q -100 1113 -65 1149 q -135 1008 -135 1078 l -135 983 l -243 983 l -243 1011 q -176 1186 -243 1128 q -5 1244 -108 1244 q 168 1186 99 1244 q 238 1011 238 1128 l 238 892 z "},"ु":{"ha":0,"x_min":-589,"x_max":17,"o":"m -589 -92 q -426 -216 -529 -157 q -242 -275 -322 -275 q -126 -245 -162 -275 q -90 -169 -90 -215 q -119 -99 -90 -124 q -203 -75 -149 -75 q -335 -121 -258 -75 l -335 -22 q -197 14 -258 14 q -37 -36 -90 14 q 17 -172 17 -86 q -49 -312 17 -257 q -218 -367 -115 -367 q -424 -319 -321 -367 q -589 -215 -528 -272 l -589 -92 z "},"ू":{"ha":0,"x_min":-397,"x_max":135,"o":"m -192 -354 q -339 -305 -281 -354 q -397 -173 -397 -256 q -340 -37 -397 -90 q -192 17 -282 17 q -36 -24 -103 17 q 67 -129 31 -64 q 135 -396 135 -256 l 33 -396 q -24 -170 33 -267 q -185 -74 -81 -74 q -261 -100 -232 -74 q -290 -171 -290 -126 q -258 -240 -290 -215 q -187 -265 -225 -265 q -133 -258 -149 -265 l -133 -347 q -192 -354 -156 -354 z "},"ृ":{"ha":0,"x_min":-428,"x_max":-106,"o":"m -214 -383 q -369 -331 -310 -383 q -428 -197 -428 -279 q -374 -62 -428 -114 q -239 -7 -319 -10 l -239 13 l -131 13 l -131 -89 l -197 -89 q -287 -117 -254 -89 q -319 -193 -319 -146 q -292 -268 -319 -240 q -207 -296 -264 -296 q -106 -265 -150 -296 l -106 -354 q -214 -383 -150 -383 z "},"ॅ":{"ha":0,"x_min":-432,"x_max":63,"o":"m 63 1244 q -9 1083 63 1140 q -186 1026 -81 1026 q -362 1082 -292 1026 q -432 1244 -432 1138 l -324 1244 q -287 1149 -324 1186 q -185 1113 -251 1113 q -81 1150 -118 1113 q -44 1244 -44 1188 l 63 1244 z "},"ॆ":{"ha":0,"x_min":-647,"x_max":-131,"o":"m -418 1114 l -343 1114 q -131 890 -131 1114 l -239 890 q -264 988 -240 953 q -347 1022 -287 1022 l -424 1022 q -590 1072 -532 1022 q -647 1244 -647 1122 l -539 1244 q -510 1143 -539 1172 q -418 1114 -482 1114 z "},"े":{"ha":0,"x_min":-564,"x_max":-128,"o":"m -489 1232 q -368 1202 -418 1232 q -276 1107 -318 1172 l -128 882 l -247 882 l -368 1065 q -494 1138 -415 1138 q -564 1129 -522 1138 l -564 1224 q -489 1232 -514 1232 z "},"ै":{"ha":0,"x_min":-586,"x_max":-117,"o":"m -262 882 q -393 967 -340 940 q -497 993 -446 993 q -586 981 -549 993 l -586 1078 q -503 1089 -553 1089 q -407 1066 -453 1089 q -300 990 -361 1043 l -214 914 l -342 1078 q -506 1156 -403 1156 q -586 1146 -547 1156 l -586 1240 q -501 1249 -561 1249 q -268 1117 -353 1249 l -117 882 l -262 882 z "},"ॉ":{"ha":369,"x_min":-67,"x_max":428,"o":"m 428 1244 q 356 1083 428 1140 q 179 1026 285 1026 q 3 1082 74 1026 q -67 1244 -67 1138 l 40 1244 q 77 1150 40 1188 q 181 1113 114 1113 q 283 1149 247 1113 q 319 1244 319 1186 l 428 1244 m -31 799 l -31 892 l 400 892 l 400 799 l 239 799 l 239 0 l 131 0 l 131 799 l -31 799 z "},"ॊ":{"ha":368,"x_min":-279,"x_max":399,"o":"m 238 892 l 399 892 l 399 799 l 238 799 l 238 0 l 131 0 l 131 799 l -31 799 l -31 892 l 129 892 q 104 988 128 954 q 21 1022 81 1022 l -56 1022 q -222 1072 -164 1022 q -279 1244 -279 1122 l -171 1244 q -142 1143 -171 1172 q -50 1114 -114 1114 l 25 1114 q 238 892 238 1114 z "},"ो":{"ha":368,"x_min":-194,"x_max":399,"o":"m 399 892 l 399 799 l 238 799 l 238 0 l 131 0 l 131 799 l -31 799 l -31 892 l 115 892 l 1 1065 q -125 1138 -46 1138 q -194 1129 -153 1138 l -194 1224 q -119 1232 -144 1232 q 1 1202 -49 1232 q 93 1107 51 1172 l 235 892 l 399 892 z "},"ौ":{"ha":368,"x_min":-219,"x_max":399,"o":"m 399 892 l 399 799 l 239 799 l 239 0 l 131 0 l 131 799 l -31 799 l -31 892 l 92 892 q -30 969 22 944 q -132 993 -82 993 q -219 981 -182 993 l -219 1078 q -136 1089 -186 1089 q -40 1066 -86 1089 q 67 990 6 1043 l 153 914 l 25 1078 q -139 1156 -36 1156 q -219 1146 -181 1156 l -219 1240 q -135 1249 -194 1249 q 99 1117 14 1249 l 243 892 l 399 892 z "},"्":{"ha":0,"x_min":-225,"x_max":81,"o":"m 81 -324 l -54 -324 l -225 -94 l -114 -94 l 81 -324 z "},"ॐ":{"ha":1715,"x_min":153,"x_max":1564,"o":"m 1197 933 q 1125 773 1197 829 q 947 717 1053 717 q 769 772 840 717 q 697 933 697 828 l 804 933 q 842 840 804 876 q 947 803 881 803 q 1051 840 1014 803 q 1089 933 1089 876 l 1197 933 m 897 959 q 887 969 897 959 q 876 1010 876 979 q 897 1061 876 1040 q 949 1082 918 1082 q 1000 1061 979 1082 q 1021 1010 1021 1040 q 1000 959 1021 979 q 949 939 979 939 q 897 959 918 939 m 1083 258 q 980 115 1036 167 q 846 63 924 63 q 720 96 768 63 q 649 175 672 129 q 563 52 633 104 q 372 0 492 0 q 153 60 253 0 l 153 169 q 388 93 260 93 q 513 135 467 93 q 558 239 558 176 q 513 335 558 301 q 381 369 468 369 l 306 369 l 306 463 l 354 463 q 476 500 436 463 q 517 599 517 538 q 479 698 517 661 q 378 735 442 735 q 201 681 281 735 l 201 778 q 390 829 283 829 q 561 767 497 829 q 625 611 625 704 q 595 498 625 544 q 518 432 565 451 q 663 326 603 428 q 728 218 711 240 q 758 186 746 196 q 838 161 793 161 q 925 208 883 161 q 1014 347 965 257 q 1070 449 1063 436 q 1097 493 1078 461 q 1126 538 1115 525 q 1158 576 1138 551 q 1194 610 1178 600 q 1231 633 1210 621 q 1324 657 1268 657 q 1498 576 1432 657 q 1564 368 1564 494 q 1492 151 1564 242 q 1300 61 1421 61 q 1175 85 1228 61 l 1175 186 q 1296 154 1226 154 q 1410 213 1365 154 q 1456 358 1456 271 q 1423 501 1456 444 q 1335 558 1390 558 q 1231 501 1279 558 q 1083 258 1182 443 z "},"॑":{"ha":0,"x_min":-233,"x_max":-137,"o":"m -233 1275 l -137 1275 l -137 969 l -233 969 l -233 1275 z "},"॒":{"ha":0,"x_min":-812,"x_max":-128,"o":"m -128 -304 l -812 -304 l -812 -221 l -128 -221 l -128 -304 z "},"॓":{"ha":0,"x_min":-397,"x_max":-126,"o":"m -397 1208 l -322 1269 l -126 1035 l -200 974 l -397 1208 z "},"॔":{"ha":0,"x_min":-257,"x_max":14,"o":"m -60 1269 l 14 1208 l -183 974 l -257 1035 l -60 1269 z "},"क़":{"ha":1071,"x_min":-31,"x_max":1101,"o":"m 1101 799 l 590 799 l 590 600 q 760 667 654 667 q 938 597 867 667 q 1008 411 1008 528 q 929 222 1008 294 q 732 150 850 150 q 700 153 717 150 l 700 246 q 728 243 714 243 q 850 289 801 243 q 899 410 899 335 q 855 531 899 486 q 745 576 811 576 q 635 534 679 576 q 590 428 590 492 l 590 0 l 481 0 l 481 200 q 313 136 419 136 q 135 205 206 136 q 64 390 64 274 q 143 580 64 507 q 339 653 222 653 q 371 649 361 653 l 371 557 q 344 558 364 558 q 221 513 269 558 q 172 392 172 467 q 217 271 172 317 q 327 225 261 225 q 437 268 393 225 q 481 375 481 311 l 481 799 l -31 799 l -31 892 l 1101 892 l 1101 799 m 163 -3 q 173 7 163 -3 q 214 18 183 18 q 267 -3 244 18 q 289 -56 289 -25 q 267 -107 289 -86 q 215 -128 246 -128 q 163 -107 183 -128 q 142 -56 142 -86 q 163 -3 142 -25 z "},"ख़":{"ha":1082,"x_min":-31,"x_max":1113,"o":"m 1113 892 l 1113 799 l 953 799 l 953 0 l 843 0 l 843 250 q 680 185 779 185 q 513 249 581 185 q 444 417 444 313 q 513 584 444 521 q 679 647 581 647 q 746 640 714 647 l 746 550 q 693 557 724 557 q 592 517 633 557 q 551 413 551 476 q 591 310 551 349 q 693 272 631 272 q 799 315 756 272 q 843 425 843 357 l 843 799 l 414 799 l 414 601 q 352 447 414 503 q 188 388 290 392 l 171 386 l 476 0 l 342 0 l 43 388 l 43 478 l 136 478 q 306 613 306 478 l 306 799 l -31 799 l -31 892 l 1113 892 m 51 5 q 62 16 51 5 q 103 26 72 26 q 156 5 133 26 q 178 -47 178 -17 q 156 -99 178 -78 q 103 -119 135 -119 q 51 -99 72 -119 q 31 -47 31 -78 q 51 5 31 -17 z "},"ग़":{"ha":797,"x_min":-31,"x_max":828,"o":"m -31 892 l 828 892 l 828 799 l 667 799 l 667 0 l 560 0 l 560 799 l 317 799 l 317 474 q 272 338 317 386 q 143 290 228 290 q 42 308 86 290 l 42 404 q 126 385 83 385 q 210 478 210 385 l 210 799 l -31 799 l -31 892 m 128 94 q 138 105 128 94 q 179 115 149 115 q 232 94 210 115 q 254 42 254 72 q 233 -10 254 11 q 179 -31 211 -31 q 127 -10 147 -31 q 107 42 107 11 q 128 94 107 72 z "},"ज़":{"ha":903,"x_min":-31,"x_max":933,"o":"m -31 892 l 933 892 l 933 799 l 772 799 l 772 0 l 664 0 l 664 533 l 385 533 q 485 338 485 474 q 409 156 485 225 q 208 88 333 88 q 42 118 117 88 l 42 218 q 197 179 117 179 q 327 223 278 179 q 376 352 376 267 q 312 485 376 438 q 133 533 247 533 l 133 626 l 664 626 l 664 799 l -31 799 l -31 892 m 163 -67 q 173 -57 163 -67 q 214 -46 183 -46 q 267 -67 244 -46 q 289 -119 289 -89 q 267 -171 289 -150 q 215 -192 246 -192 q 163 -171 183 -192 q 142 -119 142 -150 q 163 -67 142 -89 z "},"ड़":{"ha":724,"x_min":-31,"x_max":754,"o":"m 554 589 l 313 589 q 229 568 263 589 q 196 501 196 547 q 238 433 196 454 q 383 406 279 411 q 633 214 633 399 q 556 58 632 118 q 342 -1 481 -1 q 88 60 203 -1 l 88 167 q 351 90 211 90 q 476 122 431 90 q 522 209 522 154 q 481 288 522 264 q 342 315 439 311 q 86 499 86 326 q 149 635 86 588 q 308 682 211 682 l 446 682 l 446 799 l -31 799 l -31 892 l 754 892 l 754 799 l 554 799 l 554 589 m 293 -137 q 303 -126 293 -137 q 344 -115 314 -115 q 397 -137 375 -115 q 419 -189 419 -158 q 398 -240 419 -219 q 345 -261 376 -261 q 293 -240 314 -261 q 272 -189 272 -219 q 293 -137 272 -158 z "},"ढ़":{"ha":772,"x_min":-31,"x_max":803,"o":"m 363 -229 q 353 -219 363 -229 q 343 -178 343 -208 q 364 -126 343 -147 q 415 -104 385 -104 q 468 -126 446 -104 q 490 -178 490 -147 q 469 -229 490 -208 q 415 -250 447 -250 q 363 -229 383 -250 m 369 385 q 510 414 428 414 q 644 366 593 414 q 696 234 696 318 q 619 90 696 150 q 406 29 543 29 q 172 115 269 29 q 75 336 75 200 q 172 561 75 472 q 428 651 268 650 q 490 647 458 651 l 490 799 l -31 799 l -31 892 l 803 892 l 803 799 l 600 799 l 600 544 q 458 558 514 558 q 259 497 332 558 q 186 338 186 435 q 251 180 186 240 q 418 119 315 119 q 540 152 492 119 q 589 242 589 185 q 561 303 589 279 q 478 326 533 326 q 369 294 422 326 l 369 385 z "},"फ़":{"ha":1099,"x_min":-31,"x_max":1129,"o":"m 1129 799 l 639 799 l 639 607 q 808 672 701 672 q 985 603 915 672 q 1056 417 1056 533 q 976 228 1056 300 q 781 157 897 157 q 747 160 756 157 l 747 253 q 775 250 764 250 q 898 295 850 250 q 946 417 946 340 q 902 538 946 493 q 793 583 858 583 q 683 540 728 583 q 639 431 639 496 l 639 0 l 529 0 l 529 331 q 342 249 465 250 q 157 311 219 249 q 94 515 94 374 l 94 799 l -31 799 l -31 892 l 1129 892 l 1129 799 m 529 531 l 529 799 l 204 799 l 204 519 q 240 380 204 421 q 350 339 275 339 q 477 390 425 339 q 529 531 529 440 m 143 72 q 153 82 143 72 q 194 93 164 93 q 247 72 225 93 q 269 19 269 50 q 248 -32 269 -11 q 195 -53 226 -53 q 143 -32 164 -53 q 122 19 122 -11 q 143 72 122 50 z "},"य़":{"ha":868,"x_min":-31,"x_max":899,"o":"m 190 -85 q 174 -85 190 -85 q 138 -65 158 -85 q 118 -13 118 -44 q 139 40 118 18 q 190 61 160 61 q 243 40 221 61 q 265 -12 265 18 q 244 -64 265 -43 q 190 -85 222 -85 m 200 442 q 275 316 217 365 q 423 267 333 267 q 572 320 513 267 q 631 464 631 374 l 631 799 l 371 799 q 406 669 406 746 q 200 442 406 506 m 406 174 q 184 262 276 174 q 71 510 92 350 q 240 571 182 526 q 297 681 297 615 q 254 799 297 747 l -31 799 l -31 892 l 899 892 l 899 799 l 739 799 l 739 0 l 631 0 l 631 269 q 406 174 560 174 z "},"ॠ":{"ha":993,"x_min":-31,"x_max":1024,"o":"m 569 799 l 569 458 l 713 536 l 713 646 l 819 646 l 819 560 q 840 450 819 497 q 883 379 860 403 q 950 242 950 315 q 892 99 951 147 q 735 51 832 51 q 685 56 711 51 l 686 157 q 746 150 711 150 q 812 174 781 150 q 843 242 843 197 q 795 340 843 286 q 733 438 747 394 l 569 349 l 569 0 l 461 0 l 461 299 l 92 97 l 92 215 l 347 350 q 274 483 319 439 q 150 526 229 526 q 79 515 119 526 l 79 621 q 157 629 115 629 q 440 397 368 629 l 461 408 l 461 799 l -31 799 l -31 892 l 1024 892 l 1024 799 l 569 799 z "},"ॡ":{"ha":1081,"x_min":-21,"x_max":1090,"o":"m 943 799 l 943 417 q 889 264 943 328 q 842 214 865 236 q 788 115 788 158 q 818 48 788 72 q 901 24 849 24 l 939 24 l 939 -68 l 868 -68 q 790 -95 817 -68 q 763 -166 763 -122 q 793 -242 763 -210 q 874 -274 824 -274 q 986 -250 925 -274 l 986 -347 q 875 -367 935 -367 q 713 -311 776 -367 q 650 -168 650 -256 q 678 -72 650 -112 q 751 -14 707 -32 q 678 111 678 26 q 702 196 678 157 q 756 260 726 235 q 809 326 785 285 q 833 417 833 367 l 833 582 l 731 582 q 606 540 643 582 q 568 394 568 497 l 568 319 l 458 319 l 458 396 q 322 585 458 585 q 208 533 250 585 q 165 383 165 481 q 392 83 165 128 l 389 -11 q 144 115 233 15 q 56 385 56 215 q 124 595 56 514 q 314 676 193 676 q 514 547 471 676 q 725 672 551 672 l 833 672 l 833 799 l -21 799 l -21 892 l 1090 892 l 1090 799 l 943 799 z "},"।":{"ha":476,"x_min":222,"x_max":332,"o":"m 222 0 l 222 892 l 332 892 l 332 0 l 222 0 z "},"॥":{"ha":778,"x_min":222,"x_max":632,"o":"m 524 0 l 524 892 l 632 892 l 632 0 l 524 0 m 222 0 l 222 892 l 332 892 l 332 0 l 222 0 z "},"०":{"ha":749,"x_min":57,"x_max":693,"o":"m 229 722 q 199 675 229 722 q 169 457 169 628 q 227 190 169 286 q 376 93 285 93 q 524 188 467 93 q 581 456 581 282 q 522 723 581 631 q 376 815 463 815 q 229 722 289 815 m 376 -11 q 302 -11 376 -11 q 142 117 228 -11 q 57 458 57 244 q 143 795 57 671 q 374 919 229 919 q 606 795 518 919 q 693 458 693 671 q 609 117 693 246 q 376 -11 525 -11 z "},"१":{"ha":496,"x_min":61,"x_max":379,"o":"m 379 908 l 379 0 l 271 0 l 271 789 l 61 660 l 61 778 l 276 908 l 379 908 z "},"२":{"ha":701,"x_min":61,"x_max":635,"o":"m 635 96 l 635 0 l 61 0 l 61 93 q 492 635 492 418 q 442 767 492 721 q 296 814 392 814 q 90 732 200 814 l 90 842 q 314 918 189 918 q 522 847 439 918 q 606 646 606 776 q 213 96 606 400 l 635 96 z "},"३":{"ha":682,"x_min":83,"x_max":607,"o":"m 296 918 q 506 849 432 918 q 581 679 581 781 q 544 547 581 606 q 435 460 507 489 q 560 387 514 442 q 607 250 607 332 q 529 65 607 139 q 315 -8 451 -8 q 83 38 179 -8 l 83 147 q 291 93 186 93 q 445 139 396 93 q 494 258 494 185 q 440 372 494 332 q 282 411 385 411 l 224 411 l 224 507 l 282 507 q 413 551 360 507 q 467 668 467 594 q 421 779 467 742 q 288 817 375 817 q 110 760 200 817 l 110 867 q 296 918 193 918 z "},"४":{"ha":793,"x_min":76,"x_max":735,"o":"m 735 317 l 735 221 l 600 221 l 600 0 l 492 0 l 492 221 l 76 221 l 76 317 l 422 908 l 600 908 l 600 317 l 735 317 m 492 317 l 492 843 l 188 317 l 492 317 z "},"५":{"ha":733,"x_min":96,"x_max":658,"o":"m 249 813 l 249 540 q 357 554 311 554 q 577 481 496 554 q 658 278 658 407 q 570 69 658 149 q 337 -11 482 -11 q 96 36 192 -11 l 96 144 q 311 92 185 92 q 544 288 544 92 q 490 410 544 367 q 342 454 436 454 q 140 406 249 454 l 140 908 l 596 908 l 596 813 l 249 813 z "},"६":{"ha":729,"x_min":68,"x_max":672,"o":"m 483 833 q 284 736 360 833 q 188 497 208 639 q 403 585 278 585 q 601 505 529 585 q 672 292 672 425 q 594 72 672 158 q 389 -15 517 -15 q 149 98 231 -15 q 68 401 68 211 q 178 782 68 629 q 482 935 289 935 q 610 914 544 935 l 610 807 q 483 833 550 833 m 181 393 q 239 160 182 235 q 381 86 296 86 q 513 145 467 86 q 558 294 558 204 q 513 435 558 383 q 392 486 467 486 q 181 393 261 486 z "},"७":{"ha":694,"x_min":51,"x_max":643,"o":"m 51 908 l 643 908 l 643 813 l 268 0 l 150 0 l 528 813 l 51 813 l 51 908 z "},"८":{"ha":750,"x_min":74,"x_max":676,"o":"m 676 235 q 589 56 676 124 q 372 -11 501 -11 q 158 53 243 -11 q 74 228 74 118 q 235 453 74 397 q 89 657 89 507 q 173 848 89 778 q 372 918 257 918 q 571 851 488 918 q 654 658 654 783 q 617 536 654 589 q 511 456 579 483 q 676 235 676 404 m 543 658 q 543 693 543 658 q 499 775 543 729 q 373 821 454 821 q 247 774 292 821 q 201 654 201 726 q 250 543 201 582 q 374 504 299 504 q 497 545 450 504 q 543 658 543 586 m 186 238 q 186 204 186 238 q 234 128 186 171 q 374 86 282 86 q 515 133 465 86 q 565 245 565 179 q 517 356 565 311 q 372 403 469 400 q 232 351 278 399 q 186 238 186 304 z "},"९":{"ha":713,"x_min":67,"x_max":658,"o":"m 271 92 q 466 170 403 92 q 543 407 529 249 q 349 325 469 325 q 148 405 229 325 q 67 614 67 485 q 140 831 67 743 q 344 919 214 919 q 578 806 499 919 q 658 518 658 692 q 566 128 658 268 q 275 -11 474 -11 q 118 15 194 -11 l 118 124 q 271 92 190 92 m 547 518 q 499 734 547 650 q 349 818 451 818 q 226 762 271 818 q 181 615 181 706 q 231 474 181 525 q 368 422 282 422 q 547 511 474 422 l 547 518 z "},"॰":{"ha":603,"x_min":79,"x_max":519,"o":"m 212 508 q 193 490 212 508 q 175 421 175 472 q 211 333 175 369 q 299 296 247 296 q 388 333 351 296 q 424 421 424 369 q 388 508 424 472 q 300 544 351 544 q 212 508 249 544 m 299 200 q 254 200 299 200 q 144 265 208 200 q 79 420 79 329 q 144 576 79 511 q 299 640 208 640 q 455 576 390 640 q 519 420 519 511 q 455 265 519 329 q 299 200 390 200 z "},"ॽ":{"ha":776,"x_min":154,"x_max":628,"o":"m 367 957 q 556 898 485 957 q 628 732 628 839 q 547 547 628 639 q 478 469 513 510 q 396 261 396 376 l 396 0 l 288 0 l 288 263 q 311 392 288 332 q 368 494 335 453 q 435 572 401 536 q 515 721 515 660 q 476 819 515 782 q 375 857 438 857 q 154 788 253 857 l 154 899 q 251 940 188 922 q 367 957 315 957 z "},"Ẁ":{"ha":1303,"x_min":50,"x_max":1253,"o":"m 600 922 l 713 922 l 815 589 l 957 114 q 1139 936 1010 365 l 1253 936 l 1033 0 l 889 0 l 658 764 q 438 0 618 610 l 294 0 l 50 936 l 168 936 l 256 589 l 371 118 q 600 922 450 410 m 560 1225 l 696 1008 l 600 1008 l 428 1225 l 560 1225 z "},"ẁ":{"ha":1100,"x_min":35,"x_max":1065,"o":"m 251 0 l 35 704 l 151 704 q 318 107 289 235 q 486 704 333 175 l 603 704 l 775 106 q 953 704 793 179 l 1065 704 l 843 0 l 708 0 l 642 231 l 544 582 q 386 0 528 514 l 251 0 m 451 994 l 588 778 l 492 778 l 319 994 l 451 994 z "},"Ẃ":{"ha":1303,"x_min":50,"x_max":1253,"o":"m 619 1010 l 757 1226 l 888 1226 l 715 1010 l 619 1010 m 600 922 l 713 922 l 815 589 l 957 114 q 1139 936 1010 365 l 1253 936 l 1033 0 l 889 0 l 658 764 q 438 0 618 610 l 294 0 l 50 936 l 168 936 l 256 589 l 371 118 q 600 922 450 410 z "},"ẃ":{"ha":1100,"x_min":35,"x_max":1065,"o":"m 506 778 l 643 994 l 774 994 l 601 778 l 506 778 m 251 0 l 35 704 l 151 704 q 318 107 289 235 q 486 704 333 175 l 603 704 l 775 106 q 953 704 793 179 l 1065 704 l 843 0 l 708 0 l 642 231 l 544 582 q 386 0 528 514 l 251 0 z "},"Ẅ":{"ha":1303,"x_min":50,"x_max":1253,"o":"m 467 1067 q 456 1077 467 1067 q 446 1118 446 1088 q 467 1169 446 1149 q 518 1189 488 1189 q 569 1169 549 1189 q 589 1118 589 1149 q 569 1067 589 1088 q 518 1046 549 1046 q 467 1067 488 1046 m 747 1067 q 736 1077 747 1067 q 726 1118 726 1088 q 747 1169 726 1149 q 797 1189 767 1189 q 849 1169 828 1189 q 869 1118 869 1149 q 849 1067 869 1088 q 797 1046 828 1046 q 747 1067 767 1046 m 600 922 l 713 922 l 815 589 l 957 114 q 1139 936 1010 365 l 1253 936 l 1033 0 l 889 0 l 658 764 q 438 0 618 610 l 294 0 l 50 936 l 168 936 l 256 589 l 371 118 q 600 922 450 410 z "},"ẅ":{"ha":1100,"x_min":35,"x_max":1065,"o":"m 354 835 q 344 845 354 835 q 333 886 333 856 q 354 937 333 917 q 406 957 375 957 q 456 937 436 957 q 476 886 476 917 q 456 835 476 856 q 406 814 436 814 q 354 835 375 814 m 634 835 q 624 845 634 835 q 614 886 614 856 q 634 937 614 917 q 685 957 654 957 q 736 937 715 957 q 757 886 757 917 q 736 835 757 856 q 685 814 715 814 q 634 835 654 814 m 251 0 l 35 704 l 151 704 q 318 107 289 235 q 486 704 333 175 l 603 704 l 775 106 q 953 704 793 179 l 1065 704 l 843 0 l 708 0 l 642 231 l 544 582 q 386 0 528 514 l 251 0 z "},"Ỳ":{"ha":824,"x_min":36,"x_max":788,"o":"m 467 0 l 354 0 l 354 347 l 36 936 l 167 936 q 410 450 385 514 q 657 936 417 471 l 788 936 l 467 349 l 467 0 m 474 1010 l 378 1010 l 206 1226 l 338 1226 l 474 1010 z "},"ỳ":{"ha":685,"x_min":11,"x_max":661,"o":"m 108 -242 q 50 -235 72 -242 l 50 -136 q 97 -142 71 -142 q 296 18 238 -142 l 11 704 l 135 704 l 350 153 q 543 704 361 192 l 661 704 l 407 18 q 278 -183 353 -125 q 108 -242 204 -242 m 257 994 l 393 778 l 297 778 l 125 994 l 257 994 z "},"​":{"ha":0,"x_min":0,"x_max":0,"o":""},"‌":{"ha":0,"x_min":-32,"x_max":33,"o":"m 33 -319 l -32 -319 l -32 1126 l 33 1126 l 33 -319 z "},"‍":{"ha":0,"x_min":-176,"x_max":179,"o":"m 33 -319 l -32 -319 l -32 882 l -128 781 l -174 826 l -44 956 l -176 1088 l -131 1133 l 1 1001 l 135 1133 l 179 1089 l 46 956 l 179 824 l 133 778 l 33 882 l 33 -319 z "},"–":{"ha":750,"x_min":79,"x_max":671,"o":"m 79 329 l 79 421 l 671 421 l 671 329 l 79 329 z "},"—":{"ha":1143,"x_min":79,"x_max":1064,"o":"m 79 332 l 79 424 l 1064 424 l 1064 332 l 79 332 z "},"‘":{"ha":250,"x_min":15,"x_max":268,"o":"m 268 965 l 151 654 l 15 654 l 182 965 l 268 965 z "},"’":{"ha":251,"x_min":17,"x_max":269,"o":"m 17 654 l 133 965 l 269 965 l 103 654 l 17 654 z "},"‚":{"ha":251,"x_min":3,"x_max":254,"o":"m 3 -171 l 118 140 l 254 140 l 89 -171 l 3 -171 z "},"“":{"ha":450,"x_min":17,"x_max":468,"o":"m 468 965 l 353 654 l 221 654 l 383 965 l 468 965 m 268 965 l 151 654 l 17 654 l 183 965 l 268 965 z "},"”":{"ha":449,"x_min":17,"x_max":468,"o":"m 17 654 l 132 965 l 263 965 l 101 654 l 17 654 m 215 654 l 333 965 l 468 965 l 300 654 l 215 654 z "},"„":{"ha":449,"x_min":4,"x_max":454,"o":"m 4 -171 l 118 140 l 250 140 l 89 -171 l 4 -171 m 203 -171 l 319 140 l 454 140 l 288 -171 l 203 -171 z "},"†":{"ha":726,"x_min":58,"x_max":669,"o":"m 669 699 l 669 603 l 408 603 l 408 0 l 308 0 l 308 603 l 58 603 l 58 699 l 308 699 l 308 936 l 408 936 l 408 699 l 669 699 z "},"‡":{"ha":736,"x_min":63,"x_max":674,"o":"m 674 603 l 413 603 l 413 347 l 674 347 l 674 251 l 413 251 l 413 0 l 313 0 l 313 251 l 63 251 l 63 347 l 313 347 l 313 603 l 63 603 l 63 699 l 313 699 l 313 936 l 413 936 l 413 699 l 674 699 l 674 603 z "},"•":{"ha":624,"x_min":128,"x_max":496,"o":"m 181 363 q 154 389 181 363 q 128 494 128 415 q 180 626 128 574 q 310 679 232 679 q 442 626 389 679 q 496 494 496 572 q 443 363 496 417 q 312 310 390 310 q 181 363 233 310 z "},"…":{"ha":1000,"x_min":50,"x_max":950,"o":"m 810 13 q 798 24 810 13 q 786 71 786 36 q 810 129 786 106 q 868 153 833 153 q 926 129 903 153 q 950 71 950 106 q 926 13 950 36 q 868 -11 903 -11 q 810 13 833 -11 m 442 13 q 430 24 442 13 q 418 71 418 36 q 442 129 418 106 q 500 153 465 153 q 558 129 535 153 q 582 71 582 106 q 558 13 582 36 q 500 -11 535 -11 q 442 13 465 -11 m 74 13 q 62 24 74 13 q 50 71 50 36 q 74 129 50 106 q 132 153 97 153 q 190 129 167 153 q 214 71 214 106 q 190 13 214 36 q 132 -11 167 -11 q 74 13 97 -11 z "},"‰":{"ha":1683,"x_min":63,"x_max":1643,"o":"m 1335 298 q 1317 280 1335 298 q 1299 210 1299 261 q 1335 122 1299 158 q 1424 86 1372 86 q 1511 122 1475 86 q 1547 210 1547 158 q 1511 298 1547 261 q 1424 335 1475 335 q 1335 298 1372 335 m 1267 55 q 1235 87 1267 55 q 1203 210 1203 119 q 1267 365 1203 300 q 1423 431 1332 431 q 1578 365 1514 431 q 1643 210 1643 300 q 1578 55 1643 119 q 1423 -10 1514 -10 q 1267 55 1332 -10 m 796 298 q 778 280 796 298 q 760 210 760 261 q 796 122 760 158 q 883 86 832 86 q 972 122 935 86 q 1008 210 1008 158 q 972 298 1008 261 q 884 335 936 335 q 796 298 832 335 m 194 803 q 176 785 194 803 q 158 715 158 767 q 194 627 158 664 q 282 590 231 590 q 370 627 333 590 q 407 715 407 664 q 370 803 407 767 q 282 839 333 839 q 194 803 231 839 m 282 494 q 237 494 282 494 q 127 559 192 494 q 63 715 63 624 q 127 870 63 806 q 282 935 192 935 q 438 870 372 935 q 503 715 503 806 q 438 559 503 624 q 282 494 372 494 m 883 -10 q 837 -10 883 -10 q 728 55 792 -10 q 664 210 664 119 q 728 366 664 301 q 883 431 792 431 q 1038 365 974 431 q 1103 210 1103 300 q 1038 55 1103 119 q 883 -10 974 -10 m 281 -1 l 776 924 l 883 924 l 385 -1 l 281 -1 z "},"‹":{"ha":415,"x_min":40,"x_max":371,"o":"m 371 576 l 167 351 l 371 126 l 250 126 l 40 351 l 250 576 l 371 576 z "},"›":{"ha":413,"x_min":44,"x_max":375,"o":"m 167 576 l 375 351 l 167 126 l 44 126 l 249 351 l 44 576 l 167 576 z "},"⁄":{"ha":432,"x_min":28,"x_max":440,"o":"m 28 207 l 404 781 l 440 781 l 64 207 l 28 207 z "},"⁴":{"ha":532,"x_min":49,"x_max":489,"o":"m 489 756 l 489 681 l 401 681 l 401 544 l 319 544 l 319 681 l 49 681 l 49 756 l 276 1142 l 401 1142 l 401 756 l 489 756 m 319 756 l 319 1071 l 133 756 l 319 756 z "},"€":{"ha":819,"x_min":72,"x_max":764,"o":"m 764 776 q 610 811 708 811 q 439 758 511 811 q 335 606 367 704 l 611 606 l 611 526 l 317 526 q 313 454 313 492 q 317 386 313 417 l 611 386 l 611 307 l 332 307 q 435 149 363 204 q 606 93 508 93 q 764 131 703 93 l 764 22 q 577 -11 701 -11 q 351 74 453 -11 q 214 307 249 160 l 72 307 l 72 386 l 200 386 q 197 458 197 428 q 201 526 197 489 l 72 526 l 72 606 l 215 606 q 356 835 253 753 q 597 917 458 917 q 764 885 704 917 l 764 776 z "},"₹":{"ha":751,"x_min":89,"x_max":685,"o":"m 685 936 l 685 842 l 460 842 q 547 697 528 789 l 685 697 l 685 604 l 551 604 q 457 422 542 490 q 232 354 372 354 l 219 354 l 503 0 l 364 0 l 89 354 l 89 447 l 225 447 q 440 604 422 447 l 89 604 l 89 697 l 435 697 q 224 842 400 842 l 89 842 l 89 936 l 685 936 z "},"™":{"ha":964,"x_min":3,"x_max":922,"o":"m 3 861 l 3 936 l 325 936 l 325 861 l 207 861 l 207 458 l 124 458 l 124 861 l 3 861 m 369 460 l 407 936 l 515 936 l 594 711 l 642 564 q 778 936 672 657 l 888 936 l 922 460 l 839 460 l 825 675 l 819 836 q 685 469 800 775 l 600 469 l 474 836 q 453 460 474 818 l 369 460 z "},"Ω":{"ha":1085,"x_min":74,"x_max":1011,"o":"m 1011 99 l 1011 0 l 604 0 l 604 99 q 778 222 721 119 q 836 487 836 325 q 758 749 836 649 q 539 849 681 849 q 318 749 397 849 q 239 490 239 649 q 303 225 239 331 q 479 99 367 119 l 479 0 l 74 0 l 74 99 l 292 99 q 121 479 121 214 q 233 824 121 693 q 539 954 346 954 q 843 824 732 954 q 954 479 954 694 q 790 99 954 211 l 1011 99 z "},"∂":{"ha":717,"x_min":54,"x_max":653,"o":"m 351 936 q 560 706 467 861 q 653 381 653 550 q 570 101 653 213 q 333 -11 488 -11 q 128 77 203 -11 q 54 294 54 165 q 140 504 54 424 q 342 585 226 585 q 532 507 457 585 q 400 755 497 638 q 196 936 303 872 l 351 936 m 168 290 q 168 246 168 290 q 215 146 168 201 q 351 90 261 90 q 492 172 440 90 q 546 388 543 254 q 347 488 469 488 q 218 433 268 488 q 168 290 168 379 z "},"∆":{"ha":858,"x_min":43,"x_max":815,"o":"m 815 0 l 43 0 l 43 92 l 354 936 l 510 936 l 815 92 l 815 0 m 164 96 l 694 96 l 432 850 q 164 96 386 728 z "},"∏":{"ha":825,"x_min":-54,"x_max":722,"o":"m 722 936 l 722 -250 l 610 -250 l 610 835 l 247 835 l 247 -6 q 35 -256 247 -256 q -54 -240 -17 -256 l -54 -136 q 21 -153 -18 -153 q 135 -18 135 -153 l 135 936 l 722 936 z "},"∑":{"ha":613,"x_min":42,"x_max":665,"o":"m 665 936 l 665 838 l 168 838 l 415 339 l 168 -179 l 665 -179 l 665 -278 l 42 -278 l 42 -179 l 290 339 l 42 838 l 42 936 l 665 936 z "},"−":{"ha":768,"x_min":79,"x_max":690,"o":"m 79 422 l 79 522 l 690 522 l 690 422 l 79 422 z "},"∕":{"ha":599,"x_min":115,"x_max":528,"o":"m 115 207 l 492 781 l 528 781 l 151 207 l 115 207 z "},"∙":{"ha":336,"x_min":86,"x_max":250,"o":"m 110 410 q 98 422 110 410 q 86 468 86 433 q 110 526 86 503 q 168 550 133 550 q 226 526 203 550 q 250 468 250 503 q 226 410 250 433 q 168 386 203 386 q 110 410 133 386 z "},"√":{"ha":1049,"x_min":46,"x_max":1113,"o":"m 574 -183 q 608 -40 574 -169 q 776 524 643 89 q 997 1247 910 958 l 1113 1247 l 651 -275 l 497 -275 l 217 492 l 46 492 l 67 586 l 304 586 l 453 171 q 574 -183 574 -161 z "},"∞":{"ha":1160,"x_min":68,"x_max":1092,"o":"m 850 344 q 882 344 850 344 q 951 382 914 344 q 988 480 988 419 q 949 581 988 540 q 843 621 910 621 q 647 479 743 621 q 742 378 699 413 q 850 344 786 344 m 304 251 q 130 313 192 251 q 68 478 68 375 q 134 645 68 581 q 313 710 200 710 q 457 667 394 710 q 581 546 519 625 q 853 711 707 711 q 1028 650 965 711 q 1092 487 1092 589 q 1025 318 1092 385 q 847 251 958 251 q 701 293 763 251 q 578 413 640 335 q 453 294 517 338 q 304 251 389 251 m 208 581 q 190 562 208 581 q 171 483 171 543 q 210 383 171 424 q 315 342 249 342 q 513 481 414 342 q 457 548 481 522 q 394 597 433 574 q 314 619 354 619 q 208 581 246 619 z "},"≈":{"ha":857,"x_min":69,"x_max":786,"o":"m 592 511 q 432 562 528 511 q 299 613 336 613 q 140 518 206 613 l 69 581 q 282 710 164 710 q 448 659 356 710 q 583 608 540 608 q 707 690 660 608 l 786 633 q 592 511 708 511 m 592 233 q 432 284 528 233 q 299 335 336 335 q 140 240 206 335 l 69 303 q 282 432 164 432 q 448 381 356 432 q 583 331 540 331 q 707 413 661 331 l 786 356 q 592 233 708 233 z "},"≠":{"ha":768,"x_min":79,"x_max":690,"o":"m 690 565 l 464 565 l 382 379 l 690 379 l 690 285 l 339 285 l 285 163 l 207 163 l 261 285 l 79 285 l 79 379 l 304 379 l 386 565 l 79 565 l 79 660 l 429 660 l 483 782 l 561 782 l 507 660 l 690 660 l 690 565 z "},"≤":{"ha":761,"x_min":72,"x_max":683,"o":"m 683 776 l 683 674 l 118 561 l 683 447 l 683 346 l 72 481 l 72 640 l 683 776 m 72 167 l 72 261 l 683 261 l 683 167 l 72 167 z "},"≥":{"ha":761,"x_min":79,"x_max":690,"o":"m 79 776 l 690 640 l 690 481 l 79 346 l 79 447 l 646 561 l 79 674 l 79 776 m 79 167 l 79 261 l 690 261 l 690 167 l 79 167 z "},"◊":{"ha":783,"x_min":72,"x_max":711,"o":"m 456 936 l 711 468 l 456 0 l 322 0 l 72 468 l 322 936 l 456 936 m 528 351 l 589 468 l 390 844 q 194 468 363 789 l 390 92 q 528 351 433 179 z "},"◌":{"ha":974,"x_min":100,"x_max":894,"o":"m 413 749 q 405 758 413 749 q 396 793 396 767 q 413 837 396 819 q 457 854 431 854 q 501 837 483 854 q 518 793 518 819 q 501 749 518 767 q 457 732 483 732 q 413 749 431 732 m 633 711 q 620 711 633 711 q 589 729 607 711 q 571 774 571 747 q 588 817 571 800 q 633 835 606 835 q 676 817 660 835 q 693 774 693 800 q 676 729 693 747 q 633 711 658 711 m 720 634 q 711 643 720 634 q 703 678 703 651 q 720 722 703 704 q 764 740 738 740 q 808 723 790 740 q 825 678 825 706 q 808 634 825 651 q 764 617 790 617 q 720 634 738 617 m 789 469 q 781 478 789 469 q 772 514 772 486 q 789 558 772 542 q 833 575 806 575 q 877 558 860 575 q 894 514 894 540 q 877 470 894 488 q 833 453 860 453 q 789 469 806 453 m 820 267 q 807 267 820 267 q 776 284 794 267 q 758 328 758 301 q 776 373 758 356 q 820 390 794 390 q 863 372 846 390 q 881 328 881 354 q 863 284 881 301 q 820 267 846 267 m 674 148 q 666 157 674 148 q 657 192 657 165 q 674 235 657 218 q 718 253 692 253 q 763 235 744 253 q 781 192 781 218 q 763 148 781 165 q 718 131 744 131 q 674 148 692 131 m 506 74 q 497 83 506 74 q 489 118 489 92 q 506 162 489 144 q 550 179 522 179 q 595 162 578 179 q 613 118 613 144 q 595 74 613 92 q 550 57 578 57 q 506 74 522 57 m 375 76 q 362 76 375 76 q 331 94 349 76 q 313 139 313 113 q 331 183 313 165 q 375 201 349 201 q 419 183 401 201 q 436 139 436 165 q 419 94 436 113 q 375 76 401 76 m 233 183 q 219 183 233 183 q 189 200 206 183 q 172 244 172 217 q 190 288 172 271 q 233 306 207 306 q 277 288 260 306 q 294 244 294 271 q 277 201 294 218 q 233 183 260 183 m 117 363 q 109 371 117 363 q 100 406 100 379 q 117 450 100 432 q 161 468 135 468 q 205 451 188 468 q 222 406 222 433 q 205 363 222 379 q 161 346 188 346 q 117 363 135 346 m 136 537 q 127 545 136 537 q 118 581 118 554 q 136 624 118 607 q 181 642 154 642 q 225 624 207 642 q 243 581 243 607 q 225 537 243 554 q 181 519 207 519 q 136 537 154 519 m 293 671 q 280 671 293 671 q 249 688 267 671 q 232 733 232 706 q 249 777 232 760 q 293 794 267 794 q 337 777 319 794 q 354 733 354 760 q 337 688 354 706 q 293 671 319 671 z "},"":{"ha":579,"x_min":160,"x_max":404,"o":"m 160 -337 l 278 -71 l 404 -71 l 250 -337 l 160 -337 z "},"ﬀ":{"ha":803,"x_min":42,"x_max":783,"o":"m 783 882 q 713 893 750 893 q 647 863 675 893 q 618 768 618 832 l 618 704 l 772 704 l 772 615 l 618 615 l 618 0 l 508 0 l 508 615 l 272 615 l 272 0 l 163 0 l 163 615 l 42 615 l 42 704 l 163 704 l 163 769 q 219 932 163 872 q 380 992 275 992 q 574 943 485 992 q 715 992 629 992 q 783 982 747 992 l 783 882 m 508 704 l 508 769 q 522 863 508 817 q 385 893 457 893 q 272 768 272 893 l 272 704 l 508 704 z "},"ﬁ":{"ha":714,"x_min":42,"x_max":618,"o":"m 618 704 l 618 0 l 508 0 l 508 615 l 272 615 l 272 0 l 163 0 l 163 615 l 42 615 l 42 704 l 163 704 l 163 769 q 218 932 163 872 q 374 992 274 992 q 568 944 474 992 l 568 843 q 379 893 471 893 q 272 768 272 893 l 272 704 l 618 704 z "},"ﬂ":{"ha":708,"x_min":42,"x_max":607,"o":"m 163 704 l 163 769 q 217 932 163 872 q 382 992 272 992 q 607 924 492 992 l 607 0 l 499 0 l 499 871 q 386 893 440 893 q 272 768 272 893 l 272 704 l 428 704 l 428 615 l 272 615 l 272 0 l 163 0 l 163 615 l 42 615 l 42 704 l 163 704 z "},"ﬃ":{"ha":1090,"x_min":42,"x_max":964,"o":"m 964 704 l 964 0 l 854 0 l 854 615 l 618 615 l 618 0 l 508 0 l 508 615 l 272 615 l 272 0 l 163 0 l 163 615 l 42 615 l 42 704 l 163 704 l 163 769 q 219 932 163 872 q 376 992 275 992 q 575 943 478 992 q 724 992 631 992 q 914 944 817 992 l 914 843 q 725 893 817 893 q 618 768 618 893 l 618 704 l 964 704 m 508 704 l 508 769 q 522 863 508 817 q 385 893 457 893 q 272 768 272 893 l 272 704 l 508 704 z "},"ﬄ":{"ha":1056,"x_min":42,"x_max":954,"o":"m 163 704 l 163 769 q 219 932 163 872 q 376 992 275 992 q 575 943 478 992 q 734 992 632 992 q 954 924 836 992 l 954 0 l 844 0 l 844 871 q 733 893 786 893 q 619 768 619 893 l 619 704 l 774 704 l 774 615 l 619 615 l 619 0 l 510 0 l 510 615 l 272 615 l 272 0 l 163 0 l 163 615 l 42 615 l 42 704 l 163 704 m 510 704 l 510 769 q 524 863 510 822 q 385 893 456 893 q 272 768 272 893 l 272 704 l 510 704 z "}}}
